{"glyphs":{"0":{"ha":747,"x_min":62,"x_max":668,"o":"m 296 982 q 303 990 297 983 q 313 1000 309 996 q 323 1009 317 1004 q 334 1017 330 1014 q 343 1019 339 1019 q 393 1037 353 1019 q 456 1055 433 1055 q 521 1034 499 1055 q 551 1010 531 1023 q 575 994 572 997 q 585 983 581 989 q 592 968 589 977 q 596 956 595 958 q 605 944 599 949 q 616 929 610 938 q 623 907 622 921 q 633 878 625 892 q 654 779 652 846 q 660 715 654 763 q 668 595 668 648 q 667 554 668 581 q 667 511 667 528 q 663 483 666 503 q 660 454 660 462 q 654 431 660 444 q 647 410 649 418 q 640 350 640 374 q 636 313 640 322 q 612 228 625 282 q 605 209 610 218 q 593 190 601 201 q 582 172 586 179 q 571 151 576 163 q 560 129 565 138 q 546 110 555 120 q 535 97 542 105 q 526 86 528 89 q 517 78 523 84 q 501 65 511 73 q 480 48 490 57 q 467 38 469 40 q 457 31 465 35 q 442 22 449 26 q 418 11 435 19 q 376 -4 394 0 q 323 -8 358 -8 q 281 0 302 -8 q 245 18 260 8 q 227 28 230 27 q 195 43 203 35 q 185 57 191 46 q 170 77 178 68 q 131 137 157 89 q 97 207 104 184 q 89 231 96 210 q 79 263 82 252 q 73 289 76 274 q 69 314 69 304 q 68 346 69 328 q 66 372 66 364 q 64 416 66 395 q 63 424 64 418 q 62 435 62 430 q 67 520 62 468 q 79 596 73 573 q 87 623 83 608 q 95 645 92 637 q 100 662 98 653 q 103 679 102 671 q 110 706 104 689 q 117 734 115 722 q 117 742 117 737 q 118 749 118 747 q 119 756 119 751 q 120 763 120 760 q 122 770 121 766 q 124 778 123 774 q 127 786 125 781 q 131 795 129 791 q 136 806 134 800 q 187 880 164 860 q 203 905 193 885 q 220 932 213 924 q 267 966 243 958 q 296 982 287 973 m 447 990 q 411 985 425 990 q 391 974 408 983 q 358 960 373 964 q 293 921 319 949 q 258 854 267 893 q 250 832 256 844 q 240 814 245 820 l 236 807 l 212 730 q 193 642 198 684 q 192 625 192 636 q 193 606 192 616 q 194 589 193 595 l 195 582 q 194 579 194 581 q 194 573 194 578 q 192 562 193 569 q 184 446 184 515 q 199 330 184 378 q 201 317 200 326 q 204 300 201 308 q 212 282 206 292 q 223 256 218 272 q 233 215 228 240 q 239 189 238 191 q 269 134 243 172 q 310 82 294 95 q 352 62 325 71 q 404 54 380 54 q 452 87 428 54 q 464 100 457 95 q 478 108 471 104 q 489 114 486 112 q 505 144 502 123 q 509 158 507 153 q 517 169 512 163 q 526 183 522 176 q 543 200 532 194 q 557 212 553 207 q 565 242 562 220 q 572 277 568 264 q 576 310 576 290 q 582 339 576 327 q 593 385 588 355 q 596 427 596 408 q 603 472 596 446 q 610 554 608 492 q 613 611 610 585 q 615 654 615 636 q 611 703 615 677 q 604 728 608 715 q 597 755 600 741 q 590 815 590 793 q 581 864 590 841 q 574 879 578 871 q 569 891 571 887 q 563 904 567 896 q 551 921 558 911 q 541 937 545 930 q 534 947 536 945 q 530 951 532 949 q 525 956 528 954 q 514 963 524 956 q 494 974 505 970 q 482 979 490 976 q 470 985 475 983 q 459 988 465 987 q 447 990 452 990 z "},"1":{"ha":366,"x_min":64,"x_max":282,"o":"m 64 854 q 66 871 64 865 q 72 880 68 878 q 78 885 75 882 q 83 892 82 888 q 119 949 98 923 q 140 965 127 958 q 154 978 153 971 q 165 1019 159 1003 q 186 1044 170 1031 q 215 1059 202 1057 q 228 1057 222 1059 q 238 1052 235 1055 q 249 1045 242 1050 q 261 1038 256 1040 q 279 1018 275 1029 q 282 981 282 1006 l 282 815 q 278 718 282 730 l 275 711 q 273 700 273 703 q 275 681 273 693 q 277 659 277 673 q 276 638 277 652 q 275 619 275 625 q 270 563 275 609 q 262 501 264 517 q 258 429 258 447 q 263 402 258 413 q 268 387 268 391 q 268 363 268 370 q 267 350 267 357 q 265 329 266 342 q 263 306 264 321 q 261 274 262 290 q 260 245 260 259 q 262 207 260 231 q 268 178 264 192 q 272 155 272 165 q 271 138 272 146 q 269 103 269 124 q 268 68 269 82 q 264 49 267 55 q 241 26 254 32 q 234 20 237 24 q 228 9 231 16 q 222 -1 224 2 q 203 -19 217 -9 q 183 -28 190 -28 q 171 -24 177 -28 q 160 -6 165 -20 q 154 33 154 9 q 155 87 154 62 q 155 123 155 112 q 146 197 155 166 q 142 262 142 210 q 139 351 139 281 q 146 439 139 427 q 152 475 151 449 q 154 513 152 501 q 155 516 154 514 q 155 519 155 519 q 161 567 161 545 q 160 599 161 587 q 158 618 158 609 q 160 646 158 629 q 163 675 162 663 q 160 725 160 706 q 161 745 160 730 q 161 768 161 760 q 153 843 161 828 q 151 847 152 844 q 149 851 149 850 q 146 853 148 852 q 142 856 144 855 q 136 856 140 856 q 117 843 133 856 q 96 831 100 831 q 75 838 87 831 q 64 854 64 846 z "},"2":{"ha":656,"x_min":52,"x_max":596,"o":"m 191 647 q 113 681 122 647 q 110 715 110 689 q 125 804 110 779 q 143 842 133 818 q 160 880 153 867 q 166 891 161 883 q 173 904 171 900 q 180 916 175 908 q 188 928 184 923 q 197 940 192 933 q 208 951 203 946 q 231 968 220 963 q 250 985 242 974 q 278 1014 264 1003 q 326 1038 293 1025 q 395 1050 359 1050 q 452 1044 415 1050 q 559 965 495 1038 q 587 916 581 941 q 595 847 593 891 q 595 810 595 825 q 596 789 595 795 q 596 781 596 783 q 586 733 596 758 q 569 688 580 712 q 555 657 557 663 q 544 634 551 644 q 532 611 537 624 q 492 543 520 583 q 477 524 484 533 q 467 512 470 515 q 461 503 464 508 q 457 492 458 498 l 456 484 q 453 476 454 477 q 451 469 453 475 q 448 460 450 463 q 444 452 447 458 q 438 442 441 447 q 429 432 434 437 q 407 399 422 423 q 379 367 393 374 q 368 360 372 363 q 361 354 363 357 q 358 349 359 351 q 356 343 357 347 q 354 338 355 340 q 341 323 352 332 q 323 304 331 314 q 309 271 317 296 q 285 225 300 246 q 255 175 269 204 q 235 135 241 145 q 214 109 227 123 q 193 82 201 94 q 184 65 184 71 q 212 57 184 57 l 249 57 q 304 54 271 57 q 343 50 336 50 q 386 56 352 51 q 437 62 419 62 q 469 60 453 62 q 493 57 486 57 q 509 58 503 57 q 543 39 543 58 q 542 32 543 35 q 501 14 538 22 q 498 12 500 14 q 494 11 496 11 q 441 6 484 9 q 393 1 398 3 q 368 4 385 1 q 346 7 351 7 q 338 5 339 7 q 315 2 333 3 q 266 0 297 1 q 214 -3 235 -1 q 182 -4 203 -4 q 145 -3 166 -4 q 118 -1 124 -1 q 111 -2 115 -1 q 106 -3 107 -3 q 81 -5 92 -5 q 52 14 52 -5 q 53 22 52 20 q 79 88 60 50 q 111 139 97 126 q 129 159 124 151 q 138 183 133 167 q 165 236 138 204 q 180 256 167 238 q 204 285 193 274 q 250 347 231 311 q 274 386 256 359 q 300 429 291 414 q 316 463 308 444 q 335 500 323 483 q 363 544 343 512 q 399 600 382 576 q 415 626 409 616 q 422 640 420 635 q 427 655 424 645 q 433 673 430 665 q 446 701 437 684 q 459 732 454 718 q 468 762 465 747 q 472 808 472 786 q 467 868 472 831 q 448 913 464 886 q 429 950 432 941 q 406 979 424 967 q 368 991 389 991 q 352 990 359 991 q 340 987 346 989 q 331 984 334 985 q 321 980 328 983 q 310 974 314 976 q 297 966 300 969 q 292 955 294 962 q 282 939 289 947 q 232 860 246 891 q 223 845 229 852 q 215 830 218 838 q 211 803 213 823 q 210 777 210 795 q 212 734 210 761 q 214 697 214 708 q 208 653 212 659 q 191 647 203 647 z "},"3":{"ha":691,"x_min":58,"x_max":616,"o":"m 104 975 q 108 990 104 984 q 114 1000 111 997 q 124 1006 117 1002 q 131 1010 130 1009 q 140 1023 134 1012 q 153 1039 146 1034 q 201 1053 176 1053 q 221 1050 208 1053 q 258 1046 237 1046 q 302 1043 297 1046 q 340 1034 323 1034 q 344 1034 342 1034 q 347 1035 347 1035 q 383 1044 368 1042 q 416 1046 391 1046 q 461 1045 431 1046 q 500 1044 490 1044 q 518 1043 511 1044 q 529 1041 526 1042 q 534 1038 532 1040 q 539 1036 537 1037 q 549 1026 544 1035 q 554 1006 554 1017 q 549 986 554 995 q 517 951 544 979 q 484 908 490 924 q 433 829 472 881 q 422 809 427 821 q 412 779 418 796 q 403 751 406 761 q 395 734 399 742 q 388 721 391 726 q 386 713 386 716 q 387 707 386 708 q 399 703 389 703 q 419 705 404 703 q 443 707 435 707 q 456 705 452 707 q 500 685 472 701 q 547 653 529 668 q 595 570 574 632 q 612 490 602 549 q 616 447 616 470 q 616 432 616 442 q 615 415 615 422 q 609 385 614 397 q 603 366 603 373 q 604 351 603 359 q 604 340 604 343 q 581 273 604 305 q 566 236 566 251 q 561 205 566 215 q 542 189 554 193 q 528 171 530 184 q 527 167 528 170 q 526 164 526 165 q 519 143 523 149 q 500 123 515 137 q 472 95 488 113 q 444 64 457 76 q 382 26 422 43 q 335 5 342 10 q 278 -10 319 -5 q 236 -16 237 -15 q 222 -17 232 -17 q 158 -4 201 -17 q 120 17 142 1 q 85 46 98 33 q 58 96 58 73 q 76 140 60 115 q 109 167 92 164 q 120 164 115 167 q 129 160 125 162 q 136 152 132 157 q 142 143 140 146 q 147 133 144 140 q 151 125 151 126 q 181 99 156 115 q 210 79 205 83 q 262 60 235 60 q 332 71 265 60 q 395 110 357 75 q 422 141 408 122 q 439 161 437 159 q 479 241 460 186 q 494 351 494 286 q 491 386 494 365 q 488 436 488 408 q 472 509 488 471 q 435 574 456 547 q 423 588 427 583 q 415 597 419 593 q 409 602 410 601 q 401 606 408 603 q 392 611 395 610 q 380 618 387 614 q 370 625 374 623 q 359 629 367 627 q 339 631 351 631 q 315 632 327 631 q 301 633 304 633 q 282 629 296 633 q 256 613 271 626 q 227 599 241 601 q 209 594 218 597 q 196 591 199 591 q 182 603 187 591 q 179 615 179 611 q 203 661 179 633 q 260 751 227 690 q 279 776 266 763 q 296 802 292 789 q 296 804 296 802 q 297 806 297 805 q 323 856 306 834 q 345 889 332 865 q 370 928 358 913 q 386 947 376 935 q 399 964 395 958 q 403 974 403 970 q 401 979 403 978 q 386 983 397 983 q 354 981 378 983 q 315 978 330 978 q 216 972 256 978 q 183 967 201 970 q 154 963 165 964 q 134 961 143 961 q 111 963 117 961 q 104 975 104 966 z "},"4":{"ha":749,"x_min":72,"x_max":675,"o":"m 318 936 q 317 949 318 941 q 317 960 317 956 q 336 999 317 978 q 350 1014 340 1003 q 362 1028 359 1025 q 373 1038 366 1031 q 387 1047 380 1044 q 401 1053 393 1050 q 443 1063 430 1061 q 456 1035 456 1063 q 446 978 456 1012 q 436 938 439 956 q 425 900 432 920 q 400 852 418 878 q 379 819 382 827 q 369 779 374 808 q 354 733 363 749 q 333 694 345 718 q 310 650 321 670 q 284 592 300 633 q 258 541 269 550 q 244 525 250 533 q 234 506 239 516 q 227 492 229 495 q 219 477 224 488 q 209 459 214 467 q 199 446 204 451 q 186 422 186 433 q 191 415 186 418 q 258 406 219 406 l 298 406 q 366 400 347 406 q 411 395 387 395 q 446 397 421 395 q 521 411 507 397 q 524 421 524 414 q 522 439 524 424 q 521 468 521 454 q 522 497 521 486 q 534 682 534 613 l 534 701 q 539 752 534 721 q 546 806 545 783 q 547 823 546 812 q 547 838 547 834 q 546 870 547 851 q 545 901 545 890 l 545 942 q 549 986 545 974 q 558 1003 551 997 q 576 1017 565 1010 q 595 1031 588 1025 q 647 1054 620 1054 q 659 1046 654 1053 q 665 1022 663 1038 q 668 997 667 1006 q 669 966 669 987 q 672 932 670 953 q 675 903 675 911 q 673 886 675 892 q 671 862 673 883 q 667 836 670 842 q 661 811 661 825 q 663 793 661 804 q 664 779 664 782 q 661 759 664 772 q 656 737 657 745 q 653 671 653 719 q 652 638 653 665 q 652 591 652 610 q 654 579 652 586 q 657 566 657 572 q 654 549 657 560 q 652 533 652 538 q 650 471 650 509 q 648 428 649 433 q 653 388 648 414 q 657 347 657 363 q 656 322 657 332 q 640 204 644 244 q 634 137 636 168 q 631 100 631 106 q 629 85 630 96 q 628 69 629 74 q 626 57 627 64 q 621 43 624 49 q 612 33 617 38 q 598 13 607 28 q 580 -11 589 -2 q 559 -20 571 -20 q 539 -10 547 -20 q 528 8 530 -1 q 521 32 525 16 q 518 62 518 45 q 520 115 518 79 q 522 160 522 151 l 522 268 q 524 296 522 277 q 525 322 525 314 q 504 354 525 354 q 461 352 490 354 q 415 350 431 350 l 329 350 q 301 351 304 350 q 224 359 295 353 q 196 361 214 361 q 169 360 187 361 q 138 359 151 359 q 116 359 128 359 q 102 358 104 358 q 77 371 85 358 q 72 383 72 378 q 83 412 72 393 q 97 440 94 431 q 176 599 106 469 q 202 654 189 622 q 224 697 214 687 q 257 760 252 728 q 278 817 259 774 q 300 873 296 859 q 310 903 302 886 q 318 936 318 921 z "},"5":{"ha":753,"x_min":61,"x_max":677,"o":"m 171 954 q 179 982 171 970 q 194 1000 186 994 q 215 1013 202 1005 q 230 1022 221 1016 q 246 1032 239 1029 q 264 1036 253 1035 q 296 1038 273 1038 q 340 1036 328 1038 q 382 1035 351 1035 q 422 1036 413 1035 q 458 1045 433 1037 q 500 1055 484 1053 q 525 1059 520 1059 q 556 1055 537 1059 q 581 1051 576 1052 q 607 1022 607 1047 l 607 1015 q 595 996 605 1002 q 574 990 585 990 q 555 994 570 990 q 528 997 541 997 q 511 996 517 997 q 504 995 509 996 q 497 994 499 994 q 476 997 489 994 q 454 999 464 999 q 436 997 446 999 q 409 989 416 994 q 393 983 402 985 q 328 972 342 977 q 311 943 311 968 q 313 920 311 936 q 315 897 315 905 q 310 851 315 878 q 302 765 302 811 l 302 746 q 309 742 302 742 q 334 751 315 742 q 358 762 353 761 q 428 777 403 777 q 449 777 431 777 q 478 778 466 778 q 539 771 524 778 q 589 742 561 762 q 628 700 616 722 q 645 673 633 690 q 663 643 657 656 q 669 615 669 630 q 668 590 669 603 q 667 574 667 577 q 672 535 667 563 q 677 490 677 508 q 672 399 677 444 q 659 348 670 384 q 644 297 648 313 q 641 281 643 290 q 639 271 640 273 q 637 265 639 269 q 634 258 636 260 q 629 250 633 256 q 608 204 620 235 q 603 192 605 196 q 596 184 601 189 q 587 174 591 179 q 575 156 584 170 q 555 130 566 142 q 534 107 545 117 q 520 94 527 100 q 511 84 513 87 q 504 79 508 81 q 493 75 500 77 q 447 58 456 67 q 392 28 427 36 q 356 13 372 22 q 332 1 341 3 q 316 -3 325 0 q 299 -8 307 -7 q 273 -9 290 -9 q 189 5 219 -9 q 178 16 186 7 q 158 29 171 24 q 122 49 139 36 q 108 58 120 50 q 94 70 96 66 q 83 81 91 73 q 73 100 76 90 q 68 125 70 111 q 67 130 68 127 q 66 135 66 134 q 61 192 61 185 q 66 227 61 210 q 89 256 73 246 q 122 268 104 267 q 136 262 132 268 q 142 250 141 256 q 144 231 144 243 l 144 197 q 146 161 144 172 q 165 107 148 133 q 190 89 172 98 q 212 75 208 80 q 260 54 219 67 q 294 49 274 49 q 330 52 306 49 q 375 65 347 54 q 415 89 402 77 q 444 132 426 99 q 463 165 461 164 q 489 225 481 194 q 510 285 499 265 q 528 342 528 317 q 532 392 528 350 q 531 423 532 408 q 530 441 530 438 q 534 468 530 452 q 538 492 538 484 q 534 513 538 500 q 530 532 530 526 q 517 606 522 566 q 485 684 513 637 q 456 716 474 702 q 419 732 438 730 q 361 721 392 732 q 343 718 353 721 q 322 708 334 714 q 306 700 311 702 q 294 692 298 697 q 281 669 290 686 q 271 641 275 659 q 264 615 267 622 q 233 597 258 604 q 221 594 228 597 q 205 582 214 590 q 195 574 196 574 q 167 561 176 561 q 153 567 159 561 q 143 603 143 576 q 144 618 143 608 q 144 636 144 629 q 151 680 145 655 q 158 717 157 705 q 166 753 160 730 q 172 790 172 777 q 174 824 172 805 q 175 860 175 843 q 173 908 175 877 q 171 954 171 939 z "},"6":{"ha":768,"x_min":74,"x_max":699,"o":"m 567 865 q 555 869 559 865 q 549 880 551 873 q 547 899 548 886 q 543 926 546 917 q 528 950 540 935 q 469 989 501 983 q 465 989 468 989 q 460 990 461 990 q 445 988 453 990 q 431 985 437 987 q 416 979 425 983 q 401 974 406 975 q 386 969 395 972 q 372 965 376 966 q 361 959 367 963 q 350 950 355 956 q 335 934 346 945 q 316 912 325 923 q 300 892 307 902 q 284 873 294 884 q 268 853 274 863 q 260 832 262 844 q 245 789 258 817 q 232 754 233 761 q 212 692 227 732 q 205 650 205 672 q 206 630 205 644 q 207 606 207 616 q 204 566 206 593 q 200 516 202 538 q 199 490 199 494 q 206 498 200 490 q 220 516 212 507 q 232 529 228 526 q 245 550 237 533 q 258 574 252 567 q 338 636 302 621 q 356 645 344 639 q 378 656 368 652 q 401 661 389 660 q 426 667 410 662 q 471 672 441 672 q 507 669 488 672 q 535 662 525 665 q 562 652 546 659 q 579 646 577 646 q 598 635 588 643 q 620 616 608 627 q 635 603 631 606 q 675 526 660 583 q 683 498 677 515 q 691 471 688 481 q 696 444 694 461 q 699 408 699 427 q 692 351 699 378 q 686 314 686 323 q 664 224 686 271 q 652 199 658 212 q 645 182 647 187 q 638 169 642 176 q 628 151 634 161 q 606 126 620 138 q 581 97 592 114 q 559 69 567 77 q 532 50 551 61 q 502 31 515 41 q 478 16 488 21 q 392 -12 435 -12 q 311 -5 340 -12 q 297 -2 302 -3 q 287 1 292 -1 q 280 5 282 3 q 271 10 277 6 q 258 17 264 14 q 226 31 243 25 q 205 39 208 37 q 191 53 197 42 q 174 72 184 63 q 133 112 154 88 q 106 154 113 136 q 86 273 86 209 q 84 325 86 299 q 79 365 81 350 q 77 380 77 380 q 76 386 77 382 q 75 397 76 390 q 74 411 75 404 q 75 436 74 421 q 77 463 76 451 q 78 475 78 474 q 79 494 78 480 q 81 509 81 507 q 85 552 81 519 q 90 606 89 585 q 98 638 91 615 q 104 669 104 661 q 110 679 104 670 q 157 789 118 693 q 187 858 177 839 q 215 899 197 876 q 236 929 229 916 q 245 945 243 942 q 271 961 250 949 q 298 978 293 974 q 308 988 302 981 q 321 999 313 995 q 340 1006 328 1004 q 380 1019 353 1008 q 437 1038 407 1030 q 498 1047 476 1047 q 538 1040 515 1047 q 611 996 572 1030 q 632 936 632 976 q 631 927 632 935 q 630 915 631 919 q 626 904 629 911 q 618 892 623 897 q 567 865 591 865 m 215 370 q 220 337 215 354 q 228 307 226 320 q 230 287 229 300 q 232 267 231 274 q 236 249 233 260 q 244 225 239 237 q 267 178 251 208 q 293 125 283 148 q 307 99 300 109 q 318 85 313 89 q 334 74 323 81 q 353 62 346 67 q 404 33 393 33 q 427 41 412 33 q 447 56 442 49 l 457 72 q 475 96 468 88 q 498 105 479 101 q 524 118 516 110 q 549 191 538 136 q 556 222 549 193 q 564 267 564 251 q 565 291 564 277 q 567 311 567 305 q 566 329 567 322 q 568 369 566 345 q 571 403 571 393 q 570 416 571 412 q 550 498 557 479 q 543 520 549 503 q 533 546 536 538 q 525 566 530 554 q 513 586 519 578 q 441 625 490 616 q 437 626 440 625 q 432 627 434 627 q 390 617 413 627 q 353 595 368 607 q 332 578 347 590 q 309 558 317 567 q 282 505 290 539 q 275 491 280 497 q 260 474 271 484 q 243 457 250 465 q 215 370 215 425 z "},"7":{"ha":700,"x_min":77,"x_max":628,"o":"m 104 856 q 87 872 91 856 q 83 918 83 888 q 87 945 83 931 q 90 966 90 960 q 89 978 90 974 q 83 992 87 989 q 79 996 79 994 q 81 1002 79 999 q 98 1024 83 1013 q 126 1042 112 1036 q 144 1044 132 1044 q 173 1042 152 1044 q 208 1039 194 1040 q 250 1036 216 1038 q 300 1034 283 1034 q 332 1036 315 1034 q 363 1042 357 1042 q 371 1042 363 1042 q 394 1043 379 1042 q 427 1043 409 1043 q 472 1040 447 1043 q 515 1038 497 1038 q 593 1039 564 1038 q 619 1034 614 1039 q 628 1007 625 1029 q 616 962 628 989 q 593 920 605 936 q 583 893 585 909 q 575 867 581 878 q 552 830 568 854 q 533 799 536 806 q 526 766 531 795 q 509 711 522 736 q 464 615 482 661 q 463 613 464 614 q 463 611 463 612 q 428 542 448 574 q 416 523 423 534 q 406 508 408 512 q 401 496 404 505 q 397 476 399 488 q 393 453 395 462 q 387 437 391 445 q 380 422 382 429 q 340 349 372 397 q 336 342 338 345 q 332 336 334 339 q 329 332 330 334 q 327 328 328 330 q 325 324 326 326 q 323 320 324 321 q 322 316 323 319 q 320 311 321 313 q 318 304 319 309 q 315 297 316 300 q 307 276 311 283 q 298 264 303 270 q 289 252 293 258 q 277 221 282 241 q 268 193 271 201 q 245 146 253 158 q 239 136 242 140 q 234 131 235 132 q 227 126 232 130 q 221 122 222 123 q 214 99 216 119 q 207 75 211 80 q 192 53 203 71 q 174 24 182 35 q 134 -8 166 14 q 93 -29 102 -29 q 77 -9 77 -29 q 81 9 77 -1 q 87 39 85 21 q 93 65 89 56 q 107 83 96 73 q 119 102 118 94 q 119 118 119 107 q 118 134 118 129 q 119 139 118 137 q 122 143 120 142 q 129 150 123 145 q 139 160 134 155 q 154 177 149 171 q 164 196 159 184 q 174 225 170 208 q 199 288 177 241 q 225 358 220 334 q 237 395 229 378 q 255 428 245 412 q 267 447 264 444 q 277 476 270 454 q 293 513 284 499 q 319 572 317 549 q 342 625 322 597 q 367 684 343 627 q 401 746 391 741 q 416 772 412 751 q 427 806 420 793 q 440 846 433 818 q 460 890 448 874 q 478 928 471 907 q 490 957 486 949 q 496 974 496 964 q 473 990 496 990 q 432 992 456 990 q 396 994 407 994 q 355 990 377 994 q 313 985 334 986 q 291 983 304 984 q 274 982 279 983 q 262 981 269 982 q 249 979 254 981 q 235 975 243 978 q 218 968 223 972 q 206 958 212 964 q 192 946 200 952 q 180 937 185 941 q 172 925 176 932 q 165 915 168 919 q 159 901 163 911 q 153 888 155 892 q 104 856 137 856 z "},"8":{"ha":790,"x_min":50,"x_max":720,"o":"m 427 1048 q 452 1050 431 1048 q 485 1051 473 1051 q 525 1044 515 1051 q 553 1028 537 1036 q 575 1018 570 1021 q 590 1007 583 1014 q 607 991 598 1000 q 621 978 616 981 q 631 962 627 972 q 643 935 636 952 q 652 909 649 917 q 667 838 667 874 q 660 771 667 808 q 646 717 654 734 q 603 647 623 673 q 554 602 583 622 q 567 585 554 594 q 602 563 581 575 q 632 543 623 551 q 686 481 659 522 q 720 375 720 433 q 713 288 720 350 q 711 273 713 286 q 709 254 710 260 q 706 237 708 248 q 700 215 704 225 q 690 193 696 204 q 667 160 680 172 q 647 134 655 147 q 532 32 604 65 q 508 22 519 26 q 493 16 498 18 q 478 13 488 15 q 464 9 468 11 q 445 4 463 9 q 416 -3 427 -1 q 384 -9 404 -6 q 346 -12 363 -12 q 303 -6 323 -12 q 270 6 284 -1 q 252 14 256 13 q 196 36 235 16 q 139 75 156 56 q 81 165 94 127 q 74 183 79 172 q 67 202 69 195 q 62 218 64 208 q 60 236 60 227 q 55 266 59 249 q 50 293 50 283 q 56 351 50 336 q 78 404 61 366 q 103 457 94 442 q 119 471 109 467 q 132 490 129 475 q 148 522 137 510 q 184 551 158 533 l 248 593 q 199 632 221 614 q 150 692 168 657 q 123 753 134 723 q 121 779 121 764 q 127 847 121 810 q 143 893 134 884 q 180 953 165 916 q 204 981 185 965 q 244 1006 224 996 q 321 1031 296 1029 q 350 1037 330 1031 q 382 1044 370 1042 q 427 1048 400 1048 m 443 1004 q 416 1002 434 1004 q 390 999 399 999 q 380 1001 388 999 q 368 1003 373 1003 q 358 1000 362 1003 q 346 990 353 997 q 329 978 338 983 q 320 972 326 976 q 311 966 313 968 q 302 961 308 964 q 294 955 297 957 q 287 948 292 952 q 279 939 282 943 q 272 929 276 935 q 264 917 268 924 q 243 854 243 880 q 243 846 243 852 q 244 838 244 840 q 249 742 249 791 q 275 687 249 728 q 318 636 302 646 q 360 617 334 627 q 397 608 387 608 q 419 609 399 608 q 462 613 440 610 q 494 621 484 616 q 510 629 506 625 q 519 640 514 633 q 532 654 524 647 q 544 667 540 662 q 549 676 547 672 q 556 692 551 680 q 567 717 561 704 q 596 828 596 778 q 582 917 596 898 q 574 928 581 918 q 564 941 567 937 q 555 952 561 945 q 543 963 549 959 q 532 970 538 967 q 510 977 528 972 q 473 994 492 982 q 443 1004 457 1004 m 436 549 q 401 551 425 549 q 366 553 378 553 q 332 549 348 553 q 312 542 317 545 q 288 534 307 538 q 262 525 271 531 q 244 505 254 519 q 229 486 235 492 q 208 421 208 462 q 196 361 196 381 q 207 279 200 297 q 211 238 210 272 q 218 187 212 203 q 233 154 221 180 q 249 115 245 128 q 276 83 254 100 q 314 62 298 67 q 336 54 318 61 q 370 41 353 46 q 400 36 387 36 q 490 71 435 42 q 537 104 513 82 q 568 146 562 127 q 577 172 571 155 q 588 201 584 189 q 595 225 592 214 q 612 313 610 293 q 614 336 614 321 q 597 401 614 370 q 586 436 592 412 q 570 475 581 461 q 555 496 563 484 q 540 516 547 508 q 524 530 533 524 q 436 549 495 549 z "},"9":{"ha":804,"x_min":56,"x_max":733,"o":"m 422 1054 q 480 1043 441 1054 q 541 1019 518 1031 q 566 1007 555 1011 q 586 996 578 1002 q 601 982 593 990 q 621 965 609 974 q 657 926 637 953 q 689 873 677 900 q 710 795 698 854 q 728 725 722 736 q 733 707 733 714 q 732 678 733 699 q 732 639 732 656 q 724 481 732 543 q 719 451 722 471 q 713 414 715 431 q 711 383 711 398 q 710 375 711 380 q 706 359 709 370 q 701 339 703 349 q 694 312 697 319 q 681 289 690 304 q 668 264 675 280 q 652 233 661 248 q 639 211 646 224 q 625 187 632 197 q 607 165 618 177 q 579 135 593 152 q 559 113 565 117 q 544 98 557 111 q 519 76 531 86 q 498 60 508 66 q 436 25 490 54 q 414 15 425 19 q 389 5 403 10 q 368 -3 376 0 q 328 -11 355 -8 q 297 -16 301 -14 q 281 -18 293 -18 q 259 -18 277 -18 q 229 -17 242 -17 q 191 -2 208 -17 q 165 14 174 12 q 110 35 119 19 q 87 85 87 71 q 108 123 87 94 q 142 151 129 151 q 152 146 147 151 q 164 132 157 142 q 176 115 171 121 q 203 100 186 105 q 227 90 220 95 q 279 66 248 76 q 338 56 310 56 q 359 57 353 56 q 388 64 378 60 q 402 68 399 67 q 418 77 406 70 q 436 89 429 85 q 454 99 442 92 q 471 109 466 105 q 483 118 475 112 q 495 130 490 123 q 505 146 500 136 q 526 193 511 157 q 553 248 540 229 q 567 272 561 259 q 576 294 573 286 q 584 321 578 303 q 591 347 589 338 q 598 373 597 364 q 600 394 600 382 q 603 419 600 405 q 610 471 610 463 q 609 481 610 474 q 608 493 608 489 l 607 528 q 561 472 585 488 q 542 454 549 464 q 528 440 535 444 q 469 404 505 430 q 416 374 433 378 q 301 354 351 354 q 262 358 283 354 q 228 368 241 363 q 215 374 215 372 q 203 380 215 374 q 173 396 191 387 q 146 415 155 406 q 107 459 129 430 q 77 510 86 489 q 62 569 69 528 q 56 640 56 610 q 58 668 56 663 q 62 696 62 682 q 62 711 62 701 q 61 726 61 721 q 62 746 61 739 q 79 791 66 764 l 92 817 q 94 830 92 819 q 101 853 96 842 q 115 876 106 865 q 184 950 166 937 q 275 1015 231 987 q 330 1033 296 1029 q 375 1044 364 1038 q 401 1055 396 1055 q 410 1055 403 1055 q 422 1054 416 1054 m 429 979 q 416 983 428 979 q 403 986 404 986 q 342 979 388 986 q 261 929 303 971 q 249 919 252 922 q 241 910 245 916 q 235 896 237 904 q 221 865 233 888 q 204 825 209 842 q 187 749 193 785 q 186 729 186 742 q 190 701 186 718 q 195 679 194 684 q 197 635 196 670 q 203 579 198 600 q 216 545 206 564 q 235 510 225 526 q 245 490 244 494 q 302 415 271 428 q 347 404 327 404 q 382 410 357 404 q 467 452 418 418 q 485 464 481 461 q 493 474 488 467 q 503 493 497 480 q 522 516 509 507 q 542 534 534 526 q 559 571 553 547 q 568 599 566 595 q 581 677 581 623 q 576 764 581 734 q 560 806 575 775 q 543 843 545 837 q 522 895 528 887 q 511 915 517 901 q 496 942 504 928 q 429 979 473 979 z "},"\u0000":{"ha":0,"x_min":0,"x_max":0,"o":""},"\r":{"ha":292,"x_min":0,"x_max":0,"o":""}," ":{"ha":292,"x_min":0,"x_max":0,"o":""},"!":{"ha":293,"x_min":77,"x_max":228,"o":"m 89 873 q 85 901 87 888 q 82 921 83 914 q 81 933 81 928 q 82 945 81 939 q 83 954 83 952 q 80 972 83 956 q 77 1003 77 988 q 85 1030 77 1022 q 110 1042 94 1038 q 157 1047 132 1047 q 216 1015 216 1047 l 216 985 q 212 920 216 937 q 208 849 209 905 q 204 779 207 792 q 200 760 200 763 q 203 733 200 751 q 205 704 205 715 q 205 696 205 703 q 204 686 204 690 q 203 659 203 677 l 203 604 q 196 482 196 574 q 203 399 196 422 q 208 339 208 366 q 208 312 208 330 q 207 283 207 294 q 192 245 207 256 q 154 231 178 235 l 149 231 q 106 239 128 231 q 85 261 85 248 l 85 282 q 92 353 85 329 q 94 382 94 362 q 94 404 94 390 q 93 424 93 418 q 92 446 93 439 q 87 481 87 458 l 87 513 q 91 557 87 522 q 94 615 94 593 q 92 659 94 634 q 89 701 89 690 q 90 730 89 712 q 90 755 90 749 q 89 775 90 770 l 85 787 q 87 796 85 789 q 90 814 90 803 q 90 844 90 817 q 89 873 89 870 m 131 132 q 134 133 132 132 q 138 134 136 134 q 175 138 166 138 q 210 127 199 138 q 228 74 228 106 q 216 22 228 45 q 202 11 213 17 q 181 2 191 5 q 157 -6 171 -1 q 140 -11 143 -10 q 135 -12 139 -12 q 105 -3 121 -12 q 82 20 89 6 q 77 56 77 39 q 89 89 77 85 q 109 110 96 90 q 131 132 122 131 z "},"\"":{"ha":390,"x_min":45,"x_max":335,"o":"m 86 1032 q 105 1034 92 1032 q 123 1036 118 1036 q 138 1035 134 1036 q 167 989 161 1019 q 168 961 168 979 q 164 918 168 940 q 160 893 160 896 q 156 873 160 884 q 149 844 151 862 q 140 801 144 818 q 135 778 135 783 q 110 745 132 745 q 98 748 103 745 q 91 753 93 751 q 85 763 88 756 q 81 771 82 769 q 75 785 77 775 q 73 808 73 795 q 72 823 72 822 q 67 839 71 827 q 64 854 64 850 q 61 873 64 856 q 58 903 58 890 q 57 914 58 910 q 53 926 54 918 q 51 942 52 934 q 50 953 51 951 q 45 982 45 980 q 46 997 45 993 q 86 1032 62 1032 m 253 1032 q 272 1034 259 1032 q 290 1036 285 1036 q 304 1035 300 1036 q 334 989 328 1019 q 335 961 335 979 q 331 918 335 940 q 326 893 326 896 q 322 873 326 884 q 315 844 318 862 q 306 801 311 818 q 301 778 301 783 q 277 745 298 745 q 265 748 270 745 q 257 753 260 751 q 252 763 255 756 q 248 771 249 769 q 242 785 244 775 q 239 808 240 795 q 239 823 239 822 q 234 839 238 827 q 231 854 231 850 q 228 873 231 856 q 225 903 225 890 q 224 914 225 910 q 219 925 221 918 q 217 942 218 933 q 216 953 216 951 q 211 982 211 980 q 212 997 211 993 q 253 1032 228 1032 z "},"#":{"ha":794,"x_min":57,"x_max":725,"o":"m 345 153 q 359 202 351 163 q 370 248 367 241 q 382 294 377 266 q 392 321 383 306 q 403 342 401 336 q 377 343 393 342 q 355 345 360 345 l 264 345 q 258 321 262 338 q 250 295 254 305 q 243 282 246 285 q 235 264 235 275 q 235 256 235 262 q 236 244 236 250 q 228 185 236 227 q 216 140 220 144 l 212 129 q 197 111 207 118 q 168 103 186 103 q 132 116 145 105 q 119 140 119 127 q 122 153 119 149 q 136 202 128 163 q 147 248 144 241 q 160 294 156 269 q 172 321 162 306 q 182 347 181 337 l 153 342 q 142 340 149 340 q 126 342 136 340 q 111 345 115 344 q 66 359 77 347 q 57 386 57 374 q 69 411 57 401 q 98 419 83 419 q 122 417 106 419 q 144 414 139 414 l 150 414 q 201 418 174 414 q 209 451 204 427 q 216 485 214 475 l 233 568 q 249 639 244 608 q 240 640 248 640 q 195 633 225 640 q 183 632 191 632 q 167 634 178 632 q 153 636 157 635 q 109 652 120 639 q 98 677 98 667 q 111 703 98 692 q 140 711 127 711 q 164 709 148 711 q 186 705 180 706 l 192 705 q 232 708 204 705 q 267 711 260 711 q 274 725 269 715 q 279 737 279 734 q 280 741 279 738 q 281 747 281 745 q 280 760 281 750 q 279 774 279 769 q 283 804 279 790 q 293 857 290 830 q 311 909 293 904 l 315 910 q 322 911 319 911 q 380 899 363 911 q 387 892 382 897 q 397 882 393 887 q 403 871 401 877 l 403 865 q 401 850 403 855 q 399 838 401 847 q 396 826 397 828 q 394 816 395 823 q 391 806 392 809 q 387 798 389 803 q 382 788 385 792 q 376 779 380 784 q 370 757 370 768 l 370 742 q 368 715 370 726 q 367 707 368 709 l 374 707 q 415 708 389 707 q 458 708 442 708 q 481 710 475 709 q 485 711 482 710 q 489 711 488 711 q 501 737 500 735 q 502 741 501 738 q 503 747 503 745 q 502 760 503 750 q 501 774 501 769 q 505 804 501 790 q 515 857 513 836 q 533 909 515 904 l 537 910 q 545 911 541 911 q 603 899 586 911 q 610 892 604 897 q 619 882 615 887 q 625 871 623 877 l 625 865 q 624 850 625 855 q 621 838 623 847 q 618 826 619 828 q 616 816 618 823 q 613 806 614 809 q 609 798 612 803 q 605 788 607 792 q 599 779 602 784 q 590 757 590 768 q 591 748 590 754 q 591 739 591 743 q 590 720 591 726 l 590 713 q 639 714 607 714 q 661 713 649 714 q 675 711 673 711 q 725 665 725 711 q 706 648 723 654 q 668 642 688 642 q 644 641 661 642 q 603 639 627 640 q 566 637 580 638 q 563 613 564 631 q 559 582 562 595 q 551 561 556 568 q 533 501 544 551 q 513 437 523 451 q 503 418 505 427 q 597 422 576 422 q 620 421 608 422 q 633 419 632 419 q 684 374 684 419 q 664 356 682 363 q 627 350 647 350 q 558 347 615 350 q 486 345 500 345 q 480 321 484 338 q 472 295 476 305 q 465 282 469 285 q 457 264 457 275 q 458 256 457 262 q 458 244 458 250 q 451 185 458 227 q 439 140 443 144 l 434 129 q 419 111 429 118 q 390 103 408 103 q 355 116 368 105 q 342 140 342 127 q 345 153 342 149 m 290 437 q 281 415 283 429 l 380 415 q 422 416 412 415 q 431 451 425 427 q 439 485 436 475 l 456 568 q 471 635 469 627 q 452 633 465 633 q 422 635 441 633 q 397 636 403 636 l 343 636 q 340 612 342 629 q 336 581 339 595 q 329 561 334 568 q 311 501 321 551 q 290 437 300 451 z "},"$":{"ha":581,"x_min":78,"x_max":500,"o":"m 265 117 q 266 122 265 119 q 267 127 267 125 q 263 158 267 139 q 260 182 260 178 l 260 191 q 261 241 260 201 q 262 293 262 281 q 260 303 262 296 q 257 315 257 311 q 256 347 257 324 q 256 379 256 369 q 257 421 256 410 q 260 489 260 469 q 258 510 260 505 l 258 522 l 254 529 q 184 589 189 586 q 157 615 173 598 q 136 639 140 631 q 131 656 136 640 q 119 679 126 673 q 117 682 119 680 q 94 741 94 711 l 94 757 q 100 802 98 789 q 109 836 102 815 q 125 868 115 857 q 144 901 137 883 q 157 926 152 919 q 161 933 159 929 q 165 940 164 938 q 169 945 166 942 q 173 950 171 948 q 177 955 174 952 q 183 960 180 958 q 191 966 186 962 q 201 972 196 969 q 219 983 207 975 q 240 995 231 990 q 257 1002 249 999 l 257 1019 q 262 1036 258 1031 q 275 1043 267 1041 q 285 1046 283 1044 q 304 1047 288 1047 q 332 1015 332 1047 q 331 1007 332 1012 q 330 1002 330 1002 q 367 991 353 996 q 403 966 382 985 q 428 937 423 947 q 444 884 442 914 q 448 844 444 865 q 452 819 452 823 q 448 797 450 809 q 439 771 446 785 q 424 758 432 758 q 399 764 411 760 q 387 772 387 768 q 385 791 387 773 q 383 822 383 808 q 385 841 383 827 q 386 865 386 855 q 378 888 386 875 q 368 909 370 901 q 336 960 359 947 q 330 961 333 960 q 329 924 330 933 q 325 876 326 910 q 323 832 324 841 q 321 811 321 819 q 322 788 321 806 q 323 760 323 770 l 323 742 q 322 715 322 732 q 323 695 322 709 q 323 675 323 681 q 323 669 323 673 q 322 663 322 665 q 321 649 321 659 q 319 635 320 640 q 375 581 363 591 l 386 572 q 420 540 409 551 q 447 510 432 528 q 471 473 461 492 q 500 346 497 415 l 500 336 q 490 258 500 304 q 482 224 488 245 q 475 197 476 203 q 446 139 472 180 q 437 128 441 132 q 430 120 434 123 q 424 114 427 116 q 416 107 422 112 q 407 100 411 103 q 374 77 401 94 q 334 49 347 60 q 297 0 334 6 l 286 0 q 269 8 276 0 q 261 26 261 16 l 261 33 q 239 36 250 36 q 165 53 210 37 q 135 78 153 58 q 111 111 117 98 q 98 150 104 121 q 92 199 92 179 q 85 243 91 208 q 78 294 79 278 q 79 311 78 307 q 94 338 83 327 q 123 349 105 349 q 150 340 137 349 q 164 317 163 331 q 156 294 164 309 q 147 271 147 278 q 142 241 142 256 l 142 235 q 146 207 142 223 q 174 134 161 146 q 190 118 178 130 q 213 98 201 107 q 237 85 224 90 q 261 81 250 81 l 265 117 m 351 414 q 323 449 342 433 l 318 454 l 318 441 q 319 436 318 440 q 319 431 319 432 q 325 323 320 424 q 328 271 328 292 q 326 228 328 243 q 323 197 326 207 q 321 182 321 188 q 322 160 321 172 l 329 110 q 354 147 351 134 q 367 179 354 166 q 386 228 370 181 q 389 267 389 237 q 385 323 389 298 q 384 327 385 325 q 383 331 384 328 q 382 338 382 334 q 375 365 380 353 q 363 390 371 376 q 351 414 355 404 m 240 699 q 261 673 245 685 q 258 714 261 692 l 258 750 q 260 799 258 770 q 261 839 261 829 l 262 846 q 264 864 264 852 q 263 870 264 865 q 262 880 262 876 q 260 916 262 899 q 258 936 258 932 l 258 949 q 244 935 252 944 q 232 920 237 926 q 220 902 228 914 q 211 889 212 890 q 205 865 205 880 q 209 838 205 857 q 212 807 212 819 q 228 755 214 772 q 234 728 231 749 q 240 699 236 707 z "},"%":{"ha":940,"x_min":57,"x_max":859,"o":"m 142 876 q 249 913 171 909 q 289 908 265 913 q 322 899 312 904 q 324 898 323 899 q 326 897 326 897 q 386 864 373 884 q 422 804 420 821 q 425 761 425 788 q 427 750 425 757 q 429 739 429 743 q 429 736 429 739 q 428 733 428 734 q 424 715 424 721 q 422 705 424 711 q 421 694 421 698 q 413 676 421 688 q 406 654 406 663 q 383 618 406 640 q 351 600 372 608 q 325 587 329 591 q 313 582 322 585 q 288 576 304 579 q 262 571 272 574 q 250 570 260 571 q 231 568 240 568 q 181 574 208 568 q 147 586 155 580 q 118 604 142 591 q 92 621 93 616 q 84 634 91 622 q 72 660 77 647 q 66 681 66 673 q 62 710 66 689 q 57 739 57 731 q 60 756 57 743 q 62 777 62 769 q 72 798 62 784 q 82 815 81 812 q 95 838 87 829 q 118 856 104 846 q 142 876 132 866 m 205 831 q 199 825 203 828 q 193 821 195 823 q 189 815 191 819 q 183 803 186 810 q 179 795 182 800 q 175 786 176 789 q 171 778 174 783 q 168 769 169 772 q 166 760 167 765 q 165 749 165 754 q 166 745 165 747 q 168 739 168 742 q 173 706 172 728 q 178 676 175 684 q 224 642 185 651 q 244 640 231 640 q 289 654 277 640 q 305 668 300 663 q 315 682 310 673 q 322 704 320 692 q 325 739 325 728 q 315 786 325 770 q 278 831 300 820 q 237 839 267 839 q 218 835 231 839 q 205 831 206 831 m 571 372 q 677 408 600 404 q 718 404 694 408 q 751 395 741 399 q 753 394 752 395 q 755 393 755 393 q 815 359 802 380 q 851 300 848 317 q 854 257 854 279 q 857 245 854 253 q 859 235 859 238 q 858 232 859 234 q 857 229 857 230 q 852 211 852 215 q 851 200 852 207 q 850 191 850 194 q 842 172 850 184 q 835 150 835 159 q 812 114 835 136 q 780 96 802 104 q 754 83 758 87 q 742 78 751 81 q 717 72 733 75 q 692 66 701 68 q 679 65 689 66 q 660 64 669 64 q 611 70 637 64 q 576 82 584 76 q 547 100 572 87 q 521 117 522 113 q 513 131 520 118 q 501 156 507 143 q 496 176 496 169 q 491 205 496 184 q 486 235 486 227 q 489 251 486 238 q 492 272 492 264 q 501 294 492 279 q 511 311 510 309 q 525 334 516 326 q 547 352 533 342 q 571 372 562 362 m 635 326 q 628 321 632 323 q 622 316 624 318 q 618 310 621 315 q 612 298 615 306 q 608 290 611 296 q 604 282 606 285 q 601 273 603 279 q 597 264 598 268 q 595 255 596 260 q 595 244 595 250 q 596 240 595 243 q 597 235 597 237 q 603 202 601 223 q 607 172 604 180 q 653 138 614 147 q 673 136 660 136 q 718 150 707 136 q 734 163 729 158 q 744 178 739 168 q 751 200 749 188 q 754 235 754 224 q 745 282 754 267 q 707 326 730 315 q 667 335 694 335 q 648 331 661 335 q 635 326 636 326 m 614 946 q 635 999 627 975 q 664 1051 645 1046 l 669 1052 q 676 1053 673 1053 q 719 1049 693 1053 q 750 1040 745 1045 q 755 1034 751 1038 q 762 1024 760 1029 q 765 1013 765 1019 q 760 991 765 1008 q 754 980 758 988 q 749 968 751 971 q 744 958 747 964 q 739 948 741 951 q 734 939 737 944 q 727 930 730 934 q 720 921 724 926 q 708 904 711 911 q 702 885 705 897 q 694 861 699 873 q 694 859 694 861 q 693 857 693 858 q 648 751 682 827 q 604 663 614 675 q 586 622 596 653 q 566 581 576 591 q 535 520 557 570 q 500 457 513 471 q 480 417 486 444 q 468 379 475 389 q 452 351 462 370 q 433 319 441 332 q 419 301 425 305 q 413 296 415 299 q 409 289 410 294 q 407 283 408 285 q 406 275 407 282 q 406 268 406 269 q 399 242 405 256 q 387 224 393 228 q 372 189 382 220 q 357 136 361 157 q 340 92 355 123 q 322 52 326 60 q 310 24 316 36 q 297 6 304 13 q 285 -6 290 -1 q 271 -13 280 -11 q 259 -16 262 -16 q 247 -18 256 -17 q 235 -18 237 -18 q 198 -7 215 -18 q 182 11 182 4 q 192 46 182 17 q 210 83 203 76 q 229 113 218 93 q 245 150 241 134 q 273 216 260 195 q 289 242 279 224 q 301 267 298 261 q 325 314 312 282 q 341 334 329 326 q 355 351 353 342 q 361 372 357 357 q 369 396 365 386 q 378 412 372 406 q 388 428 382 416 q 399 450 395 440 q 412 479 404 460 q 422 504 420 498 l 457 587 q 473 618 459 591 q 492 657 488 645 q 505 693 495 669 q 517 721 515 717 q 551 792 519 728 q 596 879 583 857 q 602 906 597 881 q 614 946 607 931 z "},"&":{"ha":760,"x_min":41,"x_max":725,"o":"m 439 873 q 432 914 439 884 q 431 924 431 918 q 429 934 431 930 q 424 943 428 939 q 418 960 418 951 q 415 972 418 967 q 380 1002 401 997 q 347 1007 356 1007 q 334 1006 338 1007 q 296 985 307 1002 q 276 970 290 976 q 257 960 262 964 q 250 950 253 956 q 247 940 248 945 q 244 927 246 936 q 241 911 243 918 q 234 883 239 901 q 227 854 228 865 q 226 849 227 852 q 225 843 225 845 q 236 796 225 825 q 268 721 237 793 q 311 671 283 687 q 358 653 338 654 q 403 665 378 653 q 446 677 433 677 q 457 676 453 677 q 472 656 472 673 q 463 629 472 641 q 415 596 448 610 q 357 585 387 585 q 322 576 346 585 q 290 566 298 567 q 277 562 283 565 q 269 556 271 558 q 258 547 266 555 q 249 536 251 538 q 222 490 235 523 q 208 467 220 484 q 196 443 196 450 q 190 416 196 436 q 182 386 183 396 q 176 300 176 344 q 179 274 176 292 q 184 252 182 256 q 191 214 186 248 q 191 207 191 213 q 192 198 192 201 q 194 188 193 195 q 198 177 196 182 q 205 165 201 172 q 215 153 210 158 q 235 128 224 143 q 252 103 245 113 q 265 93 259 94 q 298 79 273 92 q 332 64 324 66 q 380 56 353 56 q 416 66 393 56 q 444 87 438 77 q 451 95 447 92 q 462 102 455 98 q 471 107 469 106 q 483 118 477 111 q 492 129 489 124 q 496 134 496 133 q 494 149 496 137 q 492 165 492 161 q 500 180 492 172 q 510 193 508 188 q 514 211 511 197 q 521 233 517 225 q 529 279 529 248 q 528 289 529 281 q 528 302 528 296 q 534 331 528 311 q 541 367 541 351 q 535 409 539 403 q 528 414 532 412 q 507 407 522 414 q 490 400 493 400 q 447 407 464 400 q 418 447 420 418 q 441 490 418 465 q 467 509 455 505 q 498 514 478 514 q 557 507 534 514 q 581 491 564 505 q 603 475 597 477 q 656 468 614 470 q 676 474 665 468 q 699 481 687 480 q 717 475 709 481 q 725 457 725 469 q 682 427 723 437 q 653 424 674 424 l 648 424 q 644 425 647 424 q 640 425 642 425 q 623 410 623 425 q 623 407 623 409 q 624 404 624 406 q 629 329 629 378 q 616 258 629 292 q 600 207 604 224 q 557 117 579 136 q 544 106 551 112 q 531 96 536 100 q 522 86 526 92 q 497 61 513 75 q 468 46 480 48 q 459 44 463 45 q 453 42 456 43 q 446 39 450 41 q 439 35 441 36 q 429 28 436 33 q 418 21 422 24 q 398 11 406 14 q 376 6 390 8 q 350 1 361 4 q 321 -3 334 -3 q 307 -2 313 -3 q 294 1 300 -1 q 285 3 288 2 q 222 14 238 7 q 198 20 215 16 q 168 33 182 24 q 147 51 157 41 q 127 65 137 61 q 97 106 99 78 q 83 135 96 116 q 64 170 70 154 q 56 192 58 184 q 53 211 54 199 q 47 237 51 222 q 41 279 41 263 q 49 325 41 294 q 57 349 52 338 q 62 370 61 359 q 66 385 64 378 q 76 403 69 392 q 86 421 82 414 q 109 467 94 435 q 116 477 111 472 q 126 489 120 483 q 137 498 133 494 q 150 508 141 501 q 161 515 159 514 q 179 532 177 528 q 180 534 179 532 q 181 537 180 535 q 182 539 182 538 q 215 572 191 559 q 222 576 218 574 q 229 579 227 578 q 233 582 231 580 q 237 586 236 584 q 239 590 238 587 q 240 595 240 592 q 231 605 240 600 q 206 615 221 610 q 191 621 191 621 q 183 627 186 623 q 173 644 179 632 q 164 660 167 655 q 151 678 158 671 q 142 688 143 686 q 132 726 132 703 q 124 750 132 735 q 117 782 117 765 q 134 857 118 815 q 150 892 140 873 q 164 920 160 910 l 168 930 q 176 946 171 941 q 189 954 181 952 q 203 970 198 960 q 218 987 208 981 q 243 1006 227 993 q 258 1013 245 1008 q 281 1026 271 1019 q 321 1041 292 1035 q 375 1047 349 1047 q 435 1032 407 1043 q 441 1030 435 1032 q 449 1027 447 1027 q 457 1024 451 1026 q 465 1020 463 1021 q 473 1016 467 1019 q 480 1011 478 1013 q 487 1007 483 1010 q 493 1002 491 1004 q 498 996 496 999 q 501 990 500 994 q 517 928 517 950 q 517 914 517 923 q 518 901 518 905 q 514 884 518 890 q 489 860 507 873 q 463 847 472 847 q 439 873 439 850 z "},"'":{"ha":218,"x_min":45,"x_max":168,"o":"m 86 1032 q 105 1034 92 1032 q 123 1036 118 1036 q 138 1035 134 1036 q 167 989 161 1019 q 168 961 168 979 q 164 918 168 940 q 160 893 160 896 q 156 873 160 884 q 149 844 151 862 q 140 801 144 818 q 135 778 135 783 q 110 745 132 745 q 98 748 103 745 q 91 753 93 751 q 85 763 88 756 q 81 771 82 769 q 75 785 77 775 q 73 808 73 795 q 72 823 72 822 q 67 839 71 827 q 64 854 64 850 q 61 873 64 856 q 58 903 58 890 q 57 914 58 910 q 53 926 54 918 q 51 942 52 934 q 50 953 51 951 q 45 982 45 980 q 46 997 45 993 q 86 1032 62 1032 z "},"(":{"ha":321,"x_min":29,"x_max":343,"o":"m 309 -43 q 300 -45 307 -45 l 288 -45 q 258 -26 271 -45 q 240 -9 256 -24 q 220 14 224 5 q 202 37 215 21 q 187 58 190 53 q 165 84 184 64 q 142 110 146 104 q 127 147 136 119 q 117 162 126 152 q 107 179 108 172 q 98 206 106 184 q 89 235 90 229 q 72 281 84 263 q 65 294 68 287 q 60 313 63 302 q 54 334 57 325 q 46 360 51 347 q 40 378 41 373 q 42 387 40 380 q 45 396 45 393 q 40 405 45 401 q 36 414 36 409 q 39 422 36 415 q 41 433 41 430 q 40 439 41 437 q 29 496 29 468 l 29 501 q 30 531 30 509 q 31 576 30 553 q 35 619 32 600 q 46 711 46 690 q 50 730 46 713 q 53 749 53 747 q 62 755 53 750 q 72 761 72 760 l 60 771 q 66 791 60 779 q 75 807 72 804 q 126 882 86 815 q 171 946 159 936 q 181 958 176 949 q 188 972 185 966 q 191 978 190 978 q 211 1010 192 978 q 237 1039 212 1012 q 271 1078 262 1065 q 302 1095 282 1095 q 317 1093 314 1095 q 343 1068 343 1082 q 331 1054 343 1065 q 315 1042 319 1043 q 306 1035 313 1041 q 294 1028 299 1029 q 291 1022 292 1027 q 289 1008 290 1017 q 285 994 288 1000 q 257 958 283 991 q 220 903 231 926 q 199 851 210 881 q 184 814 189 822 q 176 793 179 805 q 172 769 174 782 q 170 750 171 755 q 161 734 168 742 q 155 721 155 726 q 155 704 155 714 q 154 676 154 694 q 149 669 154 671 q 144 661 144 667 q 145 651 144 658 q 146 640 146 645 q 147 635 147 635 q 142 629 144 633 q 139 615 140 624 q 138 598 138 606 q 136 575 137 590 q 134 551 134 561 q 132 526 132 545 q 134 493 132 511 q 136 461 135 475 q 140 434 138 448 q 142 418 142 420 q 145 398 142 410 q 149 379 149 385 q 150 357 149 372 q 151 336 151 342 q 159 320 151 334 q 170 289 166 306 q 180 250 170 283 q 192 212 190 218 q 193 207 193 211 q 193 198 193 205 q 192 187 192 191 q 194 180 192 182 q 199 174 195 178 q 207 164 203 170 q 215 150 215 157 q 216 138 215 144 q 219 130 218 133 q 225 119 220 127 q 232 106 230 111 q 260 56 254 73 q 269 41 261 52 q 281 21 277 30 q 293 8 283 16 q 309 -8 302 0 q 322 -29 322 -22 q 317 -36 322 -31 q 309 -43 311 -41 z "},")":{"ha":404,"x_min":22,"x_max":335,"o":"m 56 1078 q 64 1079 57 1079 l 77 1079 q 106 1061 94 1079 q 124 1044 108 1059 q 144 1021 140 1029 q 161 998 149 1013 q 176 977 174 982 q 199 951 179 970 q 222 925 218 931 q 236 888 228 918 q 247 873 237 883 q 257 856 256 863 q 266 829 258 851 q 275 800 274 806 q 292 754 280 770 q 298 741 296 748 q 304 722 301 733 q 310 701 307 710 q 318 675 313 688 q 323 657 323 662 q 321 648 323 654 q 319 639 319 642 q 323 629 319 633 q 328 621 328 625 q 325 612 328 618 q 322 602 322 605 q 323 596 322 597 q 335 539 335 566 l 335 533 q 334 504 334 526 q 333 458 334 481 q 329 415 332 435 q 318 323 318 349 q 315 305 318 322 q 311 286 311 288 q 301 280 311 285 q 292 273 292 275 l 304 264 q 298 243 304 256 q 289 228 292 231 q 237 153 277 220 q 193 89 205 99 q 183 77 188 85 q 177 63 179 69 q 174 57 174 57 q 153 25 172 57 q 127 -4 151 23 q 94 -43 102 -31 q 62 -60 82 -60 q 49 -58 52 -60 q 22 -33 22 -47 q 37 -12 22 -29 q 56 7 52 5 q 65 14 58 7 q 77 21 72 20 q 80 27 79 22 q 82 40 81 32 q 86 54 83 49 q 110 83 87 58 q 144 132 133 109 q 165 184 155 154 q 179 221 175 214 q 187 241 184 230 q 192 267 190 253 q 195 285 193 280 q 202 301 197 293 q 208 314 208 309 q 209 331 208 321 q 210 358 210 340 q 215 366 210 363 q 220 374 220 368 q 219 384 220 377 q 217 395 218 390 q 216 400 216 399 q 221 406 219 401 q 224 420 223 411 q 227 437 226 429 q 229 460 227 444 q 231 484 230 475 q 232 509 232 490 q 230 550 232 528 q 225 594 228 572 l 222 616 q 218 637 222 624 q 215 656 215 650 q 214 677 215 663 q 212 699 212 692 q 205 715 212 701 q 195 746 198 729 q 184 784 194 751 q 172 822 174 817 q 171 828 171 823 q 172 837 171 830 q 172 847 172 844 q 170 855 172 852 q 164 861 168 857 q 157 871 160 865 q 149 885 149 878 q 148 894 149 890 q 146 902 148 898 q 143 909 144 907 q 138 918 142 911 q 132 929 134 925 q 104 979 110 962 q 95 994 103 983 q 83 1014 87 1005 q 72 1027 81 1019 q 56 1043 62 1035 q 41 1064 41 1057 q 47 1071 41 1066 q 56 1078 53 1076 z "},"*":{"ha":504,"x_min":46,"x_max":449,"o":"m 210 750 q 184 730 204 750 q 166 716 177 723 q 151 701 155 709 q 135 682 146 694 q 121 665 123 669 q 97 660 117 660 q 78 666 89 660 q 62 681 67 673 q 46 725 46 699 q 49 734 46 726 q 56 742 52 739 q 68 750 61 746 q 80 756 75 753 q 93 761 85 758 q 102 765 100 764 q 117 770 109 766 q 133 778 125 773 q 146 785 142 783 q 160 793 152 787 q 172 803 168 799 l 178 807 q 173 813 178 808 q 159 824 168 818 q 142 832 151 829 q 108 845 132 833 q 81 856 84 856 q 61 859 75 856 q 46 869 48 863 q 52 910 46 889 q 66 940 58 931 q 94 954 84 954 q 122 942 110 954 q 149 917 133 926 q 172 900 165 908 q 189 885 178 891 q 206 877 199 879 l 214 875 q 213 880 214 876 q 212 886 212 884 l 212 911 q 210 937 212 929 q 201 977 201 971 l 205 994 q 217 1014 208 1004 q 240 1026 227 1023 q 258 1028 246 1028 q 297 1011 290 1028 q 300 1000 300 1007 q 299 993 300 998 q 298 986 298 989 q 297 970 298 975 q 294 940 295 964 q 292 895 292 916 l 292 875 q 318 896 306 882 q 329 904 320 897 q 343 916 337 911 q 357 929 350 922 q 367 942 364 937 q 403 957 382 957 q 425 949 415 957 q 444 904 444 930 q 425 876 444 891 q 396 859 406 860 q 384 853 391 857 q 358 838 376 848 q 319 818 340 828 q 323 812 319 815 q 332 807 327 810 q 338 804 337 805 q 395 782 349 791 q 408 779 397 782 q 425 771 413 778 q 440 758 437 764 q 449 729 449 747 q 437 694 449 708 q 401 676 410 676 q 386 681 395 676 q 374 686 377 686 q 349 708 367 689 q 330 726 331 726 q 306 741 327 730 q 285 751 286 751 q 292 690 285 721 q 300 657 293 680 q 309 629 308 635 q 294 596 309 608 q 260 585 280 585 q 224 596 239 585 q 210 629 210 608 q 210 637 210 632 q 211 643 211 642 q 214 671 214 652 q 216 692 214 685 q 213 720 216 697 q 210 750 210 742 z "},"+":{"ha":661,"x_min":53,"x_max":606,"o":"m 278 510 q 277 517 277 511 q 274 538 276 523 q 271 568 273 553 q 270 576 271 571 q 269 583 269 581 q 272 615 269 596 q 275 642 275 635 q 273 653 275 649 q 265 708 265 684 q 263 717 265 709 q 261 728 261 724 q 262 733 261 732 q 274 747 267 741 q 285 755 281 753 q 301 760 289 757 q 318 765 314 764 q 325 767 319 765 q 335 768 330 768 q 370 739 370 768 q 365 695 370 724 q 361 652 361 666 q 362 618 361 642 q 363 585 363 594 q 361 563 363 576 q 359 546 359 549 q 370 511 359 524 q 386 509 375 509 q 411 509 389 509 q 453 510 432 510 q 483 514 464 511 q 522 518 503 517 q 539 522 528 518 q 558 525 551 525 q 580 520 567 525 q 597 510 593 515 q 606 467 606 495 l 606 456 q 603 448 606 453 q 595 438 600 444 l 591 432 q 574 425 588 425 q 559 426 570 425 q 542 427 549 427 q 522 425 529 427 q 503 424 515 424 q 475 427 491 424 q 449 431 459 431 q 399 427 432 431 q 363 422 367 422 q 364 381 363 409 q 366 331 365 353 q 370 300 367 309 q 379 235 379 265 q 325 199 379 210 q 318 197 322 197 q 293 211 306 197 q 279 236 279 225 q 280 243 279 239 q 281 249 281 248 q 279 278 281 256 q 277 313 277 299 q 277 337 277 321 q 278 363 278 353 q 271 431 278 393 l 187 431 q 144 431 158 431 q 129 432 130 432 q 92 431 118 432 q 54 452 58 431 q 53 481 53 457 q 66 510 53 503 q 121 519 100 519 q 139 518 132 519 q 187 512 155 515 q 225 507 220 509 q 232 506 227 507 q 239 505 236 505 q 278 510 269 506 z "},",":{"ha":272,"x_min":50,"x_max":208,"o":"m 69 -134 q 50 -111 50 -132 q 51 -97 50 -102 q 54 -87 51 -93 q 65 -77 58 -81 q 92 -33 83 -63 q 97 -7 97 -19 q 93 4 97 -1 q 81 18 89 10 q 69 33 74 26 q 61 65 61 45 l 61 82 q 66 100 62 92 q 80 119 71 109 q 90 132 89 130 q 135 140 97 140 q 175 138 164 140 q 196 116 188 134 q 204 82 204 98 q 208 39 208 66 q 204 18 208 25 q 202 4 203 13 q 199 -11 201 -4 q 192 -28 197 -18 q 184 -38 190 -31 q 172 -51 178 -44 q 163 -66 166 -58 q 153 -84 160 -75 q 139 -94 146 -94 q 123 -106 133 -96 q 109 -117 113 -117 q 69 -134 85 -134 z "},"-":{"ha":521,"x_min":64,"x_max":450,"o":"m 154 530 q 208 535 172 530 q 252 539 244 539 q 283 538 257 538 l 294 538 q 298 537 296 538 q 304 536 301 536 q 334 539 311 536 q 370 542 357 542 q 427 519 418 542 q 433 514 429 518 q 438 509 437 511 q 442 505 439 508 q 446 501 445 503 q 448 496 447 499 q 450 490 450 493 q 450 482 450 486 q 432 461 450 469 q 395 453 415 453 q 364 454 392 453 q 319 454 336 454 q 286 452 286 454 l 258 452 q 218 454 229 452 q 210 457 217 457 q 163 447 193 457 q 151 446 157 446 q 136 448 146 446 q 119 452 125 451 q 74 471 87 454 q 70 476 73 473 q 67 482 68 480 q 65 488 66 484 q 64 496 64 492 q 77 526 64 513 q 107 538 88 538 q 131 534 115 538 q 154 530 147 531 z "},".":{"ha":315,"x_min":74,"x_max":239,"o":"m 114 121 q 171 138 129 138 q 228 94 191 134 q 239 66 239 85 q 227 29 239 47 q 195 3 218 15 q 167 -12 171 -8 q 132 -25 154 -25 q 97 -12 112 -25 q 82 16 90 -3 q 74 47 74 35 q 87 82 74 58 q 114 121 101 105 z "},"/":{"ha":684,"x_min":60,"x_max":648,"o":"m 467 895 q 482 924 469 899 q 508 972 496 949 q 522 1006 519 996 q 551 1059 532 1053 l 556 1059 q 564 1060 560 1060 q 604 1056 580 1060 q 633 1047 628 1052 q 639 1040 635 1045 q 646 1030 643 1036 q 648 1019 648 1025 q 643 999 648 1010 q 633 978 642 998 q 618 946 624 958 q 604 917 613 935 q 588 887 595 899 q 575 869 581 876 q 564 853 567 860 q 557 833 560 846 q 550 810 554 821 q 522 736 550 794 q 482 663 494 677 q 464 622 474 653 q 443 581 453 591 q 413 520 434 570 q 378 457 391 471 q 358 417 364 444 q 346 379 353 389 q 325 335 336 365 q 311 301 314 305 q 297 259 302 286 q 279 224 292 233 q 256 185 274 219 q 235 136 239 152 q 218 97 233 125 q 200 52 203 68 q 166 7 197 30 q 113 -18 135 -16 q 76 -7 93 -18 q 60 11 60 4 q 70 46 60 17 q 87 83 81 76 q 107 113 96 93 q 123 150 119 134 q 151 216 138 195 q 203 314 176 247 q 224 368 209 334 q 249 412 239 401 q 261 431 254 418 q 279 472 268 445 q 293 504 291 500 l 328 587 q 345 619 331 593 q 363 657 359 645 q 380 697 366 667 q 409 759 395 728 q 425 791 424 789 q 437 811 426 796 q 449 828 448 825 q 455 855 450 830 q 467 895 460 880 z "},":":{"ha":309,"x_min":85,"x_max":239,"o":"m 122 500 q 175 515 136 515 q 228 475 194 511 q 239 449 239 466 q 227 414 239 432 q 198 390 220 401 q 171 375 176 380 q 139 364 160 364 q 107 375 120 364 q 92 401 100 384 q 85 431 85 419 q 97 463 85 441 q 122 500 110 484 m 114 273 q 129 284 121 281 q 157 286 137 286 q 173 284 161 286 q 194 280 185 283 q 211 267 202 276 q 224 249 217 262 q 231 229 231 235 q 231 220 231 227 q 232 211 232 214 q 227 192 232 199 q 215 175 221 182 q 200 161 208 168 q 187 150 191 154 q 139 142 179 142 q 107 153 120 142 q 92 179 100 161 q 85 208 85 197 q 94 240 85 219 q 114 273 104 260 z "},";":{"ha":316,"x_min":78,"x_max":239,"o":"m 122 500 q 175 515 136 515 q 228 475 194 511 q 239 449 239 466 q 227 414 239 432 q 198 390 220 401 q 171 375 176 380 q 139 364 160 364 q 107 375 120 364 q 92 401 100 384 q 85 431 85 419 q 97 463 85 441 q 122 500 110 484 m 97 33 q 78 56 78 35 q 78 70 78 65 q 82 80 79 74 q 93 90 85 86 q 119 134 111 104 q 125 160 125 148 q 121 171 125 165 q 109 185 117 177 q 97 200 102 193 q 89 232 89 212 l 89 249 q 94 267 90 258 q 107 286 98 275 q 118 298 116 296 q 163 307 125 307 q 203 304 192 307 q 224 282 216 300 q 232 249 232 264 q 236 205 236 233 q 232 184 236 191 q 230 171 231 179 q 227 156 229 163 q 220 139 224 149 q 212 130 218 136 q 200 115 205 123 q 191 100 194 108 q 181 82 188 91 q 167 72 174 73 q 151 60 161 71 q 136 50 141 50 q 97 33 113 33 z "},"<":{"ha":517,"x_min":41,"x_max":479,"o":"m 183 519 q 205 504 184 518 q 245 476 227 490 q 272 453 264 462 q 291 434 284 439 q 313 428 298 430 q 341 411 323 426 q 366 392 359 395 q 384 386 371 390 q 407 378 397 382 q 421 370 417 374 q 444 352 422 368 q 468 329 465 336 q 473 304 473 318 q 450 262 473 290 q 425 253 442 253 q 386 265 401 253 q 363 278 382 269 q 343 290 345 286 q 330 307 342 296 q 306 323 318 317 q 291 333 299 327 q 267 350 283 340 q 242 363 256 356 q 221 375 229 370 q 207 385 213 379 q 173 405 201 389 q 138 428 144 420 q 92 463 117 454 q 58 486 75 469 q 41 521 41 503 q 50 552 41 538 q 71 571 58 566 q 81 575 73 572 q 94 581 89 578 q 105 587 98 583 q 118 594 113 591 q 126 603 123 598 q 150 622 133 612 q 171 636 167 632 q 207 655 177 642 q 240 671 237 668 q 288 705 256 686 q 307 723 295 710 q 328 741 319 736 q 385 775 366 759 q 433 804 410 804 q 464 782 449 804 q 479 745 479 760 q 444 704 479 728 q 426 689 439 704 q 408 672 413 674 q 405 673 407 672 q 401 673 402 673 q 386 668 395 673 q 375 660 378 663 q 336 629 357 642 q 323 616 332 626 q 304 603 314 606 q 293 599 300 602 q 281 595 286 597 q 269 589 277 593 q 252 578 261 585 q 231 564 246 574 q 210 549 216 554 q 195 536 203 544 q 183 519 186 528 z "},"=":{"ha":642,"x_min":58,"x_max":579,"o":"m 136 443 q 184 447 152 443 q 222 450 216 450 q 244 449 227 449 q 301 444 268 444 l 317 444 q 355 445 331 445 q 394 445 379 445 q 415 447 410 446 q 428 449 421 449 q 444 446 437 449 q 450 444 446 444 q 463 446 454 444 q 475 447 471 447 q 506 449 486 447 q 534 450 526 450 q 567 443 555 450 q 579 408 579 437 l 579 364 q 551 354 578 354 l 529 354 q 507 351 522 354 q 464 349 492 349 q 447 350 461 349 q 427 351 433 351 q 412 350 416 351 q 387 346 406 346 q 361 347 378 346 q 339 349 344 349 l 229 349 q 193 351 201 349 q 184 353 192 353 q 143 346 170 353 q 134 345 140 345 q 120 346 129 345 q 106 349 111 348 q 66 364 76 351 q 58 416 58 374 q 69 440 58 431 q 94 449 80 449 q 117 446 102 449 q 136 443 132 444 m 136 624 q 183 627 152 624 q 222 631 215 631 q 244 629 227 629 q 301 625 264 625 l 317 625 q 355 626 331 626 q 394 626 379 626 q 415 628 410 627 q 428 629 419 629 q 444 627 439 629 q 450 625 446 625 q 463 627 454 625 q 475 628 471 628 q 506 629 486 628 q 534 631 526 631 q 567 624 557 631 q 579 589 579 618 l 579 545 q 551 534 578 534 l 529 534 q 507 532 522 534 q 464 529 492 529 q 447 530 461 529 q 427 532 433 532 q 412 530 416 532 q 387 526 406 526 q 361 528 378 526 q 339 529 344 529 l 229 529 q 193 532 201 529 q 184 533 192 533 q 143 526 170 533 q 134 525 140 525 q 120 527 129 525 q 106 529 111 528 q 66 545 76 532 q 58 597 58 555 q 69 621 58 611 q 94 629 80 629 q 117 627 102 629 q 136 624 132 625 z "},">":{"ha":532,"x_min":41,"x_max":479,"o":"m 338 519 q 326 536 334 528 q 311 549 318 544 q 290 564 304 554 q 269 578 275 574 q 252 589 260 585 q 239 595 243 593 q 228 599 235 597 q 216 603 220 602 q 198 616 207 606 q 184 629 189 626 q 146 660 163 642 q 135 668 143 663 q 119 673 126 673 q 116 673 119 673 q 113 672 114 672 q 95 689 108 674 q 77 704 82 704 q 41 745 41 728 q 57 782 41 760 q 87 804 72 804 q 136 775 111 804 q 193 741 155 759 q 214 723 201 736 q 233 705 226 710 q 281 671 265 686 q 314 655 283 668 q 350 636 344 642 q 371 622 354 632 q 395 603 388 612 q 403 594 398 598 q 415 587 408 591 q 427 581 422 583 q 440 575 432 578 q 450 571 448 572 q 471 552 463 566 q 479 521 479 538 q 463 486 479 503 q 429 463 446 469 q 383 428 404 454 q 348 405 377 420 q 314 385 319 389 q 300 375 308 379 q 279 363 292 370 q 254 350 265 356 q 230 333 238 340 q 215 323 222 327 q 191 307 203 317 q 178 290 178 296 q 158 278 176 286 q 135 265 139 269 q 96 253 119 253 q 71 262 79 253 q 47 304 47 290 q 53 329 47 318 q 77 352 56 336 q 100 370 98 368 q 114 378 104 374 q 137 386 124 382 q 155 392 150 390 q 180 411 162 395 q 208 428 198 426 q 230 434 222 430 q 249 453 237 439 q 275 476 256 462 q 315 504 294 490 q 338 519 336 518 z "},"?":{"ha":711,"x_min":71,"x_max":640,"o":"m 199 643 q 194 612 199 625 q 183 599 190 600 q 168 590 177 598 q 151 579 159 582 q 134 576 143 576 q 96 587 102 576 q 92 602 94 589 q 82 619 90 614 q 71 648 71 627 q 75 675 71 661 q 89 743 78 683 q 109 818 98 791 q 136 868 119 846 q 148 884 144 879 q 153 891 152 889 q 158 900 154 892 q 171 918 163 907 q 185 940 178 928 q 196 956 193 951 q 205 967 199 961 q 221 979 212 973 q 231 986 223 981 q 242 993 239 991 q 251 999 245 995 q 261 1005 258 1004 q 271 1009 265 1006 q 282 1012 277 1011 q 293 1013 288 1013 q 317 1023 302 1013 q 347 1040 332 1034 q 408 1053 381 1053 q 441 1050 429 1053 q 516 1024 475 1044 q 583 974 556 1004 q 612 936 602 953 q 624 910 622 920 q 627 886 626 901 q 636 827 629 846 q 640 794 640 817 q 612 675 640 726 q 576 602 594 640 q 544 552 568 583 q 496 500 519 521 q 470 470 478 484 q 454 453 461 456 q 444 448 450 451 q 434 443 437 446 q 425 433 431 441 q 407 412 420 427 q 379 379 394 396 q 365 365 371 370 q 357 356 359 359 q 352 348 355 354 q 342 326 349 342 q 322 248 322 281 q 315 204 322 220 q 294 176 309 189 q 285 163 291 173 q 272 146 279 153 q 258 140 266 140 q 244 144 252 140 q 226 153 236 147 q 212 160 216 159 q 198 176 204 164 q 192 204 192 189 q 195 224 192 210 q 235 304 208 268 q 254 334 238 309 q 284 376 270 358 q 309 400 298 394 q 352 445 319 406 q 395 486 385 484 q 407 494 404 488 q 415 515 411 499 q 422 541 418 530 q 449 592 431 563 q 476 629 467 622 q 491 677 484 636 q 497 760 497 719 q 482 827 497 791 q 467 868 467 863 q 464 883 465 873 q 461 897 462 893 q 457 907 460 900 q 449 921 454 913 q 436 937 444 928 q 405 970 416 962 q 376 985 395 979 q 357 987 366 987 q 281 961 309 987 q 263 936 269 950 q 249 918 257 922 q 238 908 243 916 q 231 895 233 901 q 225 878 229 888 q 221 864 222 867 q 217 845 220 860 q 209 817 214 829 q 197 798 205 804 q 191 779 194 794 q 187 760 187 764 q 194 699 189 734 q 199 643 199 665 m 183 26 q 215 75 183 63 q 249 83 239 83 q 286 69 266 83 q 314 46 308 54 q 323 22 319 39 q 324 19 323 21 q 325 16 325 16 q 281 -24 325 -9 q 257 -28 269 -28 q 218 -18 235 -28 q 183 26 183 0 z "},"@":{"ha":961,"x_min":69,"x_max":899,"o":"m 585 361 q 553 320 579 351 q 524 279 526 289 q 502 249 520 268 q 472 224 483 231 l 455 209 q 419 185 438 195 q 383 175 401 175 q 331 204 352 175 q 310 281 310 233 q 315 352 310 315 q 319 414 319 389 q 352 497 319 448 q 407 567 384 546 q 438 589 416 576 q 467 608 460 602 q 487 621 471 613 q 513 639 503 628 q 550 667 528 655 q 591 679 572 679 q 651 660 613 679 q 696 625 690 641 q 710 522 710 589 q 708 496 710 508 l 708 481 q 729 349 708 439 q 730 346 729 347 q 730 343 730 344 q 748 297 736 317 q 777 277 760 277 q 805 304 792 277 q 831 380 817 332 q 840 424 837 402 q 845 475 843 446 q 848 511 848 504 q 849 519 848 514 q 850 526 850 524 q 844 563 850 541 q 836 596 838 585 q 833 628 834 607 q 830 663 833 648 q 819 689 827 677 q 769 736 806 709 q 697 777 732 763 q 637 792 666 789 q 559 798 609 796 q 456 782 488 798 q 425 770 445 777 q 392 758 404 764 q 376 742 379 752 q 361 722 374 732 q 328 699 349 711 q 300 681 307 686 q 280 660 288 673 q 268 638 271 646 q 265 628 265 630 l 262 621 q 252 603 258 614 q 240 580 246 592 q 230 554 234 568 q 224 532 225 541 q 207 466 222 522 q 191 382 191 411 q 208 276 191 344 q 241 179 224 208 q 314 106 257 152 q 393 54 371 61 q 481 40 446 40 q 516 56 494 42 q 553 86 537 71 q 567 103 559 92 q 582 121 574 114 q 600 131 589 127 q 608 132 603 132 q 626 121 621 132 q 632 100 632 111 q 622 78 632 91 q 600 60 611 65 q 586 51 594 57 q 567 35 578 44 q 551 22 556 26 q 545 17 550 21 q 536 10 539 12 q 528 4 534 8 q 518 -2 522 0 q 509 -8 515 -5 q 499 -13 503 -11 q 489 -16 494 -14 q 478 -17 483 -17 q 444 -22 475 -17 q 378 -26 412 -26 q 253 7 298 -26 q 179 56 210 38 q 148 86 165 63 q 123 129 130 109 q 107 177 122 134 q 82 260 93 221 q 69 317 71 299 l 69 325 q 71 350 69 336 q 77 381 73 363 q 84 413 81 399 q 94 453 87 427 q 104 494 100 479 q 148 585 117 547 q 201 635 179 623 q 215 645 211 640 q 221 657 219 650 q 227 669 224 665 q 282 737 233 680 q 315 763 294 751 q 350 781 335 776 q 378 799 358 783 q 411 818 399 816 q 424 820 414 819 q 438 823 433 822 q 451 825 443 823 q 465 830 458 827 q 476 836 471 833 l 485 842 q 550 867 527 867 l 600 867 q 673 859 635 867 q 788 797 715 850 q 867 724 862 743 q 877 702 867 721 q 892 647 886 683 q 899 549 899 610 q 854 309 899 409 q 824 263 844 286 q 789 240 803 240 q 754 223 779 240 q 721 207 730 207 q 671 225 680 207 q 666 233 669 230 q 659 239 663 237 q 653 243 655 242 q 645 246 651 244 q 637 249 640 248 q 627 259 631 252 q 616 286 623 267 q 607 313 610 304 q 585 361 590 355 m 627 571 q 624 585 627 579 q 619 592 622 590 q 609 597 616 593 q 597 603 602 600 q 575 608 590 608 q 524 595 554 608 q 492 572 505 585 q 461 533 480 559 q 428 431 442 506 q 427 429 428 430 q 427 427 427 427 q 421 309 421 397 q 427 277 421 294 q 446 260 433 260 q 457 272 450 261 q 475 299 464 282 q 496 326 486 315 q 553 400 547 383 q 591 478 562 427 q 597 500 597 488 q 597 512 597 504 q 596 524 596 520 q 603 538 596 536 q 622 549 616 543 q 627 571 627 555 z "},"A":{"ha":691,"x_min":104,"x_max":587,"o":"m 534 1057 q 557 1045 549 1057 q 566 1017 566 1034 q 574 970 566 1001 q 582 920 582 939 q 583 898 582 910 q 583 880 583 885 q 579 851 583 871 q 575 819 575 831 q 576 765 575 810 q 578 694 578 721 q 579 625 578 637 q 587 549 587 562 q 585 525 587 534 q 583 513 583 516 q 584 488 583 500 q 586 470 585 476 q 587 463 587 463 l 586 441 q 584 390 585 419 q 583 342 583 361 q 584 289 583 328 q 585 233 585 251 q 583 195 585 201 q 581 160 581 182 q 582 126 581 155 q 583 64 583 97 q 582 45 583 52 q 580 30 581 40 q 578 12 579 20 q 574 0 576 4 q 529 -36 568 -10 q 500 -45 514 -45 q 485 -39 491 -45 q 472 -11 472 -22 q 476 5 472 -6 q 479 24 479 16 q 475 40 479 29 q 471 56 471 50 q 471 66 471 57 q 472 88 471 75 q 472 114 472 102 q 469 189 472 155 q 465 235 465 214 q 469 257 465 251 q 473 283 473 261 q 463 311 473 311 q 427 319 446 319 q 402 318 416 319 q 380 316 389 317 q 370 315 371 315 q 360 313 367 315 q 347 310 354 310 q 277 306 292 310 q 266 304 275 306 q 251 301 256 302 q 240 295 245 300 q 235 283 235 290 q 227 237 227 256 q 227 220 227 230 q 228 208 228 211 q 224 189 228 201 q 220 168 220 176 q 221 151 220 164 q 222 127 222 138 q 218 65 222 81 q 212 45 217 57 q 200 31 206 33 q 192 18 195 28 q 187 3 189 7 q 163 -20 175 -20 q 134 5 151 -20 q 118 58 120 24 q 115 113 115 92 q 117 128 115 118 q 119 146 119 138 q 119 161 119 151 q 118 174 118 171 q 117 199 118 176 q 117 240 117 223 q 119 252 117 242 q 121 267 121 262 q 115 281 121 277 q 104 313 104 290 q 113 353 104 331 q 114 368 114 356 q 115 395 115 380 q 115 418 115 410 q 117 500 115 445 q 119 586 119 556 q 121 650 119 626 q 134 742 122 673 q 158 852 146 810 q 205 922 168 884 q 212 928 207 924 q 219 936 217 933 q 224 943 222 938 q 228 951 227 947 q 250 976 229 959 q 288 1000 271 992 q 305 1010 294 1004 q 323 1021 315 1017 q 335 1026 330 1025 q 358 1033 340 1027 q 386 1040 376 1039 q 425 1043 397 1042 q 458 1044 454 1044 q 499 1051 468 1045 q 534 1057 530 1057 m 436 990 q 415 993 428 993 q 351 985 378 993 q 325 970 337 981 q 306 946 313 959 q 296 930 303 941 q 286 912 290 920 q 282 900 282 904 q 278 885 282 896 q 267 860 273 874 q 258 836 261 845 q 255 820 256 828 q 253 805 254 811 q 252 790 253 800 q 252 775 252 781 q 252 745 252 760 q 253 725 253 729 q 246 689 253 719 q 239 643 239 660 l 239 599 q 241 446 239 485 q 243 403 243 435 q 245 364 243 371 q 251 356 248 357 q 262 354 254 354 l 288 354 q 344 356 305 354 q 408 358 383 358 q 441 357 432 358 q 463 383 460 357 q 463 400 463 385 q 464 427 464 416 q 463 452 464 437 q 463 468 463 466 q 462 478 463 470 q 461 493 461 487 q 464 534 461 515 q 457 602 464 549 q 454 653 456 612 q 452 710 453 694 q 456 762 452 727 q 461 815 461 797 q 458 840 461 823 q 456 868 456 857 q 456 887 456 871 q 457 917 457 903 q 436 990 457 981 z "},"B":{"ha":700,"x_min":97,"x_max":637,"o":"m 122 1040 q 174 1044 144 1040 q 204 1047 203 1047 q 227 1045 212 1047 q 248 1043 242 1043 q 268 1046 254 1043 q 292 1050 282 1050 q 347 1041 311 1050 q 403 1032 384 1032 q 505 996 490 1015 q 524 976 509 991 q 550 945 538 960 q 564 921 561 931 q 572 857 572 866 q 570 831 572 847 q 564 803 568 825 q 557 772 560 781 q 544 745 554 764 q 517 707 534 726 q 494 686 510 699 q 469 663 478 673 q 450 646 463 656 q 432 629 438 635 q 427 619 427 623 q 434 608 427 612 q 456 599 441 604 q 479 589 471 595 q 532 550 501 575 q 571 511 564 524 q 578 490 577 501 q 582 476 580 478 q 594 470 583 475 q 604 458 604 466 q 614 419 604 434 q 627 389 624 404 q 632 347 627 376 q 637 300 637 317 q 629 240 637 264 q 615 203 623 221 q 600 173 607 186 q 591 155 593 159 q 565 130 588 147 q 541 110 542 112 q 530 96 538 107 q 515 75 523 84 q 503 64 508 66 q 461 37 479 54 q 432 23 453 31 q 406 11 411 14 q 386 5 400 7 q 355 1 372 3 q 332 -1 338 0 q 267 -7 313 -7 q 212 -3 235 -3 q 177 -5 197 -3 q 150 -7 157 -7 q 132 2 143 -7 q 121 21 121 11 l 121 37 q 120 121 121 52 q 119 224 119 189 q 121 289 119 279 q 122 345 122 307 l 122 392 q 121 480 122 396 q 121 604 121 564 q 124 697 121 645 q 126 771 126 749 q 125 784 126 774 q 123 802 123 794 q 125 819 123 808 q 126 835 126 830 q 127 876 126 852 q 127 908 127 899 q 124 939 126 916 q 122 964 123 962 q 112 977 121 966 q 102 990 103 988 q 97 1011 97 1000 q 122 1040 97 1038 m 252 1002 q 239 998 243 1002 q 234 991 235 995 q 232 981 233 987 l 232 956 q 236 901 232 921 q 237 875 237 895 q 234 795 237 852 q 231 718 231 738 l 231 582 q 236 551 231 551 q 260 561 243 551 q 293 582 278 570 q 303 591 297 585 q 313 599 310 596 q 321 606 317 602 q 329 615 326 610 q 336 625 333 620 q 355 642 342 633 q 375 663 368 651 q 388 680 381 671 q 400 696 395 690 q 407 708 404 702 q 412 721 410 712 q 417 736 414 730 q 425 745 420 742 q 456 844 456 802 q 435 920 456 882 q 420 942 428 932 q 407 955 412 951 q 392 965 403 958 q 379 972 382 971 q 297 999 354 991 q 252 1002 281 1002 m 231 472 q 227 457 227 468 q 227 442 227 454 q 228 421 228 430 l 228 411 q 222 314 228 409 q 227 158 222 202 l 227 58 q 253 43 227 45 q 281 40 260 43 q 315 37 303 37 q 356 47 328 38 q 387 57 385 56 q 437 89 409 64 q 475 121 466 115 q 487 140 479 123 q 504 178 495 157 q 517 207 512 199 q 524 239 524 218 q 520 276 524 251 q 517 311 517 300 q 514 337 517 325 q 508 355 511 349 q 499 369 505 361 q 493 379 494 378 q 478 428 489 387 q 466 460 476 441 q 444 488 455 479 q 430 501 441 490 q 411 518 419 512 q 392 528 402 524 q 363 543 380 531 q 340 554 345 554 q 302 529 317 554 q 282 512 296 518 q 262 500 269 507 q 244 483 255 490 q 231 472 233 476 z "},"C":{"ha":643,"x_min":90,"x_max":567,"o":"m 524 798 q 500 802 508 798 q 490 821 493 807 q 489 832 489 823 q 492 859 489 839 q 494 892 494 878 q 492 912 494 903 q 486 935 490 921 q 481 951 481 948 q 471 971 477 965 q 447 986 465 977 q 418 993 435 993 q 350 966 393 993 q 269 856 301 937 q 261 841 267 850 q 252 823 256 832 q 249 802 249 814 q 241 758 249 783 q 240 746 241 755 q 238 720 239 738 q 237 676 237 703 q 233 614 237 652 q 224 484 224 517 q 225 436 225 481 q 231 397 225 413 q 244 322 234 390 q 266 224 250 288 q 290 149 281 161 q 303 127 294 142 q 320 100 312 112 q 338 83 329 89 q 389 58 378 58 q 428 64 415 58 q 458 90 440 70 q 476 114 465 97 q 489 134 488 132 q 514 199 490 135 q 515 203 514 199 q 517 208 517 207 q 519 213 517 210 q 521 218 520 216 q 524 223 522 220 q 527 227 525 226 q 530 230 528 229 q 534 233 532 232 q 538 233 536 233 q 566 212 566 230 q 566 204 566 210 q 567 196 567 199 q 562 175 567 189 q 555 150 559 168 q 550 127 551 132 q 534 110 548 121 q 515 90 520 98 q 508 78 513 87 q 500 63 503 69 q 491 51 496 58 q 479 39 486 43 q 455 24 469 31 q 437 16 441 18 q 361 -11 392 -11 q 329 -8 360 -11 q 288 0 313 -7 q 253 16 263 8 q 229 30 248 19 q 199 49 210 40 q 162 94 184 60 q 136 144 141 128 q 123 200 128 174 q 112 243 122 208 q 96 319 102 278 q 90 414 90 359 q 100 579 90 460 q 100 595 100 585 q 101 610 100 605 q 102 622 101 615 q 106 635 103 629 q 115 696 115 659 q 127 733 115 723 q 133 744 131 736 q 136 765 134 751 q 142 789 138 779 q 170 856 157 840 q 184 883 173 861 q 201 913 195 906 q 253 968 244 961 q 267 979 256 970 q 286 994 277 987 q 300 1003 294 1000 q 317 1006 303 1005 q 340 1018 330 1008 q 411 1046 368 1046 q 434 1043 425 1046 q 452 1037 444 1041 q 464 1031 460 1032 q 528 993 506 1016 q 539 974 534 985 q 547 949 544 962 q 551 935 551 937 q 552 931 551 934 q 553 928 553 929 q 551 907 553 922 q 549 888 549 892 q 547 831 549 850 q 542 806 546 814 q 524 798 537 798 z "},"D":{"ha":719,"x_min":104,"x_max":629,"o":"m 361 93 q 384 120 369 98 q 414 171 398 142 q 432 201 431 199 q 439 230 437 209 q 452 264 442 250 q 471 314 463 281 q 479 374 478 348 q 486 441 481 414 q 498 656 498 510 q 493 715 498 675 q 486 783 487 755 q 457 897 485 840 q 419 943 449 914 q 372 981 389 971 q 338 992 365 985 q 300 1008 311 1000 q 290 1009 296 1008 q 279 1010 283 1010 q 232 1000 244 1010 q 218 966 218 989 q 219 962 218 965 q 220 958 220 960 q 230 937 220 952 q 239 909 239 922 q 239 866 239 902 q 240 811 240 830 q 241 719 240 766 q 241 667 241 673 q 238 598 241 650 q 233 529 234 547 l 233 510 q 235 442 233 487 q 236 387 236 397 q 229 326 236 373 q 221 268 221 279 q 222 196 221 220 l 222 151 q 224 100 222 117 q 222 63 224 83 q 221 40 221 43 q 228 32 221 32 q 282 41 256 32 q 306 55 292 45 q 338 77 321 64 q 361 93 356 90 m 380 43 q 289 -1 309 1 q 253 -12 279 -3 q 211 -21 227 -21 q 178 -20 197 -20 q 149 -18 159 -19 q 134 -16 139 -18 q 109 35 112 -8 q 104 135 104 85 q 113 212 104 200 q 118 233 118 218 q 115 265 118 245 q 111 288 111 284 q 117 332 117 320 q 115 346 117 336 q 114 366 114 357 q 115 388 114 373 q 117 412 117 404 q 116 438 117 420 q 115 467 115 456 q 119 568 115 537 q 122 629 122 602 q 121 663 122 638 q 121 707 121 687 q 122 771 121 753 q 119 851 122 832 q 115 913 118 859 q 118 946 115 924 q 121 978 121 969 q 119 982 120 979 q 118 986 119 984 q 117 990 117 987 q 117 994 117 992 q 121 1015 117 1001 q 131 1034 125 1027 q 143 1043 137 1040 q 161 1048 149 1045 q 191 1054 178 1054 q 216 1046 201 1054 q 248 1039 231 1039 q 270 1040 257 1039 q 301 1042 282 1042 q 336 1040 321 1042 q 377 1030 351 1038 q 434 1005 403 1023 q 498 958 465 987 q 526 940 507 951 q 550 924 544 930 q 573 886 556 918 q 595 850 589 854 q 604 830 600 846 q 612 792 608 814 q 619 760 616 770 q 629 667 629 730 q 619 465 629 516 q 606 379 609 416 q 599 366 605 372 q 590 353 593 359 q 587 319 587 347 q 585 302 587 307 q 575 282 583 300 q 559 248 568 264 q 541 211 551 231 q 521 180 530 191 q 510 166 517 176 q 497 151 502 157 q 485 136 492 145 q 472 122 477 127 q 461 111 467 117 q 452 103 456 106 q 446 100 448 100 q 411 72 439 99 q 380 43 384 45 z "},"E":{"ha":572,"x_min":97,"x_max":496,"o":"m 113 939 l 113 970 q 114 989 113 983 q 118 1000 115 996 q 127 1004 121 1004 q 165 1010 163 1004 q 178 1021 167 1014 q 204 1028 190 1027 q 289 1038 276 1033 q 354 1043 301 1043 q 382 1044 361 1043 q 415 1044 404 1044 q 440 1043 435 1044 q 464 1033 454 1041 q 473 1013 473 1024 q 470 999 473 1005 q 463 988 467 992 q 450 977 459 985 q 439 970 448 975 q 425 965 431 965 q 411 972 414 965 q 383 985 410 979 q 361 987 372 987 q 323 987 346 987 q 289 986 300 986 q 267 979 275 986 q 257 973 264 978 q 248 965 250 968 q 244 957 246 963 q 241 943 241 951 q 249 880 241 940 q 256 779 256 821 q 254 747 256 757 q 249 652 249 668 q 251 629 250 641 q 253 612 253 618 q 251 597 253 607 q 249 583 249 588 q 251 569 249 580 q 253 547 253 558 q 252 538 253 545 q 252 529 252 532 q 249 482 249 495 q 260 435 249 444 q 292 427 269 427 q 364 428 349 427 q 381 432 368 429 q 406 435 394 435 q 434 429 427 434 q 446 408 441 423 q 447 400 447 406 q 412 383 447 385 l 371 383 q 304 382 309 383 q 277 380 300 380 q 258 374 263 380 q 239 307 239 349 q 241 257 239 288 q 243 215 243 227 l 243 200 q 236 115 236 134 q 237 106 236 113 q 237 93 237 100 q 237 79 237 88 q 236 66 236 69 q 239 56 236 58 q 264 50 241 53 q 302 47 286 47 q 327 45 310 47 q 353 43 344 43 q 371 46 357 43 q 388 50 377 48 q 408 54 399 51 q 425 62 417 56 q 445 76 433 68 q 463 89 456 83 q 475 94 471 94 q 489 74 487 94 q 493 51 490 66 q 496 31 496 36 q 493 21 496 24 q 482 15 490 18 q 459 7 475 12 q 439 1 443 3 q 400 -1 431 -1 q 336 -4 352 -1 q 311 -7 320 -7 q 282 -5 301 -7 q 254 -4 263 -4 q 176 -7 187 -4 q 143 -12 145 -12 q 129 -9 133 -12 q 122 -1 124 -7 q 118 17 120 5 q 113 37 115 29 q 111 46 111 40 q 120 58 111 53 q 129 69 129 64 q 122 119 129 73 q 115 214 115 172 q 116 230 115 219 q 117 245 117 240 q 118 298 118 267 q 115 332 118 328 q 97 376 97 362 q 98 382 97 380 q 110 397 101 387 q 119 411 119 408 q 117 449 119 423 q 114 489 114 475 q 118 524 114 507 q 125 628 125 551 q 122 679 125 663 q 118 754 118 699 l 118 783 q 117 818 117 790 q 115 854 117 845 q 113 939 113 879 z "},"F":{"ha":562,"x_min":104,"x_max":500,"o":"m 107 1010 q 117 1033 107 1021 q 138 1048 126 1046 q 191 1057 177 1057 q 210 1054 203 1057 q 246 1043 224 1048 q 279 1039 269 1039 q 304 1038 283 1039 q 336 1038 325 1038 q 451 1036 428 1038 q 484 1028 475 1035 q 500 999 500 1015 q 498 990 500 993 q 471 971 491 971 l 389 977 q 355 975 385 977 q 300 972 325 972 q 248 929 251 972 q 243 873 247 917 q 238 793 240 830 q 236 734 236 757 q 237 704 236 723 q 237 677 237 685 q 229 635 237 643 q 221 608 221 625 q 224 589 221 597 q 228 581 224 586 q 233 568 231 575 q 235 551 235 562 q 232 439 235 450 q 231 424 231 435 q 237 399 231 404 q 292 390 250 390 q 349 397 326 390 q 393 403 361 403 q 405 402 397 403 q 415 401 412 401 q 430 393 425 401 q 435 376 435 385 q 428 362 435 368 q 414 354 421 356 q 396 349 407 351 q 383 346 385 347 q 364 343 376 343 q 353 344 359 343 q 342 347 348 345 q 334 349 336 348 q 328 349 333 349 q 319 350 323 350 q 262 346 303 350 q 245 343 251 345 q 233 335 239 342 q 227 315 227 328 q 216 192 222 224 q 210 146 210 155 q 211 131 210 136 q 215 92 213 119 q 218 60 217 65 q 228 42 220 54 q 236 25 236 30 q 222 6 236 18 q 193 -9 209 -5 q 140 -18 151 -18 q 117 -8 127 -18 q 106 16 107 3 q 104 89 104 33 q 109 107 104 97 q 113 123 113 117 q 111 135 113 131 q 107 164 107 153 q 108 180 107 168 q 109 203 109 193 q 112 279 109 224 q 115 338 115 334 q 118 356 115 341 q 121 380 121 370 q 119 397 121 392 q 114 437 114 420 q 115 445 114 441 q 115 450 115 449 q 116 480 116 454 q 117 530 116 506 q 119 557 117 555 q 121 566 121 558 q 119 584 121 569 q 118 610 118 600 q 121 650 118 623 q 123 681 123 677 q 120 710 123 692 q 117 734 117 728 q 115 758 115 741 q 116 792 115 766 q 117 842 117 819 q 119 899 117 863 q 123 943 121 935 q 133 958 125 947 q 140 974 140 968 q 136 982 140 978 q 124 990 132 987 q 113 998 117 994 q 107 1010 109 1002 z "},"G":{"ha":732,"x_min":90,"x_max":656,"o":"m 585 815 q 551 808 576 808 q 530 812 534 808 q 526 829 526 817 q 533 863 526 849 q 538 888 538 872 q 537 894 538 890 q 536 901 536 899 q 539 911 536 902 q 542 928 542 921 q 538 946 542 938 q 529 958 534 954 q 513 971 524 963 q 439 991 487 991 q 358 957 404 991 q 324 925 341 945 q 302 896 307 906 q 294 879 302 895 q 280 847 286 862 q 272 822 274 833 q 260 791 270 810 q 250 764 251 772 q 233 697 247 730 q 221 543 221 668 q 224 508 221 532 q 227 469 227 484 q 224 431 227 462 q 222 386 222 401 q 228 342 222 358 q 238 297 233 327 q 250 252 243 268 q 285 154 281 176 q 306 104 290 130 q 346 61 321 77 q 384 43 367 47 q 433 40 401 40 q 504 65 479 40 q 547 114 509 71 q 551 134 551 120 q 551 152 551 139 q 550 171 550 165 q 551 191 550 185 q 558 218 553 198 q 567 257 564 239 q 570 293 570 275 q 557 353 570 353 l 545 353 q 510 347 524 353 q 464 328 509 347 q 449 326 461 326 l 421 328 q 412 380 412 359 q 419 397 412 397 q 485 400 441 400 q 521 399 507 400 q 545 404 529 399 q 578 408 562 408 q 629 395 603 406 q 656 374 656 385 q 651 327 654 368 q 646 273 649 286 q 643 243 643 265 q 639 215 643 233 q 621 170 634 198 q 606 136 607 142 q 592 114 604 130 q 570 78 579 98 q 554 51 562 61 q 533 32 546 41 q 518 21 519 22 q 484 0 506 11 q 443 -16 461 -12 q 408 -18 427 -18 q 381 -18 399 -18 q 355 -17 363 -17 l 335 -17 q 315 -14 326 -17 q 295 -6 303 -10 q 276 3 287 -3 q 261 9 264 8 q 227 35 251 14 q 199 60 203 56 q 173 84 186 68 q 153 113 159 100 q 144 132 150 118 q 133 155 138 145 q 125 167 128 164 q 107 222 119 171 q 96 300 96 273 q 93 350 96 313 q 90 406 90 387 q 95 518 90 449 q 103 604 100 587 q 125 660 107 626 q 132 691 130 671 q 140 733 134 711 q 187 843 153 780 q 200 860 193 854 q 211 867 207 866 l 215 867 q 243 926 227 899 q 286 964 258 954 q 288 964 287 964 q 290 965 290 965 q 308 979 297 968 q 336 997 319 989 q 391 1030 371 1012 l 392 1032 q 456 1042 420 1042 q 478 1040 471 1042 q 550 1013 517 1034 q 603 962 591 986 q 618 900 618 928 q 616 887 618 893 q 612 872 615 880 q 608 856 610 863 q 600 830 604 838 q 585 815 595 823 z "},"H":{"ha":709,"x_min":104,"x_max":606,"o":"m 109 914 l 109 892 q 112 967 109 943 q 120 1000 115 991 q 138 1010 126 1009 q 153 1014 148 1010 q 164 1025 159 1018 q 171 1035 169 1033 q 179 1038 174 1038 q 196 1031 186 1038 q 210 1015 205 1024 q 227 913 227 980 q 222 853 227 889 q 216 807 217 817 q 219 772 216 793 q 222 742 222 751 q 220 722 222 728 q 210 677 210 694 q 211 665 210 669 q 220 550 220 621 q 218 524 220 530 q 216 486 216 509 q 224 411 216 416 q 264 397 237 397 q 281 399 274 397 q 336 405 292 401 q 413 414 379 410 q 453 422 447 419 q 479 467 479 437 q 479 471 479 468 q 478 475 478 473 q 473 558 473 505 q 475 596 473 589 q 477 632 476 607 q 479 672 478 657 q 487 713 481 684 q 493 757 493 742 q 492 771 493 767 q 490 789 490 777 q 493 823 490 796 q 496 873 496 849 q 501 964 496 913 q 508 996 503 986 q 528 1015 513 1006 q 546 1029 535 1020 q 564 1043 556 1038 q 578 1048 572 1048 q 597 1028 589 1048 q 604 977 604 1008 l 604 860 q 605 838 604 851 q 606 819 606 825 q 603 789 606 813 q 597 735 601 772 q 593 688 594 698 q 589 567 589 647 q 589 536 589 559 q 590 497 590 514 q 588 452 590 480 q 586 412 586 423 q 582 335 586 390 q 578 262 578 279 q 579 244 578 248 q 587 210 587 213 q 585 197 587 205 q 581 161 581 189 l 581 132 q 583 99 581 126 q 585 60 585 71 q 584 53 585 57 q 583 47 583 49 q 572 27 582 41 q 554 -3 562 14 q 546 -17 550 -11 q 539 -26 542 -23 q 532 -33 536 -30 q 526 -36 528 -35 q 519 -39 524 -37 q 513 -41 514 -41 q 511 -42 512 -41 q 509 -43 509 -43 q 492 -27 500 -43 q 484 7 484 -11 q 479 33 484 19 q 475 57 475 47 q 475 80 475 64 q 476 104 476 96 q 468 210 476 184 q 464 244 464 219 q 465 269 464 253 q 465 290 465 285 q 458 351 465 341 q 443 354 456 354 q 386 351 431 354 q 315 347 340 347 q 294 348 307 347 q 277 349 281 349 q 239 347 250 349 q 221 341 224 346 q 216 311 217 336 q 214 274 216 301 q 212 228 212 248 q 213 177 212 198 q 213 147 213 157 q 214 134 214 137 q 212 105 214 123 q 211 79 211 87 q 210 65 211 69 q 189 17 200 29 q 179 0 186 13 q 163 -16 172 -14 q 144 -18 152 -18 q 118 -9 127 -18 q 113 8 115 -6 q 110 44 111 22 q 107 77 109 66 q 106 106 106 82 q 108 185 106 132 q 110 243 110 237 l 110 248 q 114 297 110 277 q 115 309 114 299 q 117 329 117 319 q 114 364 117 351 q 110 401 110 387 q 111 424 110 410 q 113 447 113 438 q 109 484 113 461 q 104 518 104 507 q 109 580 104 524 q 113 665 113 636 q 110 699 113 682 q 107 725 107 715 q 109 759 107 734 q 111 806 111 784 q 109 914 109 846 z "},"I":{"ha":361,"x_min":118,"x_max":243,"o":"m 136 972 q 143 1003 138 994 q 160 1019 147 1013 q 177 1036 168 1023 q 195 1050 186 1048 q 197 1050 195 1050 q 200 1051 199 1051 q 220 1041 211 1051 q 233 1010 229 1030 q 237 990 235 1002 q 241 975 240 979 q 242 962 241 971 q 243 940 243 953 l 243 890 q 237 818 243 838 q 224 725 224 760 q 228 632 224 669 q 232 471 232 595 q 231 392 232 445 q 231 322 231 338 q 232 278 231 300 q 233 252 233 256 q 231 227 233 235 q 227 192 227 206 q 227 173 227 186 q 228 154 228 160 q 223 123 228 142 q 218 98 218 103 q 221 81 219 91 q 222 66 222 71 q 220 47 222 54 q 215 38 218 43 q 209 29 212 33 q 200 20 206 25 q 191 12 194 14 q 180 3 188 9 q 170 -5 172 -3 q 159 -14 164 -9 q 152 -21 154 -18 q 146 -25 149 -23 q 142 -26 144 -26 q 121 24 121 -26 l 121 52 q 119 108 121 71 q 118 155 118 145 q 123 330 118 241 q 124 349 123 336 q 125 367 125 361 q 123 396 124 384 q 122 414 123 409 q 122 422 122 419 q 124 444 122 431 q 126 464 126 457 q 124 494 126 473 q 121 526 121 514 l 121 549 q 125 705 121 693 q 127 739 127 719 q 127 761 127 745 q 126 786 126 777 q 132 821 126 800 q 138 852 138 842 q 133 880 138 863 q 129 905 129 897 q 132 942 129 919 q 136 972 136 966 z "},"J":{"ha":490,"x_min":49,"x_max":386,"o":"m 256 972 q 273 1017 256 1013 q 321 1044 307 1025 q 345 1054 328 1054 q 380 1042 368 1054 q 383 1031 383 1039 q 382 1015 383 1027 q 380 993 380 1002 q 382 974 380 981 q 385 930 385 947 l 385 857 q 386 823 386 846 q 383 745 386 795 q 380 706 382 733 q 378 667 378 678 q 379 652 378 656 q 383 558 383 633 q 380 510 383 541 q 378 467 378 479 q 381 434 378 453 q 383 408 383 416 q 375 378 383 391 q 361 298 367 364 q 346 211 355 232 q 317 160 335 186 q 297 129 299 134 q 272 100 293 120 q 245 71 252 80 q 219 43 237 57 q 189 25 202 30 q 155 10 182 23 q 121 -4 127 -3 q 97 -5 115 -5 q 64 1 68 -5 q 58 9 63 2 q 51 21 54 16 q 49 32 49 26 q 58 49 49 41 q 79 56 66 56 q 99 51 87 56 q 117 46 111 47 q 126 44 120 45 q 134 43 132 43 q 153 53 138 43 q 199 93 164 60 q 239 167 228 121 q 241 204 241 178 q 244 249 241 232 q 262 323 255 314 q 271 351 271 334 q 258 511 271 383 q 257 546 257 521 q 259 612 257 567 q 261 672 261 657 q 260 684 261 677 q 260 692 260 690 q 258 783 258 714 q 258 803 258 791 q 257 821 257 815 q 256 900 257 850 q 256 972 256 950 z "},"K":{"ha":680,"x_min":104,"x_max":619,"o":"m 119 986 q 126 1003 119 996 q 145 1016 134 1010 q 160 1025 157 1021 q 214 1057 198 1057 q 240 1021 239 1057 q 241 997 240 1012 q 241 975 241 983 q 241 950 241 968 q 240 920 240 932 q 239 869 239 893 q 240 840 239 852 q 241 804 241 828 q 240 746 241 770 q 234 707 239 730 q 228 667 228 684 q 231 628 228 652 q 235 589 235 604 q 233 570 235 576 q 230 531 233 561 q 224 476 227 502 q 222 429 222 450 q 224 404 222 411 q 219 365 224 381 q 214 347 214 349 q 215 339 214 342 q 229 269 228 313 q 224 225 229 250 q 220 189 220 201 q 220 182 220 187 q 221 175 221 178 q 225 97 225 134 l 225 78 q 208 21 222 35 q 146 -11 176 -11 q 113 14 113 -11 l 113 46 q 111 71 113 61 q 106 129 106 110 q 108 155 106 138 q 110 183 110 172 q 104 248 104 210 q 109 441 109 284 q 107 532 107 461 q 110 587 107 583 q 113 606 113 591 q 110 644 113 625 q 106 684 106 677 q 106 690 106 686 q 107 696 107 694 q 115 848 108 699 q 119 907 119 903 q 117 929 119 918 q 115 940 115 933 q 117 960 115 945 q 119 986 119 975 m 503 986 q 526 1025 508 1005 q 553 1047 543 1045 q 557 1048 554 1047 q 561 1048 559 1048 q 577 1044 570 1048 q 585 1032 585 1040 q 577 1000 585 1023 q 567 966 569 978 q 558 936 564 954 q 541 896 551 919 q 526 863 530 872 q 508 818 524 856 q 479 753 492 779 q 458 720 467 727 q 441 702 445 707 q 436 688 438 697 q 434 677 435 684 q 432 662 434 670 q 422 643 429 654 q 383 567 408 618 q 375 540 378 557 q 370 509 372 523 q 368 494 368 495 q 377 467 368 486 q 393 443 386 448 q 398 440 395 441 q 402 438 401 439 q 406 434 404 437 q 410 427 408 432 q 414 415 412 422 q 440 357 433 363 q 463 324 446 353 q 485 290 480 295 q 502 253 491 284 q 515 218 513 222 q 534 186 519 215 q 557 147 549 158 q 569 132 559 143 q 584 111 578 120 q 600 83 591 102 q 616 43 609 65 q 598 13 619 34 q 558 -8 578 -8 q 524 -2 536 -8 q 501 18 511 3 q 447 109 480 45 q 431 134 439 123 q 413 153 422 144 q 400 165 403 163 q 390 187 396 171 q 372 218 384 203 q 356 250 361 233 q 345 271 350 267 q 332 285 339 275 q 319 300 326 295 q 308 331 315 304 q 290 368 301 357 q 275 384 280 378 q 267 398 271 389 q 264 416 264 406 q 265 431 264 425 q 269 447 267 439 q 276 463 272 455 q 283 474 280 470 q 290 485 286 479 q 296 493 295 492 q 322 551 304 505 q 345 594 327 562 q 368 637 363 626 q 377 653 372 646 q 385 667 382 661 q 387 681 387 672 q 396 704 389 692 q 407 725 404 715 q 437 817 424 785 q 471 896 464 881 q 503 986 484 924 z "},"L":{"ha":574,"x_min":104,"x_max":513,"o":"m 136 997 q 140 1009 136 1004 q 153 1018 144 1013 q 165 1026 161 1023 q 208 1044 189 1044 q 231 1023 220 1044 q 243 989 241 1002 q 247 966 243 983 q 253 933 251 949 q 256 905 256 917 q 254 800 256 817 q 249 759 253 788 q 244 717 244 729 q 242 671 244 694 q 240 640 240 648 q 242 602 240 632 q 244 549 244 572 q 243 509 244 522 q 228 340 235 402 q 220 214 220 279 q 221 127 221 200 q 220 111 221 122 q 220 96 220 100 q 228 72 220 77 q 239 67 233 69 q 258 64 245 66 q 282 60 271 62 q 330 56 300 56 q 367 53 359 55 q 390 50 380 50 q 421 57 411 50 q 481 72 450 72 q 502 67 495 72 q 511 47 508 62 q 512 44 511 46 q 513 40 513 41 q 482 12 513 23 q 445 6 470 8 q 406 1 420 4 q 383 -1 389 -1 q 356 1 374 -1 q 328 3 338 3 q 306 2 316 3 q 294 1 296 1 q 260 3 285 1 q 215 4 235 4 q 178 1 188 1 q 157 4 162 1 q 137 8 153 5 q 114 18 121 12 q 106 36 106 24 q 106 71 106 44 q 107 113 107 98 q 106 147 107 138 q 105 158 106 150 q 104 170 104 165 q 110 264 104 205 q 111 270 110 266 q 111 275 111 273 q 118 312 113 292 q 123 343 123 333 q 123 357 123 350 q 122 367 122 365 q 123 391 122 374 q 125 415 125 407 q 124 425 125 416 q 123 446 123 433 q 125 519 123 463 q 127 597 127 575 q 127 612 127 604 q 126 623 126 621 q 125 633 126 626 q 125 643 125 640 q 129 689 125 667 q 136 714 132 712 q 139 717 139 714 q 135 729 139 719 q 131 745 131 739 q 134 770 131 753 q 136 796 136 788 q 135 810 136 806 q 129 868 129 840 q 131 899 129 882 q 136 997 136 979 z "},"M":{"ha":1012,"x_min":90,"x_max":922,"o":"m 193 993 q 218 1039 200 1021 q 244 1053 232 1053 q 281 1022 266 1053 q 330 903 322 943 q 350 840 334 887 q 366 791 366 792 q 368 782 367 786 q 371 775 370 778 q 372 771 372 773 q 373 769 373 770 q 374 768 374 768 q 374 766 374 767 q 380 697 374 720 q 391 678 385 686 q 401 654 397 670 q 410 616 410 631 l 408 610 q 413 603 408 609 q 424 589 418 597 q 431 575 429 581 q 438 545 431 570 q 447 510 446 520 q 471 412 448 507 q 494 351 475 392 q 513 302 512 311 q 519 268 513 291 q 528 240 525 245 q 547 265 533 240 q 568 315 562 290 q 590 403 589 397 q 602 432 591 410 q 612 467 612 454 q 625 545 615 510 q 633 572 627 551 q 642 605 638 592 q 648 619 646 618 q 657 646 651 621 q 667 671 663 671 q 669 688 669 671 q 668 697 669 694 q 684 757 668 712 q 707 804 700 798 q 714 829 710 808 q 718 857 718 850 q 730 899 718 865 q 737 911 732 905 q 744 926 741 918 q 749 947 747 934 q 749 953 749 949 q 750 958 750 957 q 748 975 750 966 q 746 986 746 983 q 750 997 746 991 q 800 1046 781 1039 q 802 1046 801 1046 q 804 1047 804 1047 q 827 1030 816 1047 q 844 990 838 1014 q 857 901 857 945 q 867 822 857 850 q 872 789 871 810 q 875 760 873 768 q 884 676 884 711 q 887 606 884 652 q 890 542 890 560 q 888 510 890 526 q 885 488 885 494 q 889 462 885 475 q 895 443 894 448 q 900 425 895 438 q 905 393 905 412 q 905 383 905 391 q 904 371 904 376 q 903 336 903 359 q 904 295 903 323 q 905 245 905 267 q 909 215 905 233 q 913 183 913 197 q 911 122 911 133 l 911 90 q 917 63 911 81 q 922 39 922 45 q 898 -1 919 22 q 863 -24 878 -24 q 839 -11 856 -24 q 828 0 832 -5 q 821 11 823 5 q 818 21 819 17 q 815 34 817 25 q 812 47 814 43 q 808 104 808 64 q 803 191 806 153 q 796 247 799 228 q 793 273 793 265 l 793 326 q 787 427 793 403 q 782 496 782 453 q 783 528 782 509 q 783 549 783 547 q 777 617 783 555 q 771 692 771 679 q 772 706 771 696 q 772 721 772 716 q 772 736 772 726 q 771 751 771 746 q 770 775 770 760 q 770 802 770 790 q 768 817 770 813 l 762 804 q 755 787 760 800 q 732 729 738 741 q 719 709 726 719 q 708 694 711 700 q 704 677 705 688 q 704 662 704 672 q 703 647 703 652 q 701 635 703 642 q 696 621 699 627 q 686 596 692 612 q 675 561 681 580 q 667 533 669 541 q 659 490 664 524 q 646 435 654 456 q 608 328 620 371 q 598 284 607 322 q 583 229 589 245 q 568 183 577 214 q 555 143 559 153 q 554 135 554 140 q 561 118 554 130 q 567 97 567 106 l 567 64 q 550 33 567 43 q 531 17 543 27 q 513 2 520 6 q 497 -3 506 -3 q 481 -1 487 -3 q 469 5 475 0 q 457 22 462 10 q 450 53 453 34 q 424 158 445 87 q 399 239 404 229 q 372 304 398 240 q 366 332 370 312 q 359 361 362 353 q 352 388 357 369 q 345 418 348 407 q 325 497 326 475 q 326 516 325 507 q 328 526 328 525 q 321 539 328 534 q 312 563 313 546 q 306 589 311 579 q 293 635 300 600 q 282 679 286 670 q 275 705 279 688 q 270 738 272 722 q 268 754 268 753 q 243 815 264 774 q 239 819 241 819 q 236 818 237 819 q 233 813 235 816 q 231 806 232 810 q 229 796 230 802 q 226 786 227 791 q 224 774 225 781 q 222 763 223 768 q 220 751 221 758 q 218 741 219 745 q 210 642 210 694 l 210 607 q 207 578 210 590 q 196 511 196 533 q 198 479 197 499 q 200 453 200 460 q 191 359 200 385 q 185 342 187 349 q 183 325 184 336 q 180 306 182 314 q 179 286 179 299 l 179 271 q 175 235 179 250 q 155 125 164 190 q 144 25 148 70 q 143 8 144 17 q 143 -2 143 0 q 142 -8 144 -5 q 139 -15 141 -12 q 131 -22 136 -18 q 107 -35 119 -35 q 93 -20 95 -35 q 90 9 90 -3 q 98 78 90 42 q 106 155 106 116 l 106 174 q 110 206 106 181 q 114 245 114 231 q 113 262 114 257 q 111 281 111 269 q 115 308 111 292 q 121 335 119 325 q 130 370 122 344 q 138 410 138 396 q 136 422 138 418 q 135 436 135 425 q 147 569 135 465 q 160 685 159 672 q 164 734 161 706 q 168 775 168 763 q 173 821 168 788 q 179 867 178 853 q 193 993 183 954 z "},"N":{"ha":830,"x_min":104,"x_max":726,"o":"m 107 1007 q 130 1036 111 1024 q 165 1048 150 1047 q 205 1034 180 1048 q 244 1002 229 1019 q 273 955 255 989 q 293 916 290 920 q 310 891 297 909 q 331 859 323 873 q 340 836 339 845 q 359 775 341 829 q 434 620 370 743 q 501 475 498 496 q 512 439 505 450 q 519 427 519 427 q 532 378 528 401 q 547 340 533 368 q 564 304 561 313 q 599 232 577 263 q 619 178 612 213 q 627 160 621 170 q 635 151 632 151 q 637 157 637 151 q 644 250 644 195 q 645 304 644 269 q 646 349 646 339 q 651 378 646 358 q 656 407 656 397 q 654 418 656 414 q 650 465 650 433 l 650 490 q 654 517 650 499 q 659 549 659 536 q 657 567 659 560 q 654 604 654 589 q 660 710 654 610 q 655 784 660 728 q 650 847 650 840 q 648 899 648 861 q 650 942 648 934 q 664 1019 654 998 q 670 1040 668 1028 q 675 1058 672 1052 q 688 1068 678 1065 q 694 1069 690 1069 q 715 1054 707 1069 q 726 1019 724 1039 q 723 977 726 1004 q 720 933 720 949 q 722 859 722 867 q 720 811 722 829 q 717 766 717 794 q 721 693 717 752 l 721 671 q 720 623 721 642 q 719 562 719 614 q 717 457 718 510 q 713 385 715 405 q 709 293 710 363 q 705 204 709 222 q 700 129 700 179 q 703 106 700 123 q 705 78 705 89 q 689 -7 701 22 q 660 -32 680 -32 q 648 -31 654 -32 q 640 -31 642 -31 q 587 -21 601 -31 q 574 -7 581 -16 q 564 8 568 1 q 554 26 560 14 q 546 43 549 38 q 514 116 539 56 q 485 186 489 177 q 466 225 482 192 q 437 283 449 258 q 425 317 426 309 q 425 323 425 319 q 425 329 425 327 q 424 334 425 330 q 423 338 424 337 q 422 342 422 340 q 420 346 421 345 q 418 350 420 348 q 415 354 417 352 q 409 360 413 356 q 403 367 405 365 q 399 375 401 369 q 393 390 396 381 q 381 421 391 401 q 356 470 372 440 q 339 501 340 499 q 326 543 334 512 q 309 582 317 573 q 282 636 290 600 q 272 659 282 637 q 262 693 262 681 q 260 705 262 699 q 252 718 257 710 q 243 734 246 726 q 236 752 239 743 q 231 768 233 762 q 222 782 228 774 q 217 796 220 786 q 210 813 214 806 q 199 821 205 821 q 184 807 191 821 q 178 766 178 794 q 179 644 179 701 q 182 597 179 625 q 184 564 184 570 q 178 497 184 530 q 176 485 176 493 q 178 467 176 479 q 180 446 180 454 q 172 396 179 429 q 165 350 165 363 q 168 332 165 342 q 180 235 180 289 l 180 212 q 184 176 180 201 q 187 143 187 151 q 180 61 187 81 q 179 48 179 58 q 175 29 178 38 q 161 11 171 20 q 148 -9 153 3 q 140 -28 142 -21 q 132 -35 137 -35 q 116 -22 121 -35 q 110 26 111 -9 q 113 72 110 51 q 117 98 117 92 q 115 115 117 105 q 114 127 114 124 q 115 144 114 133 q 115 160 115 155 q 113 178 115 172 q 110 243 110 186 q 109 272 109 252 q 113 328 109 281 q 116 353 114 337 q 119 378 119 368 q 120 389 119 380 q 121 404 121 397 q 114 500 121 451 q 110 555 110 526 q 114 629 110 574 q 125 689 119 680 q 130 695 125 690 q 134 705 134 701 q 126 724 134 712 q 113 754 116 739 q 107 803 109 768 q 109 857 107 818 q 111 914 111 897 q 107 964 111 943 q 104 989 104 985 q 107 1007 104 994 z "},"O":{"ha":741,"x_min":90,"x_max":652,"o":"m 436 1044 q 457 1046 443 1046 q 524 1028 501 1046 q 589 956 578 973 q 603 924 593 945 q 618 893 613 902 q 623 883 618 891 q 630 869 627 874 q 635 856 632 864 q 640 838 638 847 q 643 818 642 828 q 652 631 652 689 q 642 496 652 561 q 637 417 637 468 q 629 347 637 366 q 621 323 625 335 q 616 303 618 311 q 611 279 614 295 q 606 250 608 262 q 577 163 597 210 q 528 85 557 117 q 496 56 510 64 q 475 44 482 47 q 463 36 467 42 q 454 26 458 31 q 447 18 450 20 q 440 12 445 15 q 429 5 436 9 q 415 -2 425 3 q 399 -12 406 -8 q 379 -18 392 -15 q 351 -21 366 -21 q 268 4 323 -21 q 243 17 256 9 q 224 31 230 26 q 204 49 218 36 q 191 62 191 62 q 153 123 165 88 q 135 165 146 140 q 121 204 123 190 q 116 246 120 208 q 107 302 112 284 q 94 374 96 353 q 90 463 90 441 q 94 504 90 494 l 103 532 q 98 583 98 558 q 99 593 98 587 q 100 602 100 599 q 108 640 100 618 q 117 668 115 662 q 149 791 122 711 q 210 899 165 849 q 283 965 260 955 q 334 1000 317 980 q 378 1027 342 1013 q 436 1044 413 1042 m 441 981 q 423 975 435 981 q 404 970 411 970 q 390 972 400 970 q 371 974 380 974 q 342 962 351 974 q 311 923 331 951 q 283 879 290 894 q 274 854 282 874 q 261 815 267 835 q 253 779 255 796 q 236 675 243 705 q 227 632 228 645 q 225 576 225 618 q 227 537 225 552 q 230 509 228 522 q 233 485 233 496 q 252 368 238 422 q 259 317 255 352 q 268 268 262 283 q 278 221 273 253 q 285 184 283 189 q 307 146 291 171 q 338 110 323 122 q 358 88 346 103 q 383 65 371 73 q 412 57 395 57 q 435 61 422 57 q 444 65 439 62 q 450 70 448 68 q 457 77 453 72 q 463 83 461 81 q 469 91 465 85 q 475 98 473 97 q 498 115 486 115 q 518 161 505 115 q 536 194 519 168 q 554 231 553 220 q 553 246 554 234 q 553 265 553 258 q 561 297 553 289 q 565 301 562 298 q 569 305 568 304 q 573 309 570 307 q 576 314 575 312 q 579 320 577 317 q 582 329 581 324 q 584 340 583 334 q 586 354 585 346 q 589 415 589 375 q 591 475 589 454 q 595 513 595 505 q 594 537 595 522 q 593 559 593 552 q 595 589 593 574 q 600 619 596 604 q 603 644 603 635 q 602 660 603 654 q 597 704 600 671 q 591 763 594 736 q 586 796 589 789 q 564 863 571 833 q 552 892 559 883 q 530 913 545 901 q 509 939 525 918 q 484 968 493 961 q 441 981 467 981 z "},"P":{"ha":690,"x_min":104,"x_max":628,"o":"m 118 1006 q 122 1015 119 1010 q 132 1022 125 1019 q 144 1028 138 1025 q 158 1034 149 1030 q 172 1039 168 1037 q 237 1047 193 1047 q 326 1048 276 1047 q 385 1050 376 1050 q 505 1036 450 1050 q 529 1027 517 1034 q 550 1013 540 1021 q 562 1004 561 1005 q 576 982 568 1000 q 587 960 584 964 q 619 901 609 928 q 628 827 628 881 q 612 751 628 774 q 600 720 604 740 q 590 692 595 701 q 569 643 581 679 q 545 593 556 607 q 532 577 538 585 q 523 566 526 569 q 514 556 520 562 q 498 543 508 551 q 460 509 469 520 q 450 494 456 503 q 406 452 431 466 q 390 435 401 449 q 367 415 379 422 q 347 402 359 411 q 327 387 336 393 q 307 382 317 382 q 287 389 296 382 q 278 404 278 395 q 285 421 278 414 q 358 486 319 460 q 375 493 366 491 q 391 496 385 494 q 397 503 396 497 q 416 567 410 559 q 475 644 467 628 q 505 729 499 694 q 510 781 510 753 q 496 863 510 828 q 483 901 490 878 q 470 937 476 924 q 453 958 464 950 q 438 970 450 961 q 421 983 426 980 q 407 990 417 986 q 387 997 397 995 q 345 1004 371 1000 q 310 1008 319 1007 q 292 1010 303 1010 q 256 993 267 1010 q 252 974 252 985 q 245 956 252 969 q 239 935 239 943 q 245 922 239 931 q 252 909 252 913 q 244 737 252 883 q 239 703 243 726 q 235 664 235 680 q 237 627 235 650 q 239 591 239 604 q 236 559 239 584 q 225 390 225 493 q 231 306 225 349 q 233 262 233 279 q 232 220 233 249 q 231 176 231 192 q 232 141 231 163 q 233 111 233 119 q 225 78 233 86 q 213 66 221 73 q 201 54 205 60 q 195 39 197 48 q 182 4 191 20 q 160 -16 173 -12 q 156 -16 159 -16 q 153 -17 154 -17 q 121 -5 137 -17 q 104 20 104 7 q 106 48 104 26 q 107 98 107 70 q 110 149 107 119 q 113 189 113 180 q 110 210 113 199 q 107 286 107 218 q 106 298 107 287 q 106 319 106 309 q 109 478 106 385 q 117 575 113 572 q 123 618 123 582 q 119 632 123 623 q 114 647 114 642 q 123 683 114 665 q 132 708 132 701 q 128 727 132 713 q 122 755 124 742 q 118 807 119 772 q 115 859 117 842 q 120 902 115 880 q 125 930 125 923 q 118 1006 118 1003 z "},"Q":{"ha":804,"x_min":90,"x_max":714,"o":"m 403 1026 q 481 1048 448 1048 q 502 1044 491 1048 q 520 1037 513 1040 q 542 1026 527 1034 q 564 1014 556 1018 q 595 990 579 1006 q 625 956 610 975 q 644 932 640 937 q 674 886 658 919 q 697 828 691 854 q 710 681 710 773 q 712 642 710 669 q 714 600 714 615 q 713 571 714 581 q 709 552 711 561 q 708 539 708 543 q 707 533 707 536 q 706 529 706 530 q 705 528 706 528 q 704 521 705 527 q 703 503 704 515 q 699 478 701 491 q 694 440 696 469 q 686 383 691 410 q 671 340 681 356 q 646 267 648 304 q 637 210 646 226 q 622 193 637 207 q 603 170 606 180 q 598 150 600 163 q 594 129 597 138 q 585 115 591 119 q 573 105 577 111 q 567 95 568 99 q 562 82 565 91 q 536 43 551 56 q 519 39 533 40 q 496 32 505 39 q 483 16 490 26 q 471 3 477 5 q 457 -2 470 2 q 434 -12 444 -7 q 424 -20 424 -17 q 434 -47 424 -28 q 460 -79 445 -66 q 486 -105 475 -93 q 503 -122 497 -117 q 549 -160 513 -132 q 600 -170 562 -170 q 616 -178 607 -170 q 625 -196 625 -186 q 617 -216 625 -205 q 596 -233 608 -227 q 559 -245 583 -240 q 521 -250 536 -250 q 469 -236 505 -250 q 424 -211 433 -222 q 420 -206 422 -210 q 416 -200 417 -202 q 412 -196 414 -198 q 407 -195 410 -195 q 374 -163 395 -195 q 350 -122 359 -140 q 336 -97 340 -103 q 309 -66 318 -66 q 298 -71 302 -66 q 257 -94 272 -94 q 241 -84 248 -94 q 235 -64 235 -75 q 239 -52 235 -56 q 260 -39 244 -45 q 282 -29 277 -33 q 290 -20 290 -23 q 272 -3 290 -15 q 205 55 248 14 q 149 122 162 95 q 133 173 138 145 q 123 205 127 200 q 117 222 120 211 q 110 252 114 234 q 104 279 106 271 q 98 321 100 296 q 94 350 95 347 q 90 386 90 374 q 99 422 90 399 q 109 458 109 446 q 101 475 109 465 q 93 497 93 486 q 94 518 93 500 q 94 551 94 535 q 102 612 94 576 q 118 665 111 648 q 144 751 136 720 q 186 827 152 781 q 199 842 192 836 q 211 852 206 849 q 220 859 215 856 q 227 864 225 863 q 237 880 228 865 q 259 915 245 895 q 286 949 273 935 q 323 979 307 970 q 361 994 339 988 q 387 1011 374 998 q 403 1026 399 1024 m 390 951 q 361 945 373 951 q 300 889 318 922 q 284 840 293 877 q 269 791 276 802 q 245 744 258 774 q 229 697 232 714 q 226 657 229 692 q 220 595 224 623 q 216 558 216 561 q 218 533 216 547 q 221 498 219 519 q 225 456 224 476 q 238 358 228 427 q 248 268 248 290 q 255 235 248 250 q 283 196 262 221 q 300 157 298 179 q 310 126 302 136 q 355 86 322 112 q 403 53 389 61 q 422 47 414 47 q 461 61 441 47 q 475 69 467 64 q 486 76 484 74 q 494 85 489 79 q 507 104 500 92 q 541 146 518 123 q 570 179 563 169 q 585 217 578 191 q 602 252 593 242 q 617 306 610 262 q 625 355 623 349 q 626 358 625 356 q 627 361 627 360 q 653 453 644 412 q 660 546 660 499 q 659 568 660 551 q 659 597 659 585 q 656 648 659 621 q 651 694 654 675 q 643 746 648 713 q 636 796 638 779 q 596 889 628 855 q 524 956 551 937 q 510 966 517 960 q 499 976 503 972 q 491 981 496 979 q 481 983 486 983 q 465 975 479 983 q 432 960 451 966 q 390 951 412 953 z "},"R":{"ha":691,"x_min":104,"x_max":636,"o":"m 107 1039 q 131 1050 113 1050 q 174 1048 167 1050 q 261 1042 216 1042 q 289 1043 282 1042 q 346 1047 307 1047 q 371 1042 348 1047 q 411 1036 394 1036 q 418 1037 412 1036 q 433 1038 425 1038 q 518 1013 458 1038 q 575 964 541 1013 q 611 890 609 915 q 612 856 612 880 q 604 760 612 806 q 590 719 601 745 q 574 686 580 693 q 534 619 541 648 q 524 590 531 606 q 512 566 517 574 q 496 539 507 557 q 482 517 485 522 q 440 464 469 492 q 421 438 429 453 q 404 415 413 423 q 379 389 379 392 q 398 371 379 387 q 442 335 418 355 q 475 306 467 315 q 503 262 484 295 q 529 224 522 229 q 578 170 557 204 q 594 145 582 163 q 614 113 606 127 q 627 89 623 99 q 632 76 627 87 q 636 60 636 65 q 632 37 636 51 q 628 20 629 23 q 616 -5 627 7 q 596 -17 605 -17 q 589 -15 593 -17 q 578 -7 585 -12 q 567 2 572 -2 q 553 14 562 7 q 542 24 545 21 q 514 52 522 41 q 502 76 507 62 q 485 106 496 90 q 463 125 483 109 q 433 155 442 142 q 395 203 420 176 q 372 233 386 212 q 349 261 359 253 q 319 292 334 273 q 300 323 304 311 q 293 353 293 339 q 300 374 293 365 q 315 399 304 380 q 335 432 326 418 q 349 447 344 446 q 376 472 373 453 q 390 525 385 517 q 416 574 397 534 q 440 631 435 614 q 453 654 444 642 q 463 676 463 666 q 472 723 463 687 q 484 772 481 760 q 489 846 489 812 q 486 876 489 868 q 481 896 486 877 q 469 932 477 914 q 450 958 461 949 q 347 994 405 994 l 329 994 q 289 986 313 994 q 252 979 264 979 q 241 945 246 979 q 237 868 237 911 q 239 821 237 853 q 240 772 240 789 q 242 701 240 747 q 244 633 244 655 l 244 607 q 249 561 244 584 q 253 528 253 537 q 254 489 253 521 q 254 439 254 456 q 253 403 254 410 q 248 327 251 390 q 245 224 245 264 l 245 189 q 245 158 245 178 q 244 129 244 138 q 246 100 244 116 q 248 79 248 85 q 239 26 248 39 q 209 -2 229 11 q 171 -16 188 -16 q 142 18 150 -16 q 137 48 138 31 q 131 82 135 66 q 127 98 127 96 q 132 120 127 106 q 136 144 136 134 q 134 220 134 178 l 134 245 q 139 292 135 267 q 147 323 143 317 q 150 343 150 329 q 148 389 150 354 q 146 441 146 424 q 139 597 146 571 q 125 743 127 642 q 128 800 125 762 q 131 848 131 837 q 130 866 131 857 q 129 876 129 874 q 131 905 129 886 q 132 933 132 925 q 132 941 132 936 q 131 947 131 945 q 117 985 129 961 q 104 1022 104 1008 q 107 1039 104 1034 z "},"S":{"ha":643,"x_min":90,"x_max":553,"o":"m 485 785 q 456 790 469 786 q 443 800 443 795 l 441 820 q 440 854 440 840 q 442 876 440 861 q 444 900 444 890 q 437 926 444 911 q 428 950 430 941 q 414 984 424 968 q 393 1004 404 999 q 376 1007 385 1007 q 317 994 347 1007 q 256 926 288 982 q 249 900 249 918 q 252 871 249 891 q 254 838 254 850 q 268 781 254 799 q 275 750 272 774 q 281 718 278 727 q 287 707 283 711 q 293 701 290 703 q 306 692 296 699 q 325 681 316 686 q 354 659 340 671 q 388 626 368 646 q 424 590 408 605 q 437 578 427 588 q 450 566 448 568 q 462 556 453 564 q 473 545 471 547 q 484 534 476 542 q 494 523 491 526 q 502 512 496 519 q 511 499 508 505 q 518 486 514 493 q 525 472 522 479 q 545 404 537 443 q 553 335 553 364 q 541 237 553 297 q 529 200 537 222 q 519 171 522 178 q 486 107 516 149 q 475 92 480 98 q 467 84 469 86 q 455 75 464 82 q 443 65 447 68 q 390 31 431 56 q 340 1 349 7 q 300 -8 326 -8 q 257 -5 284 -8 q 178 14 222 -3 q 144 41 163 20 q 119 77 125 63 q 107 120 113 89 q 100 172 101 151 q 95 222 100 183 q 90 278 90 261 q 92 294 90 290 q 109 325 95 311 q 142 338 122 338 q 170 328 156 338 q 184 302 184 317 q 176 277 184 294 q 165 254 168 261 q 157 212 157 220 q 161 182 157 203 q 164 167 162 178 q 168 152 167 156 q 171 140 169 148 q 174 128 173 132 q 178 118 176 124 q 183 109 180 113 q 189 102 186 105 q 202 89 192 99 q 219 74 212 79 q 236 60 225 68 q 258 49 248 53 q 289 43 273 43 q 340 60 321 43 q 370 87 356 71 q 386 117 384 104 q 401 150 387 136 q 424 204 406 155 q 429 248 429 218 q 425 310 429 281 q 425 315 425 311 q 424 323 424 319 q 417 353 422 340 q 405 382 413 366 q 392 408 396 399 q 363 447 384 427 q 339 472 342 467 l 289 533 q 252 569 275 548 q 216 599 229 590 q 185 628 203 609 q 165 654 168 646 q 161 668 164 659 q 156 686 159 678 q 147 699 153 693 q 122 765 122 731 q 123 783 122 777 q 146 883 136 859 q 160 905 153 897 q 181 939 173 920 q 197 968 190 958 q 205 979 200 972 q 212 989 210 987 q 219 997 214 992 q 231 1007 224 1002 q 248 1018 237 1012 q 338 1057 310 1057 q 428 1039 380 1057 q 468 1012 446 1032 q 494 981 490 991 q 509 921 509 955 q 512 878 509 901 q 515 851 515 854 q 511 827 515 842 q 500 799 508 813 q 485 785 493 784 z "},"T":{"ha":629,"x_min":62,"x_max":567,"o":"m 62 996 q 114 1036 64 1036 q 153 1033 131 1036 q 184 1028 175 1029 q 240 1026 203 1026 q 322 1028 294 1026 q 375 1026 341 1028 q 427 1025 410 1025 q 458 1029 439 1025 q 492 1035 477 1034 q 532 1038 513 1038 q 567 1028 567 1038 q 564 1020 567 1024 q 555 1010 561 1015 q 546 1003 550 1006 q 535 995 542 1000 q 528 990 528 991 q 517 981 525 988 q 506 972 509 975 q 495 966 502 969 q 481 964 488 964 q 465 966 476 964 q 429 972 449 971 q 401 974 408 972 q 392 977 398 975 q 382 981 387 979 q 375 982 378 982 q 366 957 366 982 q 367 913 366 945 q 368 864 368 881 q 374 796 368 844 q 379 733 379 747 q 381 707 379 721 q 383 684 383 693 q 381 625 383 662 q 379 570 379 587 q 376 530 379 564 q 374 469 374 496 q 377 402 374 444 q 380 343 380 359 q 382 305 380 328 q 385 273 385 282 q 379 210 385 250 q 374 151 374 170 q 375 127 374 134 q 386 93 377 109 q 396 65 394 77 q 392 46 396 53 q 374 31 387 39 q 355 17 361 22 q 286 -16 317 -16 q 273 -12 283 -16 q 253 31 253 -3 q 256 57 253 38 q 258 118 258 73 q 261 174 258 161 q 265 191 262 180 q 269 208 268 201 q 271 220 271 214 q 265 269 271 237 q 258 309 259 300 q 263 374 258 325 q 268 443 268 424 q 267 463 268 457 q 260 524 263 481 q 257 572 258 566 q 256 606 256 581 q 255 708 256 654 q 254 783 254 763 q 252 823 254 792 q 250 869 250 853 l 250 890 q 256 928 251 903 q 261 966 261 954 q 241 981 261 981 q 211 975 229 980 q 165 970 192 970 l 115 970 q 103 970 115 970 q 87 971 92 970 q 76 975 83 972 q 65 982 68 977 q 62 996 62 987 z "},"U":{"ha":743,"x_min":104,"x_max":639,"o":"m 123 962 q 125 978 124 971 q 127 990 125 984 q 130 998 130 996 q 134 1005 130 1001 q 138 1010 138 1010 q 145 1016 139 1011 q 151 1022 151 1021 q 167 1039 157 1027 q 184 1056 177 1050 q 199 1063 192 1063 q 224 1044 209 1063 q 245 1002 239 1025 q 249 990 247 998 q 253 979 252 983 q 255 969 254 976 q 258 959 257 963 q 259 947 258 954 q 260 933 260 941 q 258 905 260 916 q 243 741 247 798 q 241 700 241 724 l 241 621 q 240 519 240 604 q 236 484 239 511 q 233 441 233 456 q 235 424 233 429 q 243 326 243 363 q 256 207 243 295 q 268 160 258 186 q 290 118 277 135 q 354 69 307 98 q 412 47 395 47 q 417 48 414 47 q 421 49 420 49 q 444 60 431 51 q 469 83 456 70 q 482 96 481 96 q 502 126 488 101 q 522 165 516 151 q 527 178 526 173 q 528 188 528 184 q 529 203 528 193 q 532 228 530 214 q 543 268 534 243 q 554 336 552 293 q 559 453 559 445 q 558 476 559 471 q 557 490 557 479 q 559 523 557 500 q 561 554 561 546 q 560 560 561 557 l 559 564 q 558 596 558 568 l 558 676 q 565 707 558 692 q 572 725 572 722 q 563 753 572 727 q 554 798 554 779 q 558 840 554 812 q 562 888 562 867 q 564 918 562 896 q 566 949 566 939 q 563 975 566 962 q 561 990 561 987 q 571 1034 561 1019 q 592 1055 577 1044 q 618 1065 608 1065 q 625 1064 624 1065 q 639 1010 639 1053 l 639 987 q 631 847 639 930 q 623 804 629 831 q 616 762 616 777 q 618 745 616 750 q 619 724 619 738 q 617 696 619 713 q 615 668 615 678 q 616 648 615 655 q 621 545 621 621 q 615 404 621 448 q 611 328 612 372 q 607 262 610 283 q 576 154 598 186 q 560 121 572 147 q 536 79 547 96 q 515 61 526 63 q 506 58 510 60 q 498 55 501 56 q 491 51 496 54 q 486 46 487 47 q 479 39 484 45 q 472 32 473 33 q 449 17 465 25 q 412 0 433 9 q 385 -12 390 -9 q 363 -17 375 -17 q 325 -12 349 -17 q 300 -7 301 -7 q 283 -1 294 -6 q 265 9 273 4 q 244 21 257 14 q 227 32 231 29 q 167 82 178 58 q 125 191 141 129 q 111 289 111 243 q 114 317 111 303 q 117 347 117 328 q 114 395 117 363 q 111 415 113 401 q 106 440 108 428 q 104 465 104 453 q 106 484 104 478 q 109 585 107 497 q 115 688 111 673 q 117 707 117 693 q 114 744 117 720 q 111 775 111 768 q 113 852 111 840 q 123 962 121 932 z "},"V":{"ha":708,"x_min":62,"x_max":646,"o":"m 62 970 q 79 998 62 983 q 109 1018 95 1013 q 121 1025 113 1019 q 135 1031 130 1031 q 151 1014 144 1031 q 204 869 195 928 q 250 704 211 819 q 282 575 278 617 q 283 547 283 566 q 283 530 283 541 q 282 514 282 518 q 290 475 282 491 q 318 395 313 424 q 350 250 339 297 q 361 194 355 229 q 368 154 366 159 q 371 151 368 151 q 383 171 376 151 q 392 208 390 191 q 412 306 393 222 q 418 326 414 313 q 425 348 422 340 q 429 368 427 355 q 431 392 431 380 q 434 415 431 403 q 444 443 438 427 q 453 468 450 458 q 482 616 458 487 q 511 677 489 646 q 514 690 514 683 q 513 706 514 692 q 513 734 513 720 q 527 802 515 753 q 547 875 538 850 q 554 892 551 886 q 561 901 558 899 q 566 904 564 903 q 568 908 568 906 q 570 923 570 911 q 570 951 570 936 q 571 971 570 966 q 581 1002 573 981 q 593 1028 589 1023 q 596 1040 593 1029 q 604 1058 599 1050 q 621 1065 610 1065 q 640 1061 635 1065 q 646 1046 646 1057 q 637 1002 646 1034 q 627 957 631 975 q 622 921 624 940 q 618 893 619 901 q 612 871 616 881 q 606 855 609 861 q 598 839 604 850 q 589 822 592 828 q 576 777 584 811 q 562 715 569 743 q 550 685 555 687 q 545 682 547 684 q 542 676 543 680 q 539 669 540 672 q 536 659 538 665 q 534 648 535 652 q 531 634 533 644 q 529 619 530 625 q 504 500 522 576 q 492 451 500 482 q 478 396 484 420 q 468 350 472 373 q 465 311 465 331 q 463 278 465 290 q 454 254 461 266 q 438 206 446 239 q 428 164 431 174 q 411 116 422 146 q 397 79 399 87 q 392 58 395 74 q 385 30 389 43 q 372 9 380 16 q 322 -20 343 -20 q 319 -19 321 -20 q 317 -18 317 -18 q 292 14 306 -15 q 275 68 277 42 q 244 175 274 85 q 214 283 214 265 q 210 317 214 294 q 202 358 206 339 q 192 400 198 376 q 186 428 186 424 q 170 496 182 439 q 154 566 157 553 q 142 625 151 579 q 131 686 134 671 q 119 737 126 709 q 109 779 112 765 q 95 823 106 795 q 83 869 84 852 q 73 924 83 886 q 62 970 62 962 z "},"W":{"ha":1005,"x_min":62,"x_max":936,"o":"m 62 978 q 70 1021 65 1012 q 90 1039 75 1031 q 144 1063 130 1063 q 158 1059 152 1063 q 175 1038 170 1050 q 186 990 179 1026 q 194 946 187 979 q 201 884 201 914 q 198 824 201 861 q 195 770 195 787 q 196 746 195 754 q 203 633 203 646 l 203 608 q 213 562 203 585 q 222 524 222 540 q 229 468 222 505 q 236 410 235 431 q 249 301 240 340 q 262 254 250 292 q 275 212 275 217 l 283 226 q 311 301 303 272 q 329 353 315 316 q 346 410 342 391 q 369 503 352 442 q 393 572 386 563 q 403 615 403 586 q 400 644 403 625 q 399 661 399 650 q 414 728 399 693 q 437 814 431 777 q 453 851 441 828 q 465 882 465 875 q 461 905 465 889 q 457 935 458 920 q 485 1014 457 970 q 529 1035 502 1035 q 557 1011 545 1033 q 575 960 570 990 q 589 891 577 947 q 603 817 602 836 q 615 699 614 723 q 632 587 619 625 q 656 503 650 542 q 657 484 657 490 q 669 380 657 411 q 677 359 672 372 q 686 333 682 347 q 694 302 690 320 q 703 272 697 292 q 711 237 708 252 q 717 199 713 222 q 745 111 732 111 q 751 136 749 111 q 754 189 754 160 q 766 261 754 216 q 779 315 779 305 q 786 373 780 326 q 794 441 793 420 q 803 482 795 456 q 812 545 810 507 q 820 617 814 582 q 825 667 825 652 q 833 700 825 684 q 842 730 842 716 l 842 747 q 850 839 842 789 q 865 880 853 857 q 878 914 878 904 q 876 922 878 920 q 865 979 865 949 q 867 994 865 989 q 883 1019 868 1006 q 900 1038 898 1031 q 914 1046 902 1046 q 936 1015 936 1046 q 920 892 934 945 q 904 782 916 870 q 888 736 902 760 q 875 701 875 713 q 878 659 878 670 q 873 614 878 642 q 858 535 869 589 q 843 461 847 481 q 839 406 839 436 q 835 359 839 378 q 824 313 831 342 q 814 265 817 283 q 808 199 812 258 q 796 115 804 140 q 789 73 791 96 q 782 35 787 51 q 770 11 777 21 q 754 -9 764 1 q 741 -24 744 -20 q 707 -37 731 -37 q 685 -31 692 -37 q 639 53 677 -22 q 602 154 604 130 q 587 196 600 166 q 567 257 574 226 q 559 293 563 275 q 554 320 555 311 q 549 336 552 328 q 543 350 547 345 q 538 391 539 358 q 534 433 538 423 q 529 485 534 437 q 514 553 524 534 q 506 571 509 562 q 502 590 503 580 q 499 606 500 600 q 497 623 498 611 q 496 639 496 635 q 482 703 494 660 q 476 714 480 714 q 456 637 467 714 q 445 585 452 610 q 429 533 437 559 q 416 494 420 507 q 408 459 412 479 q 399 425 403 438 q 392 401 395 411 q 387 366 389 393 q 378 322 385 338 q 367 291 372 309 q 352 245 361 273 q 336 196 343 216 q 318 141 330 173 q 300 82 307 109 q 296 64 298 75 q 293 50 294 54 q 290 40 292 46 q 287 31 288 33 q 284 25 286 28 q 281 18 283 21 q 277 12 279 16 l 264 -4 q 232 -21 257 -10 q 216 -24 228 -24 q 181 -12 197 -24 q 163 20 165 1 q 156 102 161 33 q 147 191 150 172 q 143 237 145 204 q 136 292 141 269 q 119 393 119 374 q 115 472 119 451 q 109 499 114 480 q 100 538 103 517 q 96 583 96 558 q 85 753 90 697 q 79 801 84 760 q 72 865 73 841 q 67 920 71 882 q 62 978 62 958 z "},"X":{"ha":663,"x_min":62,"x_max":602,"o":"m 62 1003 q 121 1059 64 1027 q 123 1059 121 1059 q 125 1060 124 1060 q 156 1043 136 1060 q 191 1004 176 1025 q 257 885 247 921 q 285 798 279 808 q 298 779 288 792 q 316 751 308 765 q 328 725 325 737 q 351 653 345 655 q 367 681 357 651 q 378 726 376 711 q 381 739 378 731 q 390 758 385 747 q 399 776 395 768 q 410 794 404 784 q 418 808 416 805 q 444 882 439 846 q 472 951 448 909 q 489 986 481 968 q 503 1013 496 1003 q 524 1038 511 1027 q 545 1050 536 1048 q 553 1042 549 1050 q 558 1023 556 1034 q 559 1002 559 1012 q 559 996 559 1000 q 558 991 558 993 q 556 982 557 986 q 554 976 555 977 q 554 972 554 974 q 530 917 554 962 q 509 863 519 896 q 490 814 498 829 q 468 758 482 798 q 444 703 453 719 q 421 668 441 696 q 397 619 401 640 q 392 593 396 612 q 387 564 387 574 q 392 539 387 553 q 426 481 395 532 q 464 401 457 431 q 471 363 469 382 q 476 337 474 345 q 482 326 477 330 q 491 319 483 326 q 504 308 500 312 q 513 295 508 304 q 521 277 519 286 q 567 150 526 249 q 584 117 571 140 q 600 79 597 94 q 601 75 600 78 q 602 71 602 72 q 575 -4 602 38 q 564 -8 573 -8 q 525 3 547 -8 q 494 28 502 14 q 476 70 489 39 q 453 118 463 100 q 440 139 447 128 q 428 159 433 151 q 416 186 424 168 q 405 214 412 197 q 394 241 398 231 q 386 259 390 250 q 378 272 381 269 q 358 334 366 284 q 351 369 354 361 q 340 386 349 376 q 331 399 336 391 q 321 413 325 408 q 315 418 317 418 q 309 404 314 418 q 295 373 303 389 q 279 351 287 356 q 268 326 270 345 q 261 298 265 307 q 227 222 232 243 q 193 144 212 173 q 180 109 186 134 q 168 72 174 84 q 157 51 163 61 q 148 33 151 40 q 143 17 144 26 q 140 -26 143 -22 q 115 -41 135 -35 q 82 -47 94 -47 q 71 -41 76 -47 q 66 -26 66 -35 q 70 -3 66 -15 q 80 23 73 9 q 87 43 86 38 q 98 68 90 49 q 109 97 107 87 q 132 161 111 109 q 146 194 136 170 q 161 232 155 218 q 184 273 166 242 q 217 332 201 304 q 233 361 233 359 q 234 370 234 362 q 235 387 234 377 q 239 404 236 396 q 258 437 241 412 q 275 471 274 463 q 279 505 279 499 q 275 532 279 519 q 245 591 273 538 q 214 661 218 644 q 211 674 212 666 q 208 686 209 683 q 206 694 208 689 q 203 701 205 699 q 199 705 201 703 q 192 708 196 707 q 170 745 183 711 q 151 786 157 780 q 134 829 144 793 q 117 868 123 865 q 104 906 111 871 q 85 953 96 942 q 67 975 71 966 q 62 1003 62 985 z "},"Y":{"ha":690,"x_min":62,"x_max":628,"o":"m 62 999 q 72 1026 62 1014 q 93 1042 81 1038 q 102 1043 96 1043 q 138 1028 119 1043 q 171 986 158 1014 q 202 934 183 959 q 225 900 221 909 q 251 839 236 878 q 271 779 266 800 q 282 746 273 766 q 292 711 291 726 q 296 691 292 699 q 306 671 299 682 q 317 653 313 660 q 332 614 323 640 q 342 586 340 589 q 350 592 342 585 q 367 609 358 598 q 379 628 376 620 q 384 651 380 629 q 393 687 387 672 q 410 715 399 703 q 461 800 450 764 q 497 878 471 830 q 526 951 516 912 q 533 967 528 959 q 542 982 538 976 q 553 997 545 987 q 562 1010 560 1006 q 570 1022 566 1015 q 578 1035 575 1030 q 586 1043 581 1039 q 596 1047 591 1046 q 617 1039 606 1047 q 628 1019 628 1031 q 619 997 628 1008 q 595 954 606 980 q 572 911 585 928 q 555 872 559 891 q 543 836 552 853 q 521 802 532 816 q 505 778 510 788 q 496 761 502 770 q 486 742 490 751 q 478 718 481 733 q 469 693 475 703 q 455 672 463 682 q 443 654 447 661 q 426 616 436 643 q 410 576 416 590 q 401 557 407 571 q 392 538 395 544 q 387 524 390 533 q 382 507 383 514 q 380 492 380 499 q 381 452 380 484 q 382 403 382 420 q 380 371 382 375 q 370 324 376 357 q 364 273 364 291 q 367 225 367 237 q 365 200 367 216 q 363 178 363 185 q 365 143 363 168 q 367 103 367 118 q 366 93 367 100 q 366 82 366 85 q 354 7 362 26 q 334 -17 348 -8 q 306 -26 321 -26 q 273 -3 285 -26 q 263 32 269 5 q 254 81 256 60 l 254 96 q 255 122 254 103 q 256 150 256 140 l 252 193 q 249 215 249 210 q 253 245 249 228 q 257 265 257 262 q 256 279 257 267 q 256 300 256 291 q 260 343 256 325 q 265 421 265 366 q 261 463 264 450 q 249 486 258 475 q 214 560 242 494 q 179 637 186 625 q 168 700 168 659 q 160 724 168 707 q 150 750 153 741 q 137 794 143 768 q 125 832 130 819 q 111 856 120 846 q 103 865 107 861 q 97 871 99 869 q 93 876 96 873 q 90 883 91 878 q 86 893 88 887 q 81 911 84 899 q 62 999 66 962 z "},"Z":{"ha":725,"x_min":62,"x_max":663,"o":"m 176 975 q 194 1018 176 998 q 233 1038 212 1038 q 263 1038 241 1038 q 297 1039 285 1039 q 367 1036 355 1039 q 422 1031 406 1031 q 452 1034 444 1031 q 497 1038 465 1037 q 536 1039 529 1038 q 588 1041 547 1040 q 637 1043 629 1042 q 655 1024 647 1043 q 663 985 663 1004 q 662 979 663 983 q 661 974 661 976 q 616 892 656 943 q 601 867 608 881 q 591 847 594 854 q 581 819 588 840 q 572 793 574 798 q 523 686 562 765 q 461 570 484 608 q 434 520 448 548 q 406 467 419 493 q 389 433 393 441 q 377 402 382 420 q 367 372 373 384 q 349 345 362 362 q 330 314 335 327 q 325 294 328 306 q 319 273 322 282 q 309 253 315 264 q 298 224 303 245 q 275 183 293 204 q 247 150 262 167 q 220 117 232 132 q 200 77 200 90 q 207 64 200 68 q 227 61 212 61 q 309 69 235 61 q 314 70 309 69 q 322 71 319 71 q 356 69 332 71 q 387 68 379 68 q 412 66 398 68 q 432 65 426 65 q 509 74 493 65 q 602 93 543 93 q 619 68 619 93 q 618 55 619 60 q 615 46 616 50 q 609 40 614 43 q 603 36 604 37 q 593 32 602 35 q 583 28 585 28 q 557 15 580 26 q 522 3 534 3 q 408 17 481 3 q 321 22 380 22 l 241 22 q 182 16 205 22 q 152 3 166 10 q 122 -9 138 -5 q 93 -16 106 -16 q 66 3 75 -16 q 62 22 62 11 q 82 72 62 39 q 99 107 90 84 q 121 154 107 130 q 142 194 130 170 q 161 231 153 218 q 178 253 168 244 q 196 267 184 258 q 212 282 208 276 q 216 298 216 288 l 216 321 q 225 353 216 332 q 254 415 229 359 q 308 527 280 470 q 350 612 335 585 q 369 645 360 631 q 383 665 378 660 q 390 676 387 671 q 392 688 392 682 q 408 755 392 730 q 457 851 436 800 q 475 893 465 869 q 493 933 486 918 q 503 960 500 949 q 511 990 511 989 q 503 997 511 997 q 460 994 500 997 q 390 990 420 990 q 335 991 367 990 q 301 993 302 993 q 284 988 294 993 q 269 983 274 983 q 242 971 259 983 q 215 958 225 958 q 200 957 208 958 q 189 956 191 956 q 176 975 176 956 z "},"[":{"ha":362,"x_min":50,"x_max":300,"o":"m 182 1074 q 168 1062 171 1073 q 164 1026 164 1051 q 165 863 164 991 q 165 717 165 734 q 171 657 165 689 q 172 636 172 650 q 168 566 172 606 q 164 494 164 526 q 165 422 164 490 q 167 342 167 353 q 165 302 167 330 q 164 262 164 275 q 165 241 164 254 q 167 225 167 229 q 163 185 167 213 q 160 142 160 157 q 164 90 160 129 q 168 37 168 52 q 168 17 168 33 q 167 -7 167 1 q 172 -20 167 -17 q 196 -22 177 -22 l 204 -22 q 237 -20 222 -22 q 254 -18 252 -18 q 286 -26 273 -18 q 298 -49 298 -33 q 290 -77 298 -71 q 257 -83 282 -83 q 216 -82 249 -83 q 155 -81 182 -81 q 77 -75 104 -81 q 50 -50 50 -70 q 52 -46 50 -46 q 54 -47 52 -46 q 56 -47 55 -47 q 58 -40 58 -47 q 54 8 58 -30 q 50 49 50 45 q 54 69 50 50 q 57 100 57 87 q 58 153 57 126 q 60 187 60 180 q 58 258 60 201 q 56 368 56 316 q 59 459 56 378 q 62 570 62 541 q 63 631 62 607 q 65 667 64 656 q 66 682 66 677 q 63 714 66 693 q 60 743 60 735 q 58 765 60 748 q 57 811 57 783 q 55 948 57 833 q 53 1079 53 1064 q 72 1123 53 1107 q 121 1140 92 1140 q 189 1139 144 1140 q 261 1139 234 1139 q 300 1108 300 1139 q 297 1096 300 1101 q 294 1086 295 1091 q 263 1072 292 1076 q 216 1068 234 1068 q 197 1071 206 1068 q 182 1074 187 1074 z "},"\\":{"ha":661,"x_min":24,"x_max":611,"o":"m 182 962 q 194 923 189 947 q 200 896 199 898 q 212 879 201 893 q 224 860 223 865 q 309 657 302 677 q 317 636 311 648 q 331 611 323 625 q 343 587 339 596 l 378 504 q 388 479 380 498 q 401 450 396 460 q 412 428 406 440 q 422 412 418 416 q 446 368 431 402 q 468 314 461 334 q 519 216 494 247 q 547 150 533 195 q 564 113 552 134 q 583 83 575 93 q 601 46 590 76 q 611 11 611 17 q 594 -7 611 4 q 558 -18 578 -18 q 505 7 536 -16 q 471 52 473 30 q 453 97 468 68 q 436 136 438 125 q 415 185 432 152 q 392 224 397 219 q 374 260 379 234 q 359 301 369 286 q 346 335 357 305 q 325 379 334 365 q 312 417 318 389 q 293 457 307 444 q 258 520 279 471 q 228 581 237 570 q 208 622 218 591 q 189 663 197 653 q 136 769 178 677 q 94 878 94 862 q 87 901 90 889 q 81 921 84 913 q 69 937 77 928 q 60 948 64 943 q 53 958 56 954 q 46 970 50 962 q 41 981 43 977 q 35 995 39 985 q 29 1008 31 1004 q 24 1029 24 1025 q 26 1041 24 1036 q 33 1050 29 1046 q 39 1057 37 1055 q 70 1066 44 1062 q 113 1069 96 1069 q 121 1069 116 1069 l 125 1068 q 154 1015 144 1063 q 169 984 158 1002 q 182 962 180 966 z "},"]":{"ha":378,"x_min":50,"x_max":300,"o":"m 168 1074 q 153 1071 163 1074 q 134 1068 144 1068 q 87 1072 116 1068 q 56 1086 58 1076 q 53 1096 55 1091 q 50 1108 50 1101 q 89 1139 50 1139 q 161 1139 116 1139 q 229 1140 206 1140 l 253 1140 q 286 1134 275 1140 q 297 1107 297 1128 q 295 1046 297 1092 q 293 978 293 1000 q 292 932 293 949 q 290 909 290 914 q 287 880 290 901 q 283 848 283 859 q 284 791 283 844 q 287 673 286 739 q 288 570 288 607 q 291 459 288 541 q 294 368 294 378 q 292 258 294 316 q 290 187 290 201 q 292 153 290 180 q 293 100 293 126 q 296 69 293 87 q 300 49 300 50 q 296 22 300 45 q 292 -12 292 -2 q 296 -32 292 -19 q 300 -50 300 -45 q 273 -75 300 -70 q 195 -81 245 -81 q 134 -82 168 -81 q 93 -83 101 -83 q 60 -77 68 -83 q 52 -49 52 -71 q 64 -26 52 -33 q 96 -18 77 -18 q 113 -20 98 -18 q 146 -22 128 -22 l 154 -22 q 179 -20 175 -22 q 183 -7 183 -18 q 182 17 183 1 q 182 37 182 33 q 186 90 182 52 q 191 142 191 129 q 187 185 191 157 q 183 225 183 213 q 184 241 183 229 q 186 262 186 254 q 184 302 186 275 q 183 342 183 330 q 184 422 183 353 q 186 494 186 490 q 182 566 186 526 q 178 636 178 606 q 179 657 178 650 q 184 819 184 678 l 184 884 q 185 946 184 901 q 186 1026 186 991 q 182 1062 186 1051 q 168 1074 179 1073 z "},"^":{"ha":665,"x_min":58,"x_max":610,"o":"m 325 782 q 310 760 323 781 q 281 720 296 739 q 258 693 267 701 q 240 674 244 681 q 233 653 235 667 q 216 625 231 643 q 197 600 201 607 q 191 582 195 595 q 183 559 187 569 q 175 545 179 549 q 158 521 173 543 q 135 497 142 500 q 110 492 124 492 q 68 515 96 492 q 58 541 58 524 q 71 579 58 564 q 83 602 75 583 q 96 623 92 621 q 112 635 102 623 q 129 660 123 648 q 139 674 132 667 q 155 699 145 682 q 169 723 161 709 q 180 744 176 736 q 191 758 185 752 q 211 793 195 764 q 233 828 226 822 q 268 873 260 849 q 291 907 274 890 q 326 924 309 924 q 357 916 344 924 q 376 895 371 907 q 380 884 377 892 q 386 871 384 876 q 392 860 389 867 q 400 847 396 852 q 408 839 404 842 q 428 815 418 832 q 441 794 437 798 q 460 758 448 788 q 476 725 473 728 q 511 677 493 708 q 529 658 516 670 q 546 637 542 646 q 581 581 564 599 q 610 532 610 555 q 587 501 610 516 q 550 486 565 486 q 510 521 534 486 q 495 539 510 526 q 478 557 480 552 q 479 561 478 558 q 479 564 479 563 q 474 578 479 570 q 465 590 469 587 q 435 629 448 607 q 421 643 431 634 q 408 661 412 652 q 405 673 407 665 q 400 684 402 680 q 394 696 399 688 q 383 714 390 705 q 370 734 380 719 q 355 756 359 749 q 341 770 350 762 q 325 782 333 779 z "},"_":{"ha":958,"x_min":58,"x_max":896,"o":"m 136 -36 l 142 -36 q 184 -33 153 -36 q 222 -29 214 -29 q 235 -31 227 -31 l 244 -31 q 301 -35 264 -35 l 317 -35 q 355 -34 331 -34 q 394 -34 379 -34 q 415 -32 410 -33 q 428 -31 419 -31 q 444 -33 439 -31 q 450 -35 446 -35 q 463 -33 454 -35 q 475 -32 471 -32 l 496 -32 q 558 -36 545 -32 q 590 -39 572 -39 q 620 -38 600 -39 q 647 -37 639 -37 q 671 -39 665 -37 l 682 -39 q 774 -31 703 -39 q 803 -29 779 -29 q 875 -39 860 -29 q 889 -67 883 -46 q 896 -97 896 -87 l 896 -103 q 879 -119 894 -113 q 846 -125 863 -125 l 765 -125 q 718 -127 732 -125 l 713 -127 q 678 -124 704 -127 q 640 -121 652 -121 q 585 -123 625 -121 q 533 -125 544 -125 q 494 -128 520 -125 q 464 -131 467 -131 q 447 -129 461 -131 q 427 -127 433 -127 q 412 -129 416 -127 q 387 -134 405 -134 q 361 -132 378 -134 q 339 -131 344 -131 l 229 -131 q 193 -127 203 -131 q 184 -126 192 -126 q 143 -134 173 -126 q 134 -135 140 -135 q 120 -133 129 -135 q 106 -131 111 -132 q 66 -115 76 -128 q 58 -62 58 -105 q 69 -39 58 -48 q 94 -31 79 -31 q 117 -33 102 -31 q 136 -36 132 -35 z "},"`":{"ha":338,"x_min":53,"x_max":278,"o":"m 57 1227 q 53 1244 53 1234 q 63 1274 53 1256 q 81 1295 74 1291 q 97 1304 85 1299 q 115 1310 109 1310 q 117 1309 116 1310 q 119 1308 119 1308 q 158 1280 150 1297 q 222 1189 220 1194 q 239 1175 225 1185 q 264 1152 252 1164 q 277 1129 275 1139 q 278 1117 278 1122 q 256 1088 278 1090 q 245 1086 253 1086 q 226 1092 237 1086 q 214 1097 215 1097 q 196 1107 208 1099 q 174 1121 185 1116 q 153 1141 164 1126 q 131 1158 142 1156 q 89 1187 115 1164 q 57 1227 64 1210 z "},"a":{"ha":691,"x_min":104,"x_max":587,"o":"m 534 1057 q 555 1047 549 1057 q 566 1017 562 1036 q 576 957 566 986 q 582 920 582 943 q 583 898 582 910 q 583 880 583 885 q 579 851 583 871 q 575 819 575 831 q 576 765 575 810 q 578 694 578 721 q 579 625 578 637 q 587 549 587 562 q 585 525 587 534 q 583 513 583 516 q 587 463 587 469 l 586 441 q 584 390 585 419 q 583 342 583 361 q 584 289 583 328 q 585 233 585 251 q 583 195 585 201 q 581 160 581 182 q 582 126 581 155 q 583 64 583 97 q 582 45 583 52 q 580 30 581 40 q 578 12 579 20 q 574 0 576 4 q 529 -36 568 -10 q 500 -45 514 -45 q 485 -39 491 -45 q 472 -11 472 -22 q 476 5 472 -6 q 479 24 479 16 q 475 40 479 29 q 471 56 471 50 q 471 66 471 57 q 472 88 471 75 q 472 114 472 102 q 469 189 472 155 q 465 235 465 214 q 469 257 465 251 q 473 283 473 261 q 463 311 473 311 q 427 319 446 319 q 402 318 416 319 q 380 316 389 317 q 370 315 371 315 q 360 313 367 315 q 347 310 354 310 q 277 306 292 310 q 266 304 275 306 q 251 301 256 302 q 240 295 245 300 q 235 283 235 290 q 227 237 227 256 q 227 220 227 230 q 228 208 228 211 q 224 189 228 201 q 220 168 220 176 q 221 151 220 164 q 222 127 222 138 q 218 65 222 81 q 212 45 217 57 q 200 31 206 33 q 192 18 195 28 q 187 3 189 7 q 163 -20 175 -20 q 134 5 151 -20 q 118 58 120 24 q 115 113 115 92 q 117 128 115 118 q 119 146 119 138 q 119 161 119 151 q 118 174 118 171 q 117 199 118 176 q 117 240 117 223 q 119 252 117 242 q 121 267 121 262 q 115 281 121 277 q 104 313 104 290 q 113 353 104 331 q 114 368 114 356 q 115 395 115 380 q 115 418 115 410 q 117 500 115 445 q 119 586 119 556 q 121 650 119 626 q 134 742 122 673 q 158 852 146 810 q 205 922 168 884 q 212 928 207 924 q 219 936 217 933 q 224 943 222 938 q 228 951 227 947 q 250 976 229 959 q 288 1000 271 992 q 305 1010 294 1004 q 323 1021 315 1017 q 335 1026 330 1025 q 358 1033 340 1027 q 386 1040 376 1039 q 425 1043 397 1042 q 458 1044 454 1044 q 499 1051 468 1045 q 534 1057 530 1057 m 436 990 q 415 993 428 993 q 351 985 378 993 q 325 970 337 981 q 306 946 313 959 q 296 930 303 941 q 286 912 290 920 q 282 900 282 904 q 278 885 282 896 q 267 860 273 874 q 258 836 261 845 q 255 820 256 828 q 253 805 254 811 q 252 790 253 800 q 252 775 252 781 q 252 745 252 760 q 253 725 253 729 q 246 689 253 719 q 239 643 239 660 l 239 599 q 241 446 239 485 q 243 403 243 435 q 245 364 243 371 q 251 356 248 357 q 262 354 254 354 l 288 354 q 344 356 305 354 q 408 358 383 358 q 441 357 432 358 q 463 383 460 357 q 463 400 463 385 q 464 427 464 416 q 463 452 464 437 q 463 468 463 466 q 462 478 463 470 q 461 493 461 487 q 464 534 461 515 q 457 602 464 549 q 454 653 456 612 q 452 710 453 694 q 456 762 452 727 q 461 815 461 797 q 458 840 461 823 q 456 868 456 857 q 456 887 456 871 q 457 917 457 903 q 455 937 456 921 q 453 960 454 953 q 448 977 452 968 q 436 990 444 987 z "},"b":{"ha":700,"x_min":97,"x_max":637,"o":"m 122 1040 q 174 1044 144 1040 q 204 1047 203 1047 q 227 1045 212 1047 q 248 1043 242 1043 q 268 1046 254 1043 q 292 1050 282 1050 q 347 1041 311 1050 q 403 1032 384 1032 q 505 996 490 1015 q 524 976 509 991 q 550 945 538 960 q 564 921 561 931 q 572 857 572 866 q 570 831 572 847 q 564 803 568 825 q 557 772 560 781 q 544 745 554 764 q 517 707 534 726 q 494 686 510 699 q 469 663 478 673 q 450 646 463 656 q 432 629 438 635 q 427 619 427 623 q 434 608 427 612 q 456 599 441 604 q 479 589 471 595 q 532 550 501 575 q 571 511 564 524 q 578 490 577 501 q 582 476 580 478 q 594 470 583 475 q 604 458 604 466 q 614 419 604 434 q 627 389 624 404 q 632 347 627 376 q 637 300 637 317 q 629 240 637 264 q 615 203 623 221 q 600 173 607 186 q 591 155 593 159 q 565 130 588 147 q 541 110 542 112 q 530 96 538 107 q 515 75 523 84 q 503 64 508 66 q 461 37 479 54 q 432 23 453 31 q 406 11 411 14 q 386 5 400 7 q 355 1 372 3 q 332 -1 338 0 q 267 -7 313 -7 q 212 -3 235 -3 q 177 -5 197 -3 q 150 -7 157 -7 q 132 2 143 -7 q 121 21 121 11 l 121 37 q 120 121 121 52 q 119 224 119 189 q 121 289 119 279 q 122 345 122 307 l 122 392 q 121 480 122 396 q 121 604 121 564 q 124 697 121 645 q 126 771 126 749 q 125 784 126 774 q 123 802 123 794 q 125 819 123 808 q 126 835 126 830 q 127 876 126 852 q 127 908 127 899 q 124 939 126 916 q 122 964 123 962 q 112 977 121 966 q 102 990 103 988 q 97 1011 97 1000 q 122 1040 97 1038 m 252 1002 q 239 998 243 1002 q 234 991 235 995 q 232 981 233 987 l 232 956 q 236 901 232 921 q 237 875 237 895 q 234 795 237 852 q 231 718 231 738 l 231 582 q 236 551 231 551 q 260 561 243 551 q 293 582 278 570 q 303 591 297 585 q 313 599 310 596 q 321 606 317 602 q 329 615 326 610 q 336 625 333 620 q 355 642 342 633 q 375 663 368 651 q 388 680 381 671 q 400 696 395 690 q 407 708 404 702 q 412 721 410 712 q 417 736 414 730 q 425 745 420 742 q 456 844 456 802 q 435 920 456 882 q 420 942 428 932 q 407 955 412 951 q 392 965 403 958 q 379 972 382 971 q 297 999 354 991 q 252 1002 281 1002 m 231 472 q 227 457 227 468 q 227 442 227 454 q 228 421 228 430 l 228 411 q 222 314 228 409 q 227 158 222 202 l 227 58 q 253 43 227 45 q 281 40 260 43 q 315 37 303 37 q 356 47 328 38 q 387 57 385 56 q 437 89 409 64 q 475 121 466 115 q 487 140 479 123 q 504 178 495 157 q 517 207 512 199 q 524 239 524 218 q 520 276 524 251 q 517 311 517 300 q 514 337 517 325 q 508 355 511 349 q 499 369 505 361 q 493 379 494 378 q 478 428 489 387 q 466 460 476 441 q 444 488 455 479 q 430 501 441 490 q 411 518 419 512 q 392 528 402 524 q 363 543 380 531 q 340 554 345 554 q 302 529 317 554 q 282 512 296 518 q 262 500 269 507 q 244 483 255 490 q 231 472 233 476 z "},"c":{"ha":643,"x_min":90,"x_max":567,"o":"m 524 798 q 500 802 508 798 q 490 821 493 807 q 489 832 489 823 q 492 859 489 839 q 494 892 494 878 q 492 912 494 903 q 486 935 490 921 q 481 951 481 948 q 471 971 477 965 q 447 986 465 977 q 418 993 435 993 q 350 966 393 993 q 269 856 301 937 q 261 841 267 850 q 252 823 256 832 q 249 802 249 814 q 241 758 249 783 q 240 746 241 755 q 238 720 239 738 q 237 676 237 703 q 233 614 237 652 q 224 484 224 517 q 225 436 225 481 q 231 397 225 413 q 244 322 234 390 q 266 224 250 288 q 290 149 281 161 q 303 127 294 142 q 320 100 312 112 q 338 83 329 89 q 389 58 378 58 q 428 64 415 58 q 458 90 440 70 q 476 114 465 97 q 489 134 488 132 q 514 199 490 135 q 515 203 514 199 q 517 208 517 207 q 519 213 517 210 q 521 218 520 216 q 524 223 522 220 q 527 227 525 226 q 530 230 528 229 q 534 233 532 232 q 538 233 536 233 q 566 212 566 230 q 566 204 566 210 q 567 196 567 199 q 562 175 567 189 q 555 150 559 168 q 550 127 551 132 q 534 110 548 121 q 515 90 520 98 q 508 78 513 87 q 500 63 503 69 q 491 51 496 58 q 479 39 486 43 q 455 24 469 31 q 437 16 441 18 q 361 -11 392 -11 q 329 -8 360 -11 q 288 0 313 -7 q 253 16 263 8 q 229 30 248 19 q 199 49 210 40 q 162 94 184 60 q 136 144 141 128 q 123 200 128 174 q 112 243 122 208 q 96 319 102 278 q 90 414 90 359 q 100 579 90 460 q 100 595 100 585 q 101 610 100 605 q 102 622 101 615 q 106 635 103 629 q 115 696 115 659 q 127 733 115 723 q 133 744 131 736 q 136 765 134 751 q 142 789 138 779 q 170 856 157 840 q 184 883 173 861 q 201 913 195 906 q 253 968 244 961 q 267 979 256 970 q 286 994 277 987 q 300 1003 294 1000 q 317 1006 303 1005 q 340 1018 330 1008 q 411 1046 368 1046 q 434 1043 425 1046 q 452 1037 444 1041 q 464 1031 460 1032 q 528 993 506 1016 q 539 974 534 985 q 547 949 544 962 q 551 935 551 937 q 552 931 551 934 q 553 928 553 929 q 551 907 553 922 q 549 888 549 892 q 547 831 549 850 q 542 806 546 814 q 524 798 537 798 z "},"d":{"ha":719,"x_min":104,"x_max":629,"o":"m 361 93 q 384 120 369 98 q 414 171 398 142 q 432 201 431 199 q 439 230 437 209 q 452 264 442 250 q 471 314 463 281 q 479 374 478 348 q 486 441 481 414 q 498 656 498 510 q 493 715 498 675 q 486 783 487 755 q 457 897 485 840 q 419 943 449 914 q 372 981 389 971 q 338 992 365 985 q 300 1008 311 1000 q 290 1009 296 1008 q 279 1010 283 1010 q 232 1000 244 1010 q 218 966 218 989 q 219 962 218 965 q 220 958 220 960 q 230 937 220 952 q 239 909 239 922 q 239 866 239 902 q 240 811 240 830 q 241 719 240 766 q 241 667 241 673 q 238 598 241 650 q 233 529 234 547 l 233 510 q 235 442 233 487 q 236 387 236 397 q 229 326 236 373 q 221 268 221 279 q 222 196 221 220 l 222 151 q 224 100 222 117 q 222 63 224 83 q 221 40 221 43 q 228 32 221 32 q 282 41 256 32 q 306 55 292 45 q 338 77 321 64 q 361 93 356 90 m 380 43 q 289 -1 309 1 q 253 -12 279 -3 q 211 -21 227 -21 q 178 -20 197 -20 q 149 -18 159 -19 q 134 -16 139 -18 q 109 35 112 -8 q 104 135 104 85 q 113 212 104 200 q 118 233 118 218 q 115 265 118 245 q 111 288 111 284 q 117 332 117 320 q 115 346 117 336 q 114 366 114 357 q 115 388 114 373 q 117 412 117 404 q 116 438 117 420 q 115 467 115 456 q 119 568 115 537 q 122 629 122 602 q 121 663 122 638 q 121 707 121 687 q 122 771 121 753 q 119 851 122 832 q 115 913 118 859 q 118 946 115 924 q 121 978 121 969 q 119 982 120 979 q 118 986 119 984 q 117 990 117 987 q 117 994 117 992 q 121 1015 117 1001 q 131 1034 125 1027 q 143 1043 137 1040 q 161 1048 149 1045 q 191 1054 178 1054 q 216 1046 201 1054 q 248 1039 231 1039 q 270 1040 257 1039 q 301 1042 282 1042 q 336 1040 321 1042 q 377 1030 351 1038 q 434 1005 403 1023 q 498 958 465 987 q 526 940 507 951 q 550 924 544 930 q 573 886 556 918 q 595 850 589 854 q 604 830 600 846 q 612 792 608 814 q 619 760 616 770 q 629 667 629 730 q 619 465 629 516 q 606 379 609 416 q 599 366 605 372 q 590 353 593 359 q 587 319 587 347 q 585 302 587 307 q 575 282 583 300 q 559 248 568 264 q 541 211 551 231 q 521 180 530 191 q 510 166 517 176 q 497 151 502 157 q 485 136 492 145 q 472 122 477 127 q 461 111 467 117 q 452 103 456 106 q 446 100 448 100 q 411 72 439 99 q 380 43 384 45 z "},"e":{"ha":572,"x_min":97,"x_max":496,"o":"m 113 939 l 113 970 q 114 989 113 983 q 118 1000 115 996 q 127 1004 121 1004 q 165 1010 163 1004 q 178 1021 167 1014 q 204 1028 190 1027 q 289 1038 276 1033 q 354 1043 301 1043 q 382 1044 361 1043 q 415 1044 404 1044 q 440 1043 435 1044 q 464 1033 454 1041 q 473 1013 473 1024 q 470 999 473 1005 q 463 988 467 992 q 450 977 459 985 q 439 970 448 975 q 425 965 431 965 q 411 972 414 965 q 383 985 410 979 q 361 987 372 987 q 323 987 346 987 q 289 986 300 986 q 267 979 275 986 q 257 973 264 978 q 248 965 250 968 q 244 957 246 963 q 241 943 241 951 q 249 880 241 940 q 256 779 256 821 q 254 747 256 757 q 249 652 249 668 q 251 629 250 641 q 253 612 253 618 q 251 597 253 607 q 249 583 249 588 q 251 569 249 580 q 253 547 253 558 q 252 538 253 545 q 252 529 252 532 q 249 482 249 495 q 260 435 249 444 q 292 427 269 427 q 364 428 349 427 q 381 432 368 429 q 406 435 394 435 q 434 429 427 434 q 446 408 441 423 q 447 400 447 406 q 412 383 447 385 l 371 383 q 304 382 309 383 q 277 380 300 380 q 258 374 263 380 q 239 307 239 349 q 241 257 239 288 q 243 215 243 227 l 243 200 q 236 115 236 134 q 237 106 236 113 q 237 93 237 100 q 237 79 237 88 q 236 66 236 69 q 239 56 236 58 q 264 50 241 53 q 302 47 286 47 q 327 45 310 47 q 353 43 344 43 q 371 46 357 43 q 388 50 377 48 q 408 54 399 51 q 425 62 417 56 q 445 76 433 68 q 463 89 456 83 q 475 94 471 94 q 489 74 487 94 q 493 51 490 66 q 496 31 496 36 q 493 21 496 24 q 482 15 490 18 q 459 7 475 12 q 439 1 443 3 q 400 -1 431 -1 q 336 -4 352 -1 q 311 -7 320 -7 q 282 -5 301 -7 q 254 -4 263 -4 q 176 -7 187 -4 q 143 -12 145 -12 q 129 -9 133 -12 q 122 -1 124 -7 q 118 17 120 5 q 113 37 115 29 q 111 46 111 40 q 120 58 111 53 q 129 69 129 64 q 122 119 129 73 q 115 214 115 172 q 116 230 115 219 q 117 245 117 240 q 118 298 118 267 q 115 332 118 328 q 97 376 97 362 q 98 382 97 380 q 110 397 101 387 q 119 411 119 408 q 117 449 119 423 q 114 489 114 475 q 118 524 114 507 q 125 628 125 551 q 122 679 125 663 q 118 754 118 699 l 118 783 q 117 818 117 790 q 115 854 117 845 q 113 939 113 879 z "},"f":{"ha":562,"x_min":104,"x_max":500,"o":"m 107 1000 q 117 1024 107 1011 q 138 1039 126 1036 q 191 1047 174 1047 q 210 1044 204 1047 q 246 1034 224 1038 q 279 1029 269 1029 q 304 1029 283 1029 q 336 1028 325 1028 q 450 1026 425 1028 q 484 1018 475 1025 q 500 989 500 1004 q 498 981 500 983 q 471 961 491 961 l 389 966 q 355 964 385 966 q 300 962 325 962 q 248 920 251 962 q 243 866 247 906 q 238 792 240 827 q 236 734 236 757 q 237 704 236 723 q 237 677 237 685 q 229 635 237 643 q 221 608 221 625 q 224 589 221 597 q 228 581 224 586 q 233 568 231 575 q 235 551 235 562 q 232 439 235 450 q 231 424 231 435 q 237 399 231 404 q 292 390 250 390 q 351 397 329 390 q 396 403 364 403 q 408 402 400 403 q 418 401 415 401 q 432 393 427 401 q 437 376 437 385 q 431 362 437 368 q 417 354 424 356 q 399 349 410 351 q 386 346 388 347 q 367 343 379 343 q 356 344 361 343 q 345 347 351 345 q 336 349 339 348 q 331 349 336 349 q 322 350 326 350 q 262 346 303 350 q 245 343 251 345 q 233 335 239 342 q 227 315 227 328 q 216 192 222 224 q 210 146 210 155 q 211 131 210 136 q 215 92 213 119 q 218 60 217 65 q 228 42 220 54 q 236 25 236 30 q 222 6 236 18 q 193 -9 209 -5 q 140 -18 151 -18 q 117 -8 127 -18 q 106 16 107 3 q 104 89 104 33 q 109 107 104 97 q 113 123 113 117 q 111 135 113 131 q 107 164 107 153 q 108 180 107 168 q 109 203 109 193 q 112 279 109 224 q 115 338 115 334 q 118 356 115 341 q 121 380 121 370 q 119 397 121 392 q 114 437 114 420 q 115 445 114 441 q 115 450 115 449 q 116 480 116 454 q 117 530 116 506 q 119 557 117 555 q 121 566 121 558 q 119 584 121 569 q 118 610 118 600 q 121 650 118 623 q 123 681 123 677 q 120 710 123 692 q 117 734 117 728 q 115 758 115 741 q 116 792 115 766 q 117 842 117 819 q 123 933 117 906 q 133 948 125 937 q 140 964 140 958 q 136 972 140 968 q 124 981 132 977 q 113 988 117 984 q 107 1000 109 992 z "},"g":{"ha":732,"x_min":90,"x_max":656,"o":"m 585 815 q 551 808 576 808 q 530 812 534 808 q 526 829 526 817 q 533 863 526 849 q 538 888 538 872 q 537 894 538 890 q 536 901 536 899 q 539 911 536 902 q 542 928 542 921 q 538 946 542 938 q 529 958 534 954 q 513 971 524 963 q 439 991 487 991 q 358 957 404 991 q 324 925 341 945 q 302 896 307 906 q 294 879 302 895 q 280 847 286 862 q 272 822 274 833 q 260 791 270 810 q 250 764 251 772 q 233 697 247 730 q 221 543 221 668 q 224 508 221 532 q 227 469 227 484 q 224 431 227 462 q 222 386 222 401 q 228 342 222 358 q 238 297 233 327 q 250 252 243 268 q 285 154 281 176 q 306 104 290 130 q 346 61 321 77 q 384 43 367 47 q 433 40 401 40 q 504 65 479 40 q 547 114 509 71 q 551 134 551 120 q 551 152 551 139 q 550 171 550 165 q 551 191 550 185 q 558 218 553 198 q 567 257 564 239 q 570 293 570 275 q 557 353 570 353 l 545 353 q 510 347 524 353 q 464 328 509 347 q 449 326 461 326 l 421 328 q 412 380 412 359 q 419 397 412 397 q 485 400 441 400 q 521 399 507 400 q 545 404 529 399 q 578 408 562 408 q 629 395 603 406 q 656 374 656 385 q 651 327 654 368 q 646 273 649 286 q 643 243 643 265 q 639 215 643 233 q 621 170 634 198 q 606 136 607 142 q 592 114 604 130 q 570 78 579 98 q 554 51 562 61 q 533 32 546 41 q 518 21 519 22 q 484 0 506 11 q 443 -16 461 -12 q 408 -18 427 -18 q 381 -18 399 -18 q 355 -17 363 -17 l 335 -17 q 315 -14 326 -17 q 295 -6 303 -10 q 276 3 287 -3 q 261 9 264 8 q 227 35 251 14 q 199 60 203 56 q 173 84 186 68 q 153 113 159 100 q 144 132 150 118 q 133 155 138 145 q 125 167 128 164 q 107 222 119 171 q 96 300 96 273 q 93 350 96 313 q 90 406 90 387 q 95 518 90 449 q 103 604 100 587 q 125 660 107 626 q 132 691 130 671 q 140 733 134 711 q 187 843 153 780 q 200 860 193 854 q 211 867 207 866 l 215 867 q 243 926 227 899 q 286 964 258 954 q 288 964 287 964 q 290 965 290 965 q 308 979 297 968 q 336 997 319 989 q 391 1030 371 1012 l 392 1032 q 456 1042 420 1042 q 478 1040 471 1042 q 550 1013 517 1034 q 603 962 591 986 q 618 900 618 928 q 616 887 618 893 q 612 872 615 880 q 608 856 610 863 q 600 830 604 838 q 585 815 595 823 z "},"h":{"ha":709,"x_min":104,"x_max":606,"o":"m 109 914 l 109 892 q 112 967 109 943 q 120 1000 115 991 q 138 1010 126 1009 q 153 1014 148 1010 q 164 1025 159 1018 q 171 1035 169 1033 q 179 1038 174 1038 q 196 1031 186 1038 q 210 1015 205 1024 q 227 913 227 980 q 222 853 227 889 q 216 807 217 817 q 219 772 216 793 q 222 742 222 751 q 220 722 222 728 q 210 677 210 694 q 211 665 210 669 q 220 550 220 621 q 218 524 220 530 q 216 486 216 509 q 224 411 216 416 q 264 397 237 397 q 281 399 274 397 q 336 405 292 401 q 413 414 379 410 q 453 422 447 419 q 479 467 479 437 q 479 471 479 468 q 478 475 478 473 q 473 558 473 505 q 475 596 473 589 q 477 632 476 607 q 479 672 478 657 q 487 713 481 684 q 493 757 493 742 q 492 771 493 767 q 490 789 490 777 q 493 823 490 796 q 496 873 496 849 q 501 964 496 913 q 508 996 503 986 q 528 1015 513 1006 q 546 1029 535 1020 q 564 1043 556 1038 q 578 1048 572 1048 q 597 1028 589 1048 q 604 977 604 1008 l 604 860 q 605 838 604 851 q 606 819 606 825 q 603 789 606 813 q 597 735 601 772 q 593 688 594 698 q 589 567 589 647 q 589 536 589 559 q 590 497 590 514 q 588 452 590 480 q 586 412 586 423 q 582 335 586 390 q 578 262 578 279 q 579 244 578 248 q 587 210 587 213 q 585 197 587 205 q 581 161 581 189 l 581 132 q 583 99 581 126 q 585 60 585 71 q 584 53 585 57 q 583 47 583 49 q 572 27 582 41 q 554 -3 562 14 q 546 -17 550 -11 q 539 -26 542 -23 q 532 -33 536 -30 q 526 -36 528 -35 q 519 -39 524 -37 q 513 -41 514 -41 q 511 -42 512 -41 q 509 -43 509 -43 q 492 -27 500 -43 q 484 7 484 -11 q 479 33 484 19 q 475 57 475 47 q 475 80 475 64 q 476 104 476 96 q 468 210 476 184 q 464 244 464 219 q 465 269 464 253 q 465 290 465 285 q 458 351 465 341 q 443 354 456 354 q 386 351 431 354 q 315 347 340 347 q 294 348 307 347 q 277 349 281 349 q 239 347 250 349 q 221 341 224 346 q 216 311 217 336 q 214 274 216 301 q 212 228 212 248 q 213 177 212 198 q 213 147 213 157 q 214 134 214 137 q 212 105 214 123 q 211 79 211 87 q 210 65 211 69 q 189 17 200 29 q 179 0 186 13 q 163 -16 172 -14 q 144 -18 152 -18 q 118 -9 127 -18 q 113 8 115 -6 q 110 44 111 22 q 107 77 109 66 q 106 106 106 82 q 108 185 106 132 q 110 243 110 237 l 110 248 q 114 297 110 277 q 115 309 114 299 q 117 329 117 319 q 114 364 117 351 q 110 401 110 387 q 111 424 110 410 q 113 447 113 438 q 109 484 113 461 q 104 518 104 507 q 109 580 104 524 q 113 665 113 636 q 110 699 113 682 q 107 725 107 715 q 109 759 107 734 q 111 806 111 784 q 109 914 109 846 z "},"i":{"ha":361,"x_min":118,"x_max":243,"o":"m 136 972 q 143 1003 138 994 q 160 1019 147 1013 q 177 1036 168 1023 q 195 1050 186 1048 q 197 1050 195 1050 q 200 1051 199 1051 q 220 1041 211 1051 q 233 1010 229 1030 q 237 990 235 1002 q 241 975 240 979 q 242 962 241 971 q 243 940 243 953 l 243 890 q 237 818 243 838 q 224 725 224 760 q 228 632 224 669 q 232 471 232 595 q 231 392 232 445 q 231 322 231 338 q 232 278 231 300 q 233 252 233 256 q 231 227 233 235 q 227 192 227 206 q 227 173 227 186 q 228 154 228 160 q 223 123 228 142 q 218 98 218 103 q 221 81 219 91 q 222 66 222 71 q 220 47 222 54 q 215 38 218 43 q 209 29 212 33 q 200 20 206 25 q 191 12 194 14 q 180 3 188 9 q 170 -5 172 -3 q 159 -14 164 -9 q 152 -21 154 -18 q 146 -25 149 -23 q 142 -26 144 -26 q 121 24 121 -26 l 121 52 q 119 108 121 71 q 118 155 118 145 q 123 330 118 241 q 124 349 123 336 q 125 367 125 361 q 123 396 124 384 q 122 414 123 409 q 122 422 122 419 q 124 444 122 431 q 126 464 126 457 q 124 494 126 473 q 121 526 121 514 l 121 549 q 125 705 121 693 q 127 739 127 719 q 127 761 127 745 q 126 786 126 777 q 132 821 126 800 q 138 852 138 842 q 133 880 138 863 q 129 905 129 897 q 132 942 129 919 q 136 972 136 966 z "},"j":{"ha":490,"x_min":49,"x_max":386,"o":"m 256 972 q 273 1017 256 1013 q 321 1044 307 1025 q 345 1054 328 1054 q 380 1042 368 1054 q 383 1031 383 1039 q 382 1015 383 1027 q 380 993 380 1002 q 382 974 380 981 q 385 930 385 947 l 385 857 q 386 823 386 846 q 383 745 386 795 q 380 706 382 733 q 378 667 378 678 q 379 652 378 656 q 383 558 383 633 q 380 510 383 541 q 378 467 378 479 q 380 404 380 414 q 374 353 380 363 q 360 286 366 339 q 346 211 355 232 q 317 158 335 186 q 297 126 299 130 q 272 97 293 117 q 245 68 252 77 q 219 41 237 54 q 189 22 202 27 q 156 9 184 20 q 121 -4 127 -3 q 97 -5 115 -5 q 64 1 68 -5 q 58 9 63 2 q 51 21 54 16 q 49 32 49 26 q 58 49 49 41 q 79 56 66 56 q 99 51 87 56 q 117 46 111 47 q 126 44 120 45 q 134 43 132 43 q 153 53 138 43 q 199 93 164 60 q 239 167 228 121 q 248 207 248 202 q 250 260 248 243 q 253 287 252 272 q 255 309 254 301 q 260 322 256 317 q 271 351 271 336 q 258 511 271 383 q 257 546 257 521 q 259 612 257 567 q 261 672 261 657 q 260 684 261 677 q 260 692 260 690 q 258 783 258 714 q 258 803 258 791 q 257 821 257 815 q 256 900 257 850 q 256 972 256 950 z "},"k":{"ha":680,"x_min":104,"x_max":619,"o":"m 119 986 q 126 1003 119 996 q 145 1016 134 1010 q 160 1025 157 1021 q 214 1057 198 1057 q 240 1021 239 1057 q 241 997 240 1012 q 241 975 241 983 q 241 950 241 968 q 240 920 240 932 q 239 869 239 893 q 240 840 239 852 q 241 804 241 828 q 240 746 241 770 q 234 707 239 730 q 228 667 228 684 q 231 628 228 652 q 235 589 235 604 q 233 570 235 576 q 230 531 233 561 q 224 476 227 502 q 222 429 222 450 q 224 404 222 411 q 219 365 224 381 q 214 347 214 349 q 215 339 214 342 q 229 269 228 313 q 224 225 229 250 q 220 189 220 201 q 220 182 220 187 q 221 175 221 178 q 225 97 225 134 l 225 78 q 208 21 222 35 q 146 -11 176 -11 q 113 14 113 -11 l 113 46 q 111 71 113 61 q 106 129 106 110 q 108 155 106 138 q 110 183 110 172 q 104 248 104 210 q 109 441 109 284 q 107 532 107 461 q 110 587 107 583 q 113 606 113 591 q 110 644 113 625 q 106 684 106 677 q 106 690 106 686 q 107 696 107 694 q 115 848 108 699 q 119 907 119 903 q 117 929 119 918 q 115 940 115 933 q 117 960 115 945 q 119 986 119 975 m 503 986 q 526 1025 508 1005 q 553 1047 543 1045 q 557 1048 554 1047 q 561 1048 559 1048 q 577 1044 570 1048 q 585 1032 585 1040 q 577 1000 585 1023 q 567 966 569 978 q 558 936 564 954 q 541 896 551 919 q 526 863 530 872 q 508 818 524 856 q 479 753 492 779 q 458 720 467 727 q 441 702 445 707 q 436 688 438 697 q 434 677 435 684 q 432 662 434 670 q 422 643 429 654 q 383 567 408 618 q 375 540 378 557 q 370 509 372 523 q 368 494 368 495 q 377 467 368 486 q 393 443 386 448 q 398 440 395 441 q 402 438 401 439 q 406 434 404 437 q 410 427 408 432 q 414 415 412 422 q 440 357 433 363 q 463 324 446 353 q 485 290 480 295 q 502 253 491 284 q 515 218 513 222 q 534 186 519 215 q 557 147 549 158 q 569 132 559 143 q 584 111 578 120 q 600 83 591 102 q 616 43 609 65 q 598 13 619 34 q 558 -8 578 -8 q 524 -2 536 -8 q 501 18 511 3 q 447 109 480 45 q 431 134 439 123 q 413 153 422 144 q 400 165 403 163 q 390 187 396 171 q 372 218 384 203 q 356 250 361 233 q 345 271 350 267 q 332 285 339 275 q 319 300 326 295 q 308 331 315 304 q 290 368 301 357 q 275 384 280 378 q 267 398 271 389 q 264 416 264 406 q 265 431 264 425 q 269 447 267 439 q 276 463 272 455 q 283 474 280 470 q 290 485 286 479 q 296 493 295 492 q 322 551 304 505 q 345 594 327 562 q 368 637 363 626 q 377 653 372 646 q 385 667 382 661 q 387 681 387 672 q 396 704 389 692 q 407 725 404 715 q 437 817 424 785 q 471 896 464 881 q 503 986 484 924 z "},"l":{"ha":574,"x_min":104,"x_max":513,"o":"m 136 997 q 140 1009 136 1004 q 153 1018 144 1013 q 165 1026 161 1023 q 208 1044 189 1044 q 231 1023 220 1044 q 243 989 241 1002 q 247 966 243 983 q 253 933 251 949 q 256 905 256 917 q 254 800 256 817 q 249 759 253 788 q 244 717 244 729 q 242 671 244 694 q 240 640 240 648 q 242 602 240 632 q 244 549 244 572 q 243 509 244 522 q 228 340 235 402 q 220 214 220 279 q 221 127 221 200 q 220 111 221 122 q 220 96 220 100 q 228 72 220 77 q 239 67 233 69 q 258 64 245 66 q 282 60 271 62 q 330 56 300 56 q 367 53 359 55 q 390 50 380 50 q 421 57 411 50 q 481 72 450 72 q 502 67 495 72 q 511 47 508 62 q 512 44 511 46 q 513 40 513 41 q 482 12 513 23 q 445 6 470 8 q 406 1 420 4 q 383 -1 389 -1 q 356 1 374 -1 q 328 3 338 3 q 306 2 316 3 q 294 1 296 1 q 260 3 285 1 q 215 4 235 4 q 178 1 188 1 q 157 4 162 1 q 137 8 153 5 q 114 18 121 12 q 106 36 106 24 q 106 71 106 44 q 107 113 107 98 q 106 147 107 138 q 105 158 106 150 q 104 170 104 165 q 110 264 104 205 q 111 270 110 266 q 111 275 111 273 q 118 312 113 292 q 123 343 123 333 q 123 357 123 350 q 122 367 122 365 q 123 391 122 374 q 125 415 125 407 q 124 425 125 416 q 123 446 123 433 q 125 519 123 463 q 127 597 127 575 q 127 612 127 604 q 126 623 126 621 q 125 633 126 626 q 125 643 125 640 q 129 689 125 667 q 136 714 132 712 q 139 717 139 714 q 135 729 139 719 q 131 745 131 739 q 134 770 131 753 q 136 796 136 788 q 135 810 136 806 q 129 868 129 840 q 131 899 129 882 q 136 997 136 979 z "},"m":{"ha":1012,"x_min":90,"x_max":922,"o":"m 193 993 q 218 1039 200 1021 q 244 1053 232 1053 q 281 1022 266 1053 q 330 903 322 943 q 350 840 334 887 q 366 791 366 792 q 368 782 367 786 q 371 775 370 778 q 372 771 372 773 q 373 769 373 770 q 374 768 374 768 q 374 766 374 767 q 380 697 374 720 q 391 678 385 686 q 401 654 397 670 q 410 616 410 631 l 408 610 q 413 603 408 609 q 424 589 418 597 q 431 575 429 581 q 438 545 431 570 q 447 510 446 520 q 471 412 448 507 q 494 351 475 392 q 513 302 512 311 q 519 268 513 291 q 528 240 525 245 q 547 265 533 240 q 568 315 562 290 q 590 403 589 397 q 602 432 591 410 q 612 467 612 454 q 625 545 615 510 q 633 572 627 551 q 642 605 638 592 q 648 619 646 618 q 657 646 651 621 q 667 671 663 671 q 669 688 669 671 q 668 697 669 694 q 684 757 668 712 q 707 804 700 798 q 714 829 710 808 q 718 857 718 850 q 730 899 718 865 q 737 911 732 905 q 744 926 741 918 q 749 947 747 934 q 749 953 749 949 q 750 958 750 957 q 748 975 750 966 q 746 986 746 983 q 750 997 746 991 q 800 1046 781 1039 q 802 1046 801 1046 q 804 1047 804 1047 q 827 1030 816 1047 q 844 990 838 1014 q 857 901 857 945 q 867 822 857 850 q 872 789 871 810 q 875 760 873 768 q 884 676 884 711 q 887 606 884 652 q 890 542 890 560 q 888 510 890 526 q 885 488 885 494 q 889 462 885 475 q 895 443 894 448 q 900 425 895 438 q 905 393 905 412 q 905 383 905 391 q 904 371 904 376 q 903 336 903 359 q 904 295 903 323 q 905 245 905 267 q 909 215 905 233 q 913 183 913 197 q 911 122 911 133 l 911 90 q 917 63 911 81 q 922 39 922 45 q 898 -1 919 22 q 863 -24 878 -24 q 839 -11 856 -24 q 828 0 832 -5 q 821 11 823 5 q 818 21 819 17 q 815 34 817 25 q 812 47 814 43 q 808 104 808 64 q 803 191 806 153 q 796 247 799 228 q 793 273 793 265 l 793 326 q 787 427 793 403 q 782 496 782 453 q 783 528 782 509 q 783 549 783 547 q 777 617 783 555 q 771 692 771 679 q 772 706 771 696 q 772 721 772 716 q 772 736 772 726 q 771 751 771 746 q 770 775 770 760 q 770 802 770 790 q 768 817 770 813 l 762 804 q 755 787 760 800 q 732 729 738 741 q 719 709 726 719 q 708 694 711 700 q 704 677 705 688 q 704 662 704 672 q 703 647 703 652 q 701 635 703 642 q 696 621 699 627 q 686 596 692 612 q 675 561 681 580 q 667 533 669 541 q 659 490 664 524 q 646 435 654 456 q 608 328 620 371 q 598 284 607 322 q 583 229 589 245 q 568 183 577 214 q 555 143 559 153 q 554 135 554 140 q 561 118 554 130 q 567 97 567 106 l 567 64 q 550 33 567 43 q 531 17 543 27 q 513 2 520 6 q 497 -3 506 -3 q 481 -1 487 -3 q 469 5 475 0 q 457 22 462 10 q 450 53 453 34 q 424 158 445 87 q 399 239 404 229 q 372 304 398 240 q 366 332 370 312 q 359 361 362 353 q 352 388 357 369 q 345 418 348 407 q 325 497 326 475 q 326 516 325 507 q 328 526 328 525 q 321 539 328 534 q 312 563 313 546 q 306 589 311 579 q 293 635 300 600 q 282 679 286 670 q 275 705 279 688 q 270 738 272 722 q 268 754 268 753 q 243 815 264 774 q 239 819 241 819 q 236 818 237 819 q 233 813 235 816 q 231 806 232 810 q 229 796 230 802 q 226 786 227 791 q 224 774 225 781 q 222 763 223 768 q 220 751 221 758 q 218 741 219 745 q 210 642 210 694 l 210 607 q 207 578 210 590 q 196 511 196 533 q 198 479 197 499 q 200 453 200 460 q 191 359 200 385 q 185 342 187 349 q 183 325 184 336 q 180 306 182 314 q 179 286 179 299 l 179 271 q 175 235 179 250 q 155 125 164 190 q 144 25 148 70 q 143 8 144 17 q 143 -2 143 0 q 142 -8 144 -5 q 139 -15 141 -12 q 131 -22 136 -18 q 107 -35 119 -35 q 93 -20 95 -35 q 90 9 90 -3 q 98 78 90 42 q 106 155 106 116 l 106 174 q 110 206 106 181 q 114 245 114 231 q 113 262 114 257 q 111 281 111 269 q 115 308 111 292 q 121 335 119 325 q 130 370 122 344 q 138 410 138 396 q 136 422 138 418 q 135 436 135 425 q 147 569 135 465 q 160 685 159 672 q 164 734 161 706 q 168 775 168 763 q 173 821 168 788 q 179 867 178 853 q 193 993 183 954 z "},"n":{"ha":830,"x_min":104,"x_max":726,"o":"m 107 1007 q 130 1036 111 1024 q 165 1048 150 1047 q 205 1034 180 1048 q 244 1002 229 1019 q 273 955 255 989 q 293 916 290 920 q 310 891 297 909 q 331 859 323 873 q 340 836 339 845 q 351 805 342 825 q 359 785 359 785 q 434 625 370 753 q 501 475 498 496 q 512 439 505 450 q 519 427 519 427 q 532 378 528 401 q 547 340 533 368 q 564 304 561 313 q 599 232 577 263 q 619 178 612 213 q 627 160 621 170 q 635 151 632 151 q 637 157 637 151 q 644 250 644 195 q 645 304 644 269 q 646 349 646 339 q 651 378 646 358 q 656 407 656 397 q 654 418 656 414 q 650 465 650 433 l 650 490 q 654 517 650 499 q 659 549 659 536 q 657 567 659 560 q 654 604 654 589 q 660 710 654 610 q 655 784 660 728 q 650 847 650 840 q 648 899 648 861 q 650 942 648 934 q 664 1019 654 998 q 670 1040 668 1028 q 675 1058 672 1052 q 688 1068 678 1065 q 694 1069 690 1069 q 715 1054 707 1069 q 726 1019 724 1039 q 723 977 726 1004 q 720 933 720 949 q 722 859 722 867 q 720 811 722 829 q 717 766 717 794 q 721 693 717 752 l 721 671 q 720 623 721 642 q 719 562 719 614 q 717 457 718 510 q 713 385 715 405 q 709 293 710 363 q 705 204 709 222 q 700 129 700 179 q 703 106 700 123 q 705 78 705 89 q 689 -7 701 22 q 660 -32 680 -32 q 648 -31 654 -32 q 640 -31 642 -31 q 587 -21 601 -31 q 538 37 556 3 q 505 108 530 50 q 478 171 480 166 q 446 250 467 195 q 425 317 426 304 q 425 323 425 319 q 425 329 425 327 q 424 334 425 330 q 423 338 424 337 q 422 342 422 340 q 420 346 421 345 q 418 350 420 348 q 415 354 417 352 q 409 360 413 356 q 403 367 405 365 q 399 375 401 369 q 393 390 396 381 q 362 451 389 405 q 332 501 334 496 q 318 543 326 512 q 301 582 310 573 q 275 636 283 600 q 271 650 275 638 q 265 673 267 662 q 262 693 262 684 q 260 705 262 699 q 252 718 257 710 q 243 734 246 726 q 236 752 239 743 q 231 768 233 762 q 222 782 228 774 q 217 796 220 786 q 210 813 214 806 q 199 821 205 821 q 184 807 191 821 q 178 766 178 794 q 179 644 179 701 q 182 597 179 625 q 184 564 184 570 q 178 497 184 530 q 176 485 176 493 q 178 467 176 479 q 180 446 180 454 q 172 396 179 429 q 165 350 165 363 q 168 332 165 342 q 180 235 180 289 l 180 212 q 184 176 180 201 q 187 143 187 151 q 180 61 187 81 q 179 48 179 58 q 175 29 178 38 q 161 11 171 20 q 148 -9 153 3 q 140 -28 142 -21 q 132 -35 137 -35 q 116 -22 121 -35 q 110 26 111 -9 q 113 72 110 51 q 117 98 117 92 q 115 115 117 105 q 114 127 114 124 q 115 144 114 133 q 115 160 115 155 q 113 178 115 172 q 110 243 110 186 q 109 272 109 252 q 113 328 109 281 q 116 353 114 337 q 119 378 119 368 q 120 389 119 380 q 121 404 121 397 q 114 500 121 451 q 110 555 110 526 q 114 629 110 574 q 125 689 119 680 q 130 695 125 690 q 134 705 134 701 q 126 724 134 712 q 113 754 116 739 q 107 803 109 768 q 109 857 107 818 q 111 914 111 897 q 107 964 111 943 q 104 989 104 985 q 107 1007 104 994 z "},"o":{"ha":741,"x_min":90,"x_max":652,"o":"m 436 1044 q 457 1046 443 1046 q 524 1028 501 1046 q 589 956 578 973 q 603 924 593 945 q 618 893 613 902 q 623 883 618 891 q 630 869 627 874 q 635 856 632 864 q 640 838 638 847 q 643 818 642 828 q 652 631 652 689 q 642 496 652 561 q 637 417 637 468 q 629 347 637 366 q 621 323 625 335 q 616 303 618 311 q 611 279 614 295 q 606 250 608 262 q 577 163 597 210 q 528 85 557 117 q 496 56 510 64 q 475 44 482 47 q 463 36 467 42 q 454 26 458 31 q 447 18 450 20 q 440 12 445 15 q 429 5 436 9 q 415 -2 425 3 q 399 -12 406 -8 q 379 -18 392 -15 q 351 -21 366 -21 q 268 4 323 -21 q 243 17 256 9 q 224 31 230 26 q 204 49 218 36 q 191 62 191 62 q 153 123 165 88 q 135 165 146 140 q 121 204 123 190 q 116 246 120 208 q 107 302 112 284 q 94 374 96 353 q 90 463 90 441 q 94 504 90 494 l 103 532 q 98 583 98 558 q 99 593 98 587 q 100 602 100 599 q 108 640 100 618 q 117 668 115 662 q 149 791 122 711 q 210 899 165 849 q 283 965 260 955 q 334 1000 317 980 q 378 1027 342 1013 q 436 1044 413 1042 m 441 981 q 423 975 435 981 q 404 970 411 970 q 390 972 400 970 q 371 974 380 974 q 342 962 351 974 q 311 923 331 951 q 283 879 290 894 q 274 854 282 874 q 261 815 267 835 q 253 779 255 796 q 236 675 243 705 q 227 632 228 645 q 225 576 225 618 q 227 537 225 552 q 230 509 228 522 q 233 485 233 496 q 252 368 238 422 q 259 317 255 352 q 268 268 262 283 q 278 221 273 253 q 285 184 283 189 q 307 146 291 171 q 338 110 323 122 q 358 88 346 103 q 383 65 371 73 q 412 57 395 57 q 435 61 422 57 q 444 65 439 62 q 450 70 448 68 q 457 77 453 72 q 463 83 461 81 q 469 91 465 85 q 475 98 473 97 q 498 115 486 115 q 518 161 505 115 q 536 194 519 168 q 554 231 553 220 q 553 246 554 234 q 553 265 553 258 q 561 297 553 289 q 565 301 562 298 q 569 305 568 304 q 573 309 570 307 q 576 314 575 312 q 579 320 577 317 q 582 329 581 324 q 584 340 583 334 q 586 354 585 346 q 589 415 589 375 q 591 475 589 454 q 595 513 595 505 q 594 537 595 522 q 593 559 593 552 q 595 589 593 574 q 600 619 596 604 q 603 644 603 635 q 602 660 603 654 q 597 704 600 671 q 591 763 594 736 q 586 796 589 789 q 564 863 571 833 q 552 892 559 883 q 530 913 545 901 q 509 939 525 918 q 484 968 493 961 q 441 981 467 981 z "},"p":{"ha":690,"x_min":104,"x_max":628,"o":"m 118 1006 q 122 1015 119 1010 q 132 1022 125 1019 q 144 1028 138 1025 q 158 1034 149 1030 q 172 1039 168 1037 q 237 1047 193 1047 q 326 1048 276 1047 q 385 1050 376 1050 q 505 1036 450 1050 q 529 1027 517 1034 q 550 1013 540 1021 q 562 1004 561 1005 q 576 982 568 1000 q 587 960 584 964 q 619 901 609 928 q 628 827 628 881 q 612 751 628 774 q 600 720 604 740 q 590 692 595 701 q 569 643 581 679 q 545 593 556 607 q 532 577 538 585 q 523 566 526 569 q 514 556 520 562 q 498 543 508 551 q 460 509 469 520 q 450 494 456 503 q 406 452 431 466 q 390 435 401 449 q 367 415 379 422 q 347 402 359 411 q 327 387 336 393 q 307 382 317 382 q 287 389 296 382 q 278 404 278 395 q 285 421 278 414 q 358 486 319 460 q 375 493 366 491 q 391 496 385 494 q 397 503 396 497 q 416 567 410 559 q 475 644 467 628 q 505 729 499 694 q 510 781 510 753 q 496 863 510 828 q 483 901 490 878 q 470 937 476 924 q 453 958 464 950 q 438 970 450 961 q 421 983 426 980 q 407 990 417 986 q 387 997 397 995 q 345 1004 371 1000 q 310 1008 319 1007 q 292 1010 303 1010 q 256 993 267 1010 q 252 974 252 985 q 245 956 252 969 q 239 935 239 943 q 245 922 239 931 q 252 909 252 913 q 244 737 252 883 q 239 703 243 726 q 235 664 235 680 q 237 627 235 650 q 239 591 239 604 q 236 559 239 584 q 225 390 225 493 q 231 306 225 349 q 233 262 233 279 q 232 220 233 249 q 231 176 231 192 q 232 141 231 163 q 233 111 233 119 q 225 78 233 86 q 213 66 221 73 q 201 54 205 60 q 195 39 197 48 q 182 4 191 20 q 160 -16 173 -12 q 156 -16 159 -16 q 153 -17 154 -17 q 121 -5 137 -17 q 104 20 104 7 q 106 48 104 26 q 107 98 107 70 q 110 149 107 119 q 113 189 113 180 q 110 210 113 199 q 107 286 107 218 q 106 298 107 287 q 106 319 106 309 q 109 478 106 385 q 117 575 113 572 q 123 618 123 582 q 119 632 123 623 q 114 647 114 642 q 123 683 114 665 q 132 708 132 701 q 128 727 132 713 q 122 755 124 742 q 118 807 119 772 q 115 859 117 842 q 120 902 115 880 q 125 930 125 923 q 118 1006 118 1003 z "},"q":{"ha":804,"x_min":90,"x_max":714,"o":"m 403 1040 q 481 1063 448 1063 q 502 1058 491 1062 q 520 1051 513 1055 q 542 1040 527 1048 q 564 1028 556 1032 q 595 1005 579 1021 q 625 970 610 989 q 644 946 640 951 q 674 895 657 934 q 697 828 690 857 q 710 681 710 773 q 712 642 710 669 q 714 600 714 615 q 713 571 714 581 q 709 552 711 561 q 708 539 708 543 q 707 533 707 536 q 706 529 706 530 q 705 528 706 528 q 704 521 705 527 q 703 503 704 515 q 699 478 701 491 q 694 440 696 469 q 686 383 691 410 q 671 340 681 356 q 646 267 648 304 q 637 210 646 226 q 622 193 637 207 q 603 170 606 180 q 598 150 600 163 q 594 129 597 138 q 585 115 591 119 q 573 105 577 111 q 567 95 568 99 q 562 82 565 91 q 536 43 551 56 q 519 39 533 40 q 496 32 505 39 q 483 16 490 26 q 471 3 477 5 q 457 -2 470 2 q 434 -12 444 -7 q 424 -20 424 -17 q 434 -47 424 -28 q 460 -79 445 -66 q 486 -105 475 -93 q 503 -122 497 -117 q 549 -160 513 -132 q 600 -170 562 -170 q 616 -178 607 -170 q 625 -196 625 -186 q 617 -216 625 -205 q 596 -233 608 -227 q 559 -245 583 -240 q 521 -250 536 -250 q 469 -236 505 -250 q 424 -211 433 -222 q 420 -206 422 -210 q 416 -200 417 -202 q 412 -196 414 -198 q 407 -195 410 -195 q 374 -163 395 -195 q 350 -122 359 -140 q 336 -97 340 -103 q 309 -66 318 -66 q 298 -71 302 -66 q 257 -94 272 -94 q 241 -84 248 -94 q 235 -64 235 -75 q 239 -52 235 -56 q 260 -39 244 -45 q 282 -29 277 -33 q 290 -20 290 -23 q 272 -3 290 -15 q 205 55 248 14 q 149 122 162 95 q 133 173 138 145 q 123 205 127 200 q 117 222 120 211 q 110 252 114 234 q 104 279 106 271 q 98 321 100 296 q 94 350 95 347 q 90 386 90 374 q 99 422 90 399 q 109 458 109 446 q 101 475 109 465 q 93 497 93 486 q 94 518 93 500 q 94 551 94 535 q 102 612 94 576 q 118 665 111 648 q 144 751 136 720 q 186 827 152 781 q 202 851 193 837 q 217 874 211 865 q 225 885 222 883 q 236 899 227 886 q 259 930 245 912 q 286 962 273 948 q 323 993 307 984 q 361 1008 339 1002 q 387 1025 374 1013 q 403 1040 399 1038 m 390 965 q 372 954 385 965 q 357 942 359 943 q 323 915 341 934 q 296 876 306 896 q 282 833 289 864 q 269 791 276 802 q 245 744 258 774 q 229 697 232 714 q 226 657 229 692 q 220 595 224 623 q 216 558 216 561 q 218 533 216 547 q 221 498 219 519 q 225 456 224 476 q 238 358 228 427 q 248 268 248 290 q 255 235 248 250 q 283 196 262 221 q 300 157 298 179 q 310 126 302 136 q 355 86 322 112 q 403 53 389 61 q 422 47 414 47 q 461 61 441 47 q 475 69 467 64 q 486 76 484 74 q 494 85 489 79 q 507 104 500 92 q 541 146 518 123 q 570 179 563 169 q 585 217 578 191 q 602 252 593 242 q 617 306 610 262 q 625 355 623 349 q 626 358 625 356 q 627 361 627 360 q 653 453 644 412 q 660 546 660 499 q 659 568 660 551 q 659 597 659 585 q 656 648 659 621 q 651 694 654 675 q 643 746 648 713 q 636 796 638 779 q 596 903 626 871 q 524 970 549 952 q 510 980 517 974 q 499 989 503 987 q 491 995 496 992 q 481 997 486 997 q 465 988 479 996 q 432 973 451 980 q 390 965 412 966 z "},"r":{"ha":691,"x_min":104,"x_max":636,"o":"m 107 1039 q 131 1050 113 1050 q 174 1048 167 1050 q 261 1042 216 1042 q 289 1043 282 1042 q 346 1047 307 1047 q 371 1042 348 1047 q 411 1036 394 1036 q 418 1037 412 1036 q 433 1038 425 1038 q 518 1013 458 1038 q 575 964 541 1013 q 611 890 609 915 q 612 856 612 880 q 604 760 612 806 q 590 719 601 745 q 574 686 580 693 q 534 619 541 648 q 524 590 531 606 q 512 566 517 574 q 496 539 507 557 q 482 517 485 522 q 440 464 469 492 q 421 438 429 453 q 404 415 413 423 q 379 389 379 392 q 398 371 379 387 q 442 335 418 355 q 475 306 467 315 q 503 262 484 295 q 529 224 522 229 q 578 170 557 204 q 594 145 582 163 q 614 113 606 127 q 627 89 623 99 q 632 76 627 87 q 636 60 636 65 q 632 37 636 51 q 628 20 629 23 q 616 -5 627 7 q 596 -17 605 -17 q 589 -15 593 -17 q 578 -7 585 -12 q 567 2 572 -2 q 553 14 562 7 q 542 24 545 21 q 514 52 522 41 q 502 76 507 62 q 485 106 496 90 q 463 125 483 109 q 433 155 442 142 q 395 203 420 176 q 372 233 386 212 q 349 261 359 253 q 319 292 334 273 q 300 323 304 311 q 293 353 293 339 q 300 374 293 365 q 315 399 304 380 q 335 432 326 418 q 349 447 344 446 q 376 472 373 453 q 390 525 385 517 q 416 574 397 534 q 440 631 435 614 q 453 654 444 642 q 463 676 463 666 q 472 723 463 687 q 484 772 481 760 q 489 846 489 812 q 486 876 489 868 q 481 896 486 877 q 469 932 477 914 q 450 958 461 949 q 347 994 405 994 l 329 994 q 289 986 313 994 q 252 979 264 979 q 241 945 246 979 q 237 868 237 911 q 239 821 237 853 q 240 772 240 789 q 242 701 240 747 q 244 633 244 655 l 244 607 q 249 561 244 584 q 253 528 253 537 q 254 489 253 521 q 254 439 254 456 q 253 403 254 410 q 248 327 251 390 q 245 224 245 264 l 245 189 q 245 158 245 178 q 244 129 244 138 q 246 100 244 116 q 248 79 248 85 q 239 26 248 39 q 209 -2 229 11 q 171 -16 188 -16 q 142 18 150 -16 q 137 48 138 31 q 131 82 135 66 q 127 98 127 96 q 132 120 127 106 q 136 144 136 134 q 134 220 134 178 l 134 245 q 139 292 135 267 q 147 323 143 317 q 150 343 150 329 q 148 389 150 354 q 146 441 146 424 q 139 597 146 571 q 125 743 127 642 q 128 800 125 762 q 131 848 131 837 q 130 866 131 857 q 129 876 129 874 q 131 905 129 886 q 132 933 132 925 q 132 941 132 936 q 131 947 131 945 q 117 985 129 961 q 104 1022 104 1008 q 107 1039 104 1034 z "},"s":{"ha":621,"x_min":77,"x_max":539,"o":"m 471 785 q 429 800 429 788 l 428 820 q 427 854 427 840 q 429 876 427 861 q 431 900 431 890 q 423 926 431 911 q 414 950 416 941 q 400 984 410 968 q 379 1004 390 999 q 363 1007 371 1007 q 302 994 332 1007 q 241 926 274 982 q 235 900 235 918 q 237 871 235 891 q 240 838 240 850 q 254 781 240 800 q 261 750 258 774 q 267 718 264 727 q 273 707 269 711 q 280 701 277 703 q 293 693 283 699 q 311 681 302 687 q 340 659 326 671 q 373 626 353 646 q 410 590 393 605 q 424 577 413 587 q 439 564 435 567 q 451 552 442 561 q 464 540 460 544 q 475 528 468 536 q 486 515 482 520 q 495 502 490 509 q 504 487 500 494 q 511 472 508 480 q 531 404 524 443 q 539 335 539 364 q 526 237 539 300 q 515 200 523 222 q 505 171 507 178 q 472 107 502 149 q 464 96 467 100 q 455 87 460 91 q 449 81 451 83 q 440 73 447 79 q 429 65 433 68 q 376 31 418 56 q 326 1 334 7 q 286 -8 312 -8 q 243 -5 270 -8 q 164 14 209 -3 q 131 41 150 20 q 106 77 111 63 q 94 120 100 89 q 86 172 87 151 q 81 222 86 183 q 77 278 77 261 q 78 294 77 290 q 95 325 81 312 q 127 338 108 338 q 156 328 142 338 q 171 302 171 317 q 162 278 171 294 q 151 254 153 262 q 143 212 143 223 q 147 182 143 200 q 150 167 148 178 q 154 152 153 156 q 157 140 155 148 q 160 128 159 132 q 164 118 161 124 q 169 109 166 113 q 175 102 172 105 q 188 89 178 99 q 204 74 198 79 q 222 60 211 68 q 244 49 233 53 q 275 43 258 43 q 326 60 307 43 q 372 117 368 91 q 387 150 374 136 q 410 204 392 155 q 415 248 415 218 q 411 310 415 281 q 410 315 411 311 q 410 323 410 319 q 403 353 408 340 q 390 382 399 366 q 378 408 382 399 q 349 447 370 427 q 325 472 328 467 l 275 533 q 239 569 262 548 q 203 599 216 590 q 172 628 189 610 q 151 654 154 646 q 147 668 149 659 q 142 686 145 678 q 134 699 139 693 q 109 765 109 731 q 110 783 109 777 q 113 801 111 787 q 116 820 115 815 q 119 836 117 824 q 123 853 121 848 q 127 867 124 858 q 132 882 130 876 q 138 893 134 887 q 146 905 142 900 q 167 939 159 920 q 183 968 176 958 q 191 979 186 972 q 198 989 196 987 q 205 997 200 992 q 217 1007 210 1002 q 233 1018 223 1012 q 323 1057 296 1057 q 414 1039 366 1057 q 454 1012 431 1032 q 481 981 476 991 q 494 921 494 956 q 498 878 494 901 q 501 851 501 854 q 497 827 500 842 q 486 799 494 813 q 471 785 479 784 z "},"t":{"ha":622,"x_min":62,"x_max":567,"o":"m 62 996 q 114 1036 64 1036 q 153 1033 131 1036 q 184 1028 175 1029 q 240 1026 203 1026 q 322 1028 294 1026 q 375 1026 341 1028 q 427 1025 410 1025 q 458 1029 439 1025 q 492 1035 477 1034 q 532 1038 513 1038 q 567 1028 567 1038 q 564 1020 567 1024 q 555 1010 561 1015 q 546 1003 550 1006 q 535 995 542 1000 q 528 990 528 991 q 517 981 525 988 q 506 972 509 975 q 495 966 502 969 q 481 964 488 964 q 465 966 476 964 q 429 972 449 971 q 401 974 408 972 q 392 977 398 975 q 382 981 387 979 q 375 982 378 982 q 366 957 366 982 q 367 913 366 945 q 368 864 368 881 q 374 796 368 844 q 379 733 379 747 q 381 707 379 721 q 383 684 383 693 q 381 625 383 662 q 379 570 379 587 q 376 530 379 564 q 374 469 374 496 q 377 402 374 444 q 380 343 380 359 q 382 305 380 328 q 385 273 385 282 q 379 210 385 250 q 374 151 374 170 q 375 127 374 134 q 386 93 377 109 q 396 65 394 77 q 392 46 396 53 q 374 31 387 39 q 355 17 361 22 q 286 -16 317 -16 q 273 -12 283 -16 q 253 31 253 -3 q 256 57 253 38 q 258 118 258 73 q 261 174 258 161 q 265 191 262 180 q 269 208 268 201 q 271 220 271 214 q 265 269 271 237 q 258 309 259 300 q 263 374 258 325 q 268 443 268 424 q 267 463 268 457 q 260 524 263 481 q 257 572 258 566 q 256 606 256 581 q 255 708 256 654 q 254 783 254 763 q 252 823 254 792 q 250 869 250 853 l 250 890 q 256 928 251 903 q 261 966 261 954 q 241 981 261 981 q 211 975 229 980 q 165 970 192 970 l 115 970 q 103 970 115 970 q 87 971 92 970 q 76 975 83 972 q 65 982 68 977 q 62 996 62 987 z "},"u":{"ha":743,"x_min":104,"x_max":639,"o":"m 123 962 q 125 978 124 971 q 127 990 125 984 q 130 998 130 996 q 134 1005 130 1001 q 138 1010 138 1010 q 145 1016 139 1011 q 151 1022 151 1021 q 167 1039 157 1027 q 184 1056 177 1050 q 199 1063 192 1063 q 224 1044 209 1063 q 245 1002 239 1025 q 249 990 247 998 q 253 979 252 983 q 255 969 254 976 q 258 959 257 963 q 259 947 258 954 q 260 933 260 941 q 258 905 260 916 q 243 741 247 798 q 241 700 241 724 l 241 621 q 240 519 240 604 q 236 484 239 511 q 233 441 233 456 q 235 424 233 429 q 243 326 243 363 q 256 207 243 295 q 268 160 258 186 q 290 118 277 135 q 354 69 307 98 q 412 47 395 47 q 417 48 414 47 q 421 49 420 49 q 444 60 431 51 q 469 83 456 70 q 482 96 481 96 q 502 126 488 101 q 522 165 516 151 q 527 178 526 173 q 528 188 528 184 q 529 203 528 193 q 532 228 530 214 q 543 268 534 243 q 554 336 552 293 q 559 453 559 445 q 558 476 559 471 q 557 490 557 479 q 559 523 557 500 q 561 554 561 546 q 560 560 561 557 l 559 564 q 558 596 558 568 l 558 676 q 565 707 558 692 q 572 725 572 722 q 563 753 572 727 q 554 798 554 779 q 558 840 554 812 q 562 888 562 867 q 564 918 562 896 q 566 949 566 939 q 563 975 566 962 q 561 990 561 987 q 571 1034 561 1019 q 592 1055 577 1044 q 618 1065 608 1065 q 625 1064 624 1065 q 639 1010 639 1053 l 639 987 q 631 847 639 930 q 623 804 629 831 q 616 762 616 777 q 618 745 616 750 q 619 724 619 738 q 617 696 619 713 q 615 668 615 678 q 616 648 615 655 q 621 545 621 621 q 615 404 621 448 q 611 328 612 372 q 607 262 610 283 q 576 154 598 186 q 560 121 572 147 q 536 79 547 96 q 515 61 526 63 q 506 58 510 60 q 498 55 501 56 q 491 51 496 54 q 486 46 487 47 q 479 39 484 45 q 472 32 473 33 q 449 17 465 25 q 412 0 433 9 q 385 -12 390 -9 q 363 -17 375 -17 q 325 -12 349 -17 q 300 -7 301 -7 q 283 -1 294 -6 q 265 9 273 4 q 244 21 257 14 q 227 32 231 29 q 167 82 178 58 q 125 191 141 129 q 111 289 111 243 q 114 317 111 303 q 117 347 117 328 q 114 395 117 363 q 111 415 113 401 q 106 440 108 428 q 104 465 104 453 q 106 484 104 478 q 109 585 107 497 q 115 688 111 673 q 117 707 117 693 q 114 744 117 720 q 111 775 111 768 q 113 852 111 840 q 123 962 121 932 z "},"v":{"ha":708,"x_min":62,"x_max":646,"o":"m 62 970 q 79 998 62 983 q 109 1018 95 1013 q 121 1025 113 1019 q 135 1031 130 1031 q 151 1014 144 1031 q 204 869 195 928 q 250 704 211 819 q 282 575 278 617 q 283 547 283 566 q 283 530 283 541 q 282 514 282 518 q 290 475 282 491 q 318 395 313 424 q 350 250 339 297 q 361 194 355 229 q 368 154 366 159 q 371 151 368 151 q 383 171 376 151 q 392 208 390 191 q 412 306 393 222 q 418 326 414 313 q 425 348 422 340 q 429 368 427 355 q 431 392 431 380 q 434 415 431 403 q 444 443 438 427 q 453 468 450 458 q 482 616 458 487 q 511 677 489 646 q 514 690 514 683 q 513 706 514 692 q 513 734 513 720 q 527 802 515 753 q 547 875 538 850 q 554 892 551 886 q 561 901 558 899 q 566 904 564 903 q 568 908 568 906 q 570 923 570 911 q 570 951 570 936 q 571 971 570 966 q 581 1002 573 981 q 593 1028 589 1023 q 596 1040 593 1029 q 604 1058 599 1050 q 621 1065 610 1065 q 640 1061 635 1065 q 646 1046 646 1057 q 637 1002 646 1034 q 627 957 631 975 q 622 921 624 940 q 618 893 619 901 q 612 871 616 881 q 606 855 609 861 q 598 839 604 850 q 589 822 592 828 q 576 777 584 811 q 562 715 569 743 q 550 685 555 687 q 545 682 547 684 q 542 676 543 680 q 539 669 540 672 q 536 659 538 665 q 534 648 535 652 q 531 634 533 644 q 529 619 530 625 q 504 500 522 576 q 492 451 500 482 q 478 396 484 420 q 468 350 472 373 q 465 311 465 331 q 463 278 465 290 q 454 254 461 266 q 438 206 446 239 q 428 164 431 174 q 411 116 422 146 q 397 79 399 87 q 392 58 395 74 q 385 30 389 43 q 372 9 380 16 q 322 -20 343 -20 q 319 -19 321 -20 q 317 -18 317 -18 q 292 14 306 -15 q 275 68 277 42 q 244 175 274 85 q 214 283 214 265 q 210 317 214 294 q 202 358 206 339 q 192 400 198 376 q 186 428 186 424 q 170 496 182 439 q 154 566 157 553 q 142 625 151 579 q 131 686 134 671 q 119 737 126 709 q 109 779 112 765 q 95 823 106 795 q 83 869 84 852 q 73 924 83 886 q 62 970 62 962 z "},"w":{"ha":1005,"x_min":62,"x_max":943,"o":"m 62 991 q 70 1035 65 1025 q 90 1053 75 1044 q 144 1076 130 1076 q 158 1072 152 1076 q 175 1052 170 1063 q 186 1004 180 1040 q 192 968 188 989 q 198 927 196 947 q 201 884 201 907 q 198 824 201 861 q 195 770 195 787 q 196 746 195 754 q 203 633 203 646 l 203 608 q 213 562 203 585 q 222 524 222 540 q 229 468 222 505 q 236 410 235 431 q 249 301 240 340 q 262 254 250 292 q 275 212 275 217 l 283 226 q 311 301 303 272 q 329 353 315 316 q 346 410 342 391 q 369 503 352 442 q 393 572 386 563 q 403 615 403 586 q 400 644 403 625 q 399 661 399 650 q 414 728 399 693 q 437 814 431 777 q 453 851 441 828 q 465 882 465 875 q 461 905 465 889 q 457 935 458 920 q 485 1014 457 970 q 529 1035 502 1035 q 557 1011 545 1033 q 575 960 570 990 q 589 891 577 947 q 603 817 602 836 q 615 699 614 723 q 632 587 619 625 q 656 503 650 542 q 657 484 657 490 q 669 380 657 411 q 677 359 672 372 q 686 333 682 347 q 694 302 690 320 q 703 272 697 292 q 711 237 708 252 q 717 199 713 222 q 745 111 732 111 q 751 136 749 111 q 754 189 754 160 q 766 261 754 216 q 779 315 779 305 q 786 373 780 326 q 794 441 793 420 q 803 482 795 456 q 812 545 810 507 q 820 617 814 582 q 825 667 825 652 q 833 700 825 684 q 842 730 842 716 l 842 747 q 857 880 842 785 q 873 922 861 898 q 885 956 885 945 q 884 964 885 961 q 872 1021 872 993 q 873 1036 872 1031 q 890 1060 875 1048 q 907 1079 905 1073 q 921 1088 909 1088 q 937 1080 930 1088 q 943 1057 943 1073 q 926 933 941 989 q 904 782 918 892 q 888 736 902 760 q 875 701 875 713 q 878 659 878 670 q 873 614 878 642 q 858 535 869 589 q 843 461 847 481 q 839 406 839 436 q 835 359 839 378 q 824 313 831 342 q 814 265 817 283 q 808 199 812 258 q 796 115 804 140 q 789 73 791 96 q 782 35 787 51 q 770 11 777 21 q 754 -9 764 1 q 741 -24 744 -20 q 707 -37 731 -37 q 685 -31 692 -37 q 639 53 677 -22 q 602 154 604 130 q 587 196 600 166 q 567 257 574 226 q 559 293 563 275 q 554 320 555 311 q 549 336 552 328 q 543 350 547 345 q 538 391 539 358 q 534 433 538 423 q 529 485 534 437 q 514 553 524 534 q 506 571 509 562 q 502 590 503 580 q 499 606 500 600 q 497 623 498 611 q 496 639 496 635 q 482 703 494 660 q 476 714 480 714 q 456 637 467 714 q 445 585 452 610 q 429 533 437 559 q 416 494 420 507 q 408 459 412 479 q 399 425 403 438 q 392 401 395 411 q 387 366 389 393 q 378 322 385 338 q 367 291 372 309 q 352 245 361 273 q 336 196 343 216 q 318 141 330 173 q 300 82 307 109 q 296 64 298 75 q 293 50 294 54 q 290 40 292 46 q 287 31 288 33 q 284 25 286 28 q 281 18 283 21 q 277 12 279 16 l 264 -4 q 232 -21 257 -10 q 216 -24 228 -24 q 181 -12 197 -24 q 163 20 165 1 q 156 102 161 33 q 147 191 150 172 q 143 237 145 204 q 136 292 141 269 q 119 393 119 374 q 115 472 119 451 q 109 499 114 480 q 100 538 103 517 q 96 583 96 558 q 85 753 90 697 q 79 801 84 760 q 72 865 73 841 q 67 926 71 882 q 62 991 62 971 z "},"x":{"ha":663,"x_min":62,"x_max":602,"o":"m 62 1003 q 121 1059 64 1027 q 123 1059 121 1059 q 125 1060 124 1060 q 156 1043 136 1060 q 191 1004 176 1025 q 257 885 247 921 q 285 798 279 808 q 298 779 288 792 q 316 751 308 765 q 328 725 325 737 q 351 653 345 655 q 367 681 357 651 q 378 726 376 711 q 381 739 378 731 q 390 758 385 747 q 399 776 395 768 q 410 794 404 784 q 418 808 416 805 q 444 882 439 846 q 472 951 448 909 q 489 986 481 968 q 503 1013 496 1003 q 524 1038 511 1027 q 545 1050 536 1048 q 553 1042 549 1050 q 558 1023 556 1034 q 559 1002 559 1012 q 559 996 559 1000 q 558 991 558 993 q 556 982 557 986 q 554 976 555 977 q 554 972 554 974 q 530 917 554 962 q 509 863 519 896 q 490 814 498 829 q 468 758 482 798 q 444 703 453 719 q 421 668 441 696 q 397 619 401 640 q 392 593 396 612 q 387 564 387 574 q 392 539 387 553 q 426 481 395 532 q 464 401 457 431 q 471 363 469 382 q 476 337 474 345 q 482 326 477 330 q 491 319 483 326 q 504 308 500 312 q 513 295 508 304 q 521 277 519 286 q 567 150 526 249 q 584 117 571 140 q 600 79 597 94 q 601 75 600 78 q 602 71 602 72 q 575 -4 602 38 q 564 -8 573 -8 q 525 3 547 -8 q 494 28 502 14 q 476 70 489 39 q 453 118 463 100 q 440 139 447 128 q 428 159 433 151 q 416 186 424 168 q 405 214 412 197 q 394 241 398 231 q 386 259 390 250 q 378 272 381 269 q 358 334 366 284 q 351 369 354 361 q 340 386 349 376 q 331 399 336 391 q 321 413 325 408 q 315 418 317 418 q 309 404 314 418 q 295 373 303 389 q 279 351 287 356 q 268 326 270 345 q 261 298 265 307 q 227 222 232 243 q 193 144 212 173 q 180 109 186 134 q 168 72 174 84 q 157 51 163 61 q 148 33 151 40 q 143 17 144 26 q 140 -26 143 -22 q 115 -41 135 -35 q 82 -47 94 -47 q 71 -41 76 -47 q 66 -26 66 -35 q 70 -3 66 -15 q 80 23 73 9 q 87 43 86 38 q 98 68 90 49 q 109 97 107 87 q 132 161 111 109 q 146 194 136 170 q 161 232 155 218 q 184 273 166 242 q 217 332 201 304 q 233 361 233 359 q 234 370 234 362 q 235 387 234 377 q 239 404 236 396 q 258 437 241 412 q 275 471 274 463 q 279 505 279 499 q 275 532 279 519 q 245 591 273 538 q 214 661 218 644 q 211 674 212 666 q 208 686 209 683 q 206 694 208 689 q 203 701 205 699 q 199 705 201 703 q 192 708 196 707 q 170 745 183 711 q 151 786 157 780 q 134 829 144 793 q 117 868 123 865 q 104 906 111 871 q 85 953 96 942 q 67 975 71 966 q 62 1003 62 985 z "},"y":{"ha":690,"x_min":62,"x_max":628,"o":"m 62 999 q 72 1026 62 1014 q 93 1042 81 1038 q 102 1043 96 1043 q 138 1028 119 1043 q 171 986 158 1014 q 202 934 183 959 q 225 900 221 909 q 251 839 236 878 q 271 779 266 800 q 282 746 273 766 q 292 711 291 726 q 296 691 292 699 q 306 671 299 682 q 317 653 313 660 q 332 614 323 640 q 342 586 340 589 q 350 592 342 585 q 367 609 358 598 q 379 628 376 620 q 384 651 380 629 q 393 687 387 672 q 410 715 399 703 q 461 800 450 764 q 497 878 471 830 q 526 951 516 912 q 533 967 528 959 q 542 982 538 976 q 553 997 545 987 q 562 1010 560 1006 q 570 1022 566 1015 q 578 1035 575 1030 q 586 1043 581 1039 q 596 1047 591 1046 q 617 1039 606 1047 q 628 1019 628 1031 q 619 997 628 1008 q 595 954 606 980 q 572 911 585 928 q 555 872 559 891 q 543 836 552 853 q 521 802 532 816 q 505 778 510 788 q 496 761 502 770 q 486 742 490 751 q 478 718 481 733 q 469 693 475 703 q 455 672 463 682 q 443 654 447 661 q 426 616 436 643 q 410 576 416 590 q 401 557 407 571 q 392 538 395 544 q 387 524 390 533 q 382 507 383 514 q 380 492 380 499 q 381 452 380 484 q 382 403 382 420 q 380 371 382 375 q 370 324 376 357 q 364 273 364 291 q 367 225 367 237 q 365 200 367 216 q 363 178 363 185 q 365 143 363 168 q 367 103 367 118 q 366 93 367 100 q 366 82 366 85 q 354 7 362 26 q 334 -17 348 -8 q 306 -26 321 -26 q 273 -3 285 -26 q 263 32 269 5 q 254 81 256 60 l 254 96 q 255 122 254 103 q 256 150 256 140 l 252 193 q 249 215 249 210 q 253 245 249 228 q 257 265 257 262 q 256 279 257 267 q 256 300 256 291 q 260 343 256 325 q 265 421 265 366 q 261 463 264 450 q 249 486 258 475 q 214 560 242 494 q 179 637 186 625 q 168 700 168 659 q 160 724 168 707 q 150 750 153 741 q 137 794 143 768 q 125 832 130 819 q 111 856 120 846 q 103 865 107 861 q 97 871 99 869 q 93 876 96 873 q 90 883 91 878 q 86 893 88 887 q 81 911 84 899 q 62 999 66 962 z "},"z":{"ha":688,"x_min":62,"x_max":631,"o":"m 146 977 q 163 1016 146 993 q 200 1039 181 1039 q 230 1040 208 1039 q 264 1040 252 1040 q 334 1038 321 1040 q 389 1032 373 1032 q 418 1035 410 1032 q 463 1039 431 1038 q 503 1040 495 1040 q 555 1042 513 1042 q 604 1044 596 1043 q 622 1025 614 1044 q 631 986 631 1006 q 589 893 631 949 q 574 869 581 882 q 564 848 567 855 q 555 820 562 842 q 547 794 549 799 q 502 687 538 766 q 443 570 465 608 q 418 521 431 548 q 392 467 405 494 q 376 433 379 439 q 366 402 370 420 q 355 372 361 384 q 338 345 351 363 q 322 314 326 327 q 316 294 319 306 q 310 273 313 282 q 301 253 307 264 q 292 225 297 245 q 271 183 288 205 q 241 148 256 164 q 216 117 227 131 q 199 77 199 90 q 207 64 199 68 q 227 61 212 61 q 307 69 234 61 q 313 70 309 69 q 321 71 318 71 q 354 69 331 71 q 386 68 378 68 q 411 66 397 68 q 431 65 425 65 q 507 74 492 65 q 600 93 541 93 q 621 79 621 93 q 607 49 621 66 q 583 28 593 31 q 565 18 576 25 q 543 7 553 12 q 524 3 533 3 q 410 17 483 3 q 321 22 382 22 l 241 22 q 183 16 206 22 q 153 3 168 10 q 123 -9 139 -5 q 94 -16 107 -16 q 68 3 76 -16 q 62 22 65 7 q 81 72 62 37 q 96 107 89 84 q 117 154 104 130 q 136 194 125 170 q 154 231 147 218 q 171 253 161 244 q 185 265 176 258 q 197 275 193 271 q 204 284 201 278 q 208 298 208 290 l 207 321 q 215 353 207 334 q 330 612 318 587 q 360 693 352 655 q 385 757 368 731 q 429 852 414 811 q 446 895 436 871 q 463 935 456 919 q 472 961 469 951 q 479 991 479 986 q 471 999 479 999 q 429 995 469 999 q 358 991 389 991 q 303 993 335 991 q 269 994 271 994 q 252 989 263 994 q 237 985 241 985 q 211 972 228 985 q 184 960 194 960 q 169 958 178 960 q 158 957 160 957 q 146 977 146 957 z "},"{":{"ha":393,"x_min":57,"x_max":326,"o":"m 57 515 q 98 554 57 528 q 122 571 117 566 q 135 590 127 576 q 146 648 146 610 l 146 667 q 142 708 146 696 q 129 762 129 751 q 117 819 129 777 q 106 886 106 856 q 110 939 106 905 q 225 1065 118 1008 q 290 1080 256 1080 q 304 1079 302 1080 q 318 1066 311 1078 q 326 1046 326 1054 q 321 1038 326 1040 q 311 1035 319 1037 q 299 1031 303 1033 q 288 1026 295 1029 q 276 1017 281 1023 q 264 1004 270 1012 q 245 980 251 989 q 236 960 240 972 q 232 932 232 947 q 230 890 232 917 q 228 851 228 863 q 232 815 228 833 q 237 765 237 794 q 247 723 237 753 q 256 676 256 693 q 212 549 256 592 l 184 515 q 212 482 200 494 q 256 354 256 439 q 247 307 256 337 q 237 265 237 277 q 232 215 237 236 q 228 179 228 197 q 230 140 228 167 q 232 98 232 113 q 239 63 232 77 q 264 26 245 50 q 276 14 270 19 q 288 5 281 8 q 299 0 295 1 q 311 -4 303 -2 q 321 -7 319 -6 q 326 -16 326 -9 q 318 -36 326 -24 q 304 -49 311 -48 q 290 -50 302 -50 q 225 -35 257 -50 q 195 -17 208 -25 q 161 7 182 -9 q 126 46 139 24 q 110 92 113 67 q 106 142 106 123 q 117 211 106 169 q 121 225 118 216 q 127 244 125 235 q 129 261 129 252 l 129 271 q 131 286 129 277 q 137 305 134 294 q 142 322 140 316 q 146 382 146 340 q 135 440 146 418 q 123 459 128 454 q 98 476 118 464 q 57 515 57 502 z "},"|":{"ha":333,"x_min":104,"x_max":229,"o":"m 122 62 q 123 69 122 65 q 123 75 123 73 q 119 109 123 87 q 114 135 114 130 q 116 187 114 137 q 118 254 118 237 q 112 264 118 256 q 106 278 106 273 q 105 312 106 288 q 104 349 104 337 q 107 393 104 382 q 114 467 114 435 q 113 490 114 482 q 110 542 110 509 l 110 564 q 113 608 110 571 q 115 668 115 646 q 113 711 115 687 q 110 755 110 745 q 113 806 110 776 q 115 846 115 836 q 118 853 115 846 q 121 872 121 861 q 119 881 121 875 q 118 892 118 887 q 114 930 117 911 q 111 953 111 948 q 113 964 111 957 q 114 975 114 970 q 113 989 114 980 q 111 1007 111 999 q 109 1024 111 1008 q 107 1042 107 1040 q 115 1060 109 1055 q 136 1068 121 1066 q 153 1071 151 1070 q 182 1072 157 1072 q 227 1038 227 1072 l 227 1002 q 222 939 227 956 q 217 888 219 925 q 212 838 216 851 q 210 817 210 824 q 212 791 210 810 q 215 761 215 772 q 214 752 215 758 q 212 742 212 745 q 211 713 211 731 q 212 690 211 705 q 212 669 212 675 q 212 662 212 667 q 211 654 211 656 q 207 579 207 618 q 212 497 207 540 q 209 454 212 484 q 205 415 205 425 q 206 409 205 413 q 207 404 207 406 q 212 349 209 393 q 216 290 214 304 q 221 229 221 256 q 220 183 221 200 q 213 150 218 160 q 208 135 208 140 q 211 110 208 122 q 218 77 214 97 q 224 46 222 57 q 228 21 226 36 q 229 -9 229 5 q 174 -64 229 -58 l 154 -64 q 126 -56 137 -64 q 115 -35 115 -47 q 122 62 115 26 z "},"}":{"ha":390,"x_min":82,"x_max":351,"o":"m 351 529 q 310 490 351 516 q 285 473 290 478 q 273 454 280 469 q 262 396 262 432 q 267 336 262 355 q 271 319 268 330 q 277 300 275 309 q 279 285 279 291 l 279 275 q 281 258 279 267 q 287 240 283 250 q 292 225 290 230 q 302 155 302 183 q 298 106 302 137 q 183 -21 290 36 q 118 -36 153 -36 q 104 -35 107 -36 q 90 -21 98 -33 q 82 -1 82 -9 q 87 7 82 5 q 97 9 90 7 q 109 13 105 12 q 120 18 113 15 q 133 27 127 22 q 144 40 138 33 q 163 64 157 56 q 172 85 168 73 q 176 113 176 97 q 178 154 176 127 q 180 193 180 181 q 176 229 180 211 q 171 279 171 250 q 162 321 171 291 q 153 368 153 351 q 196 496 153 452 l 224 529 q 196 562 208 550 q 153 690 153 606 q 162 738 153 707 q 171 779 171 768 q 176 829 171 808 q 180 865 180 848 q 178 904 180 878 q 176 946 176 931 q 170 981 176 968 q 144 1018 163 995 q 133 1031 138 1025 q 120 1040 127 1036 q 109 1045 113 1043 q 97 1048 105 1046 q 87 1051 90 1050 q 82 1060 82 1053 q 90 1080 82 1068 q 104 1093 98 1092 q 118 1095 107 1095 q 183 1079 151 1095 q 213 1062 201 1069 q 248 1037 226 1054 q 282 999 269 1020 q 298 953 296 977 q 302 900 302 919 q 292 833 302 870 q 279 777 279 792 q 267 722 279 766 q 262 681 262 710 l 262 663 q 273 604 262 624 q 286 585 281 590 q 310 568 291 581 q 351 529 351 543 z "},"~":{"ha":758,"x_min":52,"x_max":701,"o":"m 71 455 q 61 463 71 455 q 52 485 52 471 q 59 511 52 498 q 79 536 66 523 q 94 553 92 549 q 113 569 100 562 q 127 582 125 575 q 163 618 130 594 q 235 648 197 642 q 289 654 267 654 q 349 646 319 654 q 427 608 354 644 q 463 586 437 603 q 511 558 490 569 q 547 547 533 547 q 602 586 582 547 q 605 595 602 588 q 610 604 608 602 q 614 612 611 606 q 618 620 616 617 q 624 626 621 622 q 630 631 627 629 q 638 633 633 632 q 647 635 642 635 q 683 627 665 635 q 701 600 701 618 q 673 530 701 558 q 657 511 668 524 q 638 487 646 497 q 625 473 630 477 q 541 439 595 450 q 515 443 535 439 q 484 449 494 448 q 428 471 460 454 q 376 504 396 488 q 333 525 361 516 q 298 536 305 533 q 237 546 279 546 l 222 546 q 165 510 199 546 q 150 481 157 500 q 133 450 142 461 q 106 439 123 439 q 71 455 91 439 z "},"":{"ha":293,"x_min":77,"x_max":228,"o":"m 215 104 q 214 134 215 108 q 214 164 214 161 q 217 182 214 175 q 220 191 220 189 q 218 197 220 192 q 215 203 216 201 q 214 222 214 208 q 214 248 214 229 q 215 277 215 266 q 212 319 215 288 q 210 363 210 344 q 213 421 210 385 q 216 465 216 456 l 216 497 q 212 532 216 519 q 211 554 211 538 q 210 574 211 559 q 210 596 210 588 q 212 625 210 616 q 220 696 220 651 l 220 717 q 198 739 220 730 q 155 747 176 747 l 150 747 q 112 732 126 743 q 97 694 97 722 q 96 666 97 684 q 96 639 96 648 q 102 579 96 616 q 109 496 109 556 q 102 374 109 404 l 102 319 q 100 292 102 306 q 99 281 100 288 q 98 273 98 275 q 101 244 98 262 q 104 218 104 227 q 100 199 104 218 q 96 129 97 186 q 92 58 95 73 q 87 -7 87 41 l 87 -37 q 147 -69 87 -69 q 195 -64 173 -69 q 219 -52 210 -60 q 228 -25 228 -44 q 224 6 228 -10 q 221 24 221 22 q 222 33 221 26 q 224 45 224 39 q 222 57 224 50 q 219 77 221 64 q 215 104 216 90 m 174 846 q 171 845 173 846 q 167 844 168 844 q 129 840 138 840 q 94 850 104 840 q 77 904 77 871 q 87 956 77 935 q 102 967 91 961 q 123 976 113 972 q 148 984 134 979 q 164 989 161 988 q 170 990 165 990 q 200 981 184 990 q 222 958 216 972 q 228 922 228 939 q 215 889 228 893 q 195 868 208 888 q 174 846 182 847 z "},"":{"ha":643,"x_min":90,"x_max":525,"o":"m 485 758 q 456 779 459 758 q 454 789 454 782 q 456 810 454 793 q 458 839 458 827 q 446 890 458 857 q 437 908 442 903 q 419 919 433 912 q 415 921 416 920 q 389 928 405 928 l 382 928 l 382 901 q 379 857 380 889 q 376 812 378 825 q 375 791 375 806 q 376 771 375 787 q 378 743 378 754 q 377 736 378 743 q 376 726 376 730 q 375 700 375 718 q 376 681 375 694 q 376 663 376 667 q 376 655 376 661 q 375 648 375 650 q 374 623 375 646 q 374 582 374 600 q 376 510 374 538 q 375 472 376 498 q 374 436 374 446 l 374 429 q 376 384 374 425 q 379 328 378 343 q 382 273 382 296 q 380 233 382 247 q 377 203 380 212 q 374 191 374 194 q 375 168 374 179 q 382 121 381 125 q 402 127 395 121 q 427 149 410 132 q 443 170 432 155 q 454 187 453 185 q 466 214 456 190 q 476 241 475 238 l 479 248 q 482 257 481 255 q 486 264 483 259 q 491 270 488 269 q 498 272 494 272 q 524 254 524 269 q 524 247 524 251 q 525 241 525 243 q 521 221 525 233 q 514 200 517 216 q 509 182 510 185 q 494 165 507 175 q 478 149 481 155 q 444 104 455 114 q 424 93 437 98 q 407 85 412 88 l 385 74 l 385 61 q 355 14 385 20 l 346 14 q 332 22 338 14 q 326 40 326 30 l 326 62 q 318 63 324 62 q 307 64 312 64 q 270 72 292 65 q 239 85 248 78 q 218 96 236 87 q 189 114 200 105 q 157 151 177 121 q 132 195 137 180 q 126 219 130 205 q 121 243 123 233 q 110 279 120 247 q 95 347 100 312 q 90 429 90 382 q 92 478 90 453 q 94 519 93 504 q 98 552 96 535 q 100 571 100 569 q 100 585 100 577 q 100 597 100 593 q 101 607 100 602 q 104 619 102 613 q 113 671 113 637 q 125 703 113 692 q 129 712 127 705 q 132 730 130 719 q 138 751 134 742 q 163 810 151 793 q 177 833 167 813 q 192 859 186 852 q 215 883 197 863 q 239 907 233 902 q 259 921 243 909 q 281 935 275 932 q 293 938 286 937 q 306 941 300 939 q 318 949 312 943 l 325 956 l 325 961 q 323 976 325 962 q 322 991 322 989 q 327 1008 323 1004 q 337 1015 330 1013 q 346 1018 345 1017 q 359 1019 347 1019 q 383 987 383 1019 q 382 980 383 985 q 382 972 382 975 q 403 970 395 972 q 420 964 412 968 q 432 958 428 960 q 460 946 441 956 q 489 928 479 937 q 498 913 494 922 q 504 899 503 905 q 508 886 506 893 q 510 878 509 879 q 511 874 510 877 q 511 871 511 872 q 510 854 511 867 q 509 838 509 841 q 507 787 509 804 q 505 771 507 777 q 499 762 504 766 q 485 758 494 758 m 315 144 q 330 138 322 138 q 328 166 330 148 q 326 191 326 185 l 326 196 q 328 244 326 206 q 329 294 329 283 q 326 304 329 297 q 322 315 322 312 q 321 348 322 326 q 321 379 321 370 q 322 418 321 408 q 326 482 326 450 q 325 504 326 498 l 325 570 q 326 609 325 576 q 326 661 326 641 q 325 699 326 689 q 323 737 323 714 q 325 782 323 755 q 326 818 326 809 q 328 825 326 819 q 330 842 330 831 q 330 849 330 843 q 329 861 329 856 q 325 904 325 892 q 254 810 285 880 q 247 796 252 804 q 238 781 241 788 q 235 762 235 773 q 229 724 235 751 q 228 715 229 722 q 226 693 227 708 q 225 654 225 677 q 221 600 225 633 q 211 488 211 509 q 212 447 212 485 q 218 412 212 430 q 231 349 224 404 q 250 264 236 317 q 273 199 264 211 q 284 182 277 195 q 300 159 292 169 q 315 144 308 149 z "},"":{"ha":687,"x_min":65,"x_max":623,"o":"m 614 107 q 607 85 614 103 q 599 68 600 68 q 582 65 593 65 q 578 59 579 65 q 576 46 576 53 q 575 39 576 39 q 571 34 574 37 q 567 28 569 31 q 562 26 565 26 q 547 17 559 26 q 528 5 534 7 q 518 4 524 4 q 512 5 516 4 q 505 5 507 5 q 498 4 501 5 q 467 -3 492 0 q 437 -7 442 -5 l 432 -7 q 390 0 417 -7 q 354 11 362 6 q 333 17 350 13 q 310 26 316 22 q 276 41 304 32 q 244 53 247 51 q 223 58 240 55 q 200 64 205 62 q 196 65 199 65 q 178 60 190 65 q 160 54 165 54 q 145 49 155 54 q 127 38 135 43 l 119 33 l 86 9 q 75 27 82 9 q 65 57 67 45 q 74 79 65 66 q 90 96 82 92 q 102 102 95 98 q 118 110 109 107 q 134 118 127 112 q 144 127 140 125 q 150 134 148 130 q 156 141 151 137 q 174 153 161 146 q 191 172 184 159 q 201 197 197 184 q 207 214 204 210 q 224 252 214 223 q 229 290 224 277 q 231 300 231 295 q 231 313 231 305 q 232 326 231 320 q 235 343 233 334 q 237 358 237 353 l 237 361 q 236 367 236 365 q 224 425 229 415 q 204 444 214 441 l 210 444 q 192 449 201 444 l 126 449 q 113 447 123 449 q 100 446 103 446 q 90 449 97 446 q 87 457 87 449 q 102 498 87 470 q 111 505 103 505 q 117 505 113 505 q 125 504 121 504 q 135 506 126 504 q 149 507 143 507 q 160 505 154 507 l 192 505 q 197 512 195 505 q 199 522 199 519 q 191 538 199 526 q 183 555 183 550 q 179 568 181 560 q 175 589 178 576 q 170 615 173 603 q 164 652 164 637 l 164 669 q 161 697 161 686 q 160 702 161 699 q 156 715 158 705 q 154 746 155 726 q 155 771 154 757 q 155 789 155 785 q 179 879 155 798 q 193 908 185 896 q 211 935 200 921 q 224 950 222 948 q 257 979 235 963 q 289 996 280 996 q 353 1011 294 996 q 374 1014 361 1014 q 387 1013 379 1014 q 397 1013 395 1013 q 414 1011 402 1013 q 433 1010 425 1010 q 485 995 456 1009 q 524 970 514 981 q 554 920 535 957 q 564 880 564 897 q 565 872 564 880 q 566 860 566 865 q 557 825 566 834 q 551 819 555 823 q 544 812 547 814 q 537 806 541 809 q 528 800 533 802 q 518 796 524 798 q 510 794 514 794 q 497 799 502 794 q 492 811 492 804 q 493 819 492 817 q 496 839 496 827 l 496 856 q 497 868 496 859 q 498 882 498 878 q 484 942 498 924 q 450 970 467 962 q 435 972 449 970 q 416 978 420 974 q 406 981 415 981 q 335 964 364 981 q 315 944 325 958 q 299 920 304 930 q 286 893 293 909 q 278 876 279 878 q 272 857 275 869 q 267 843 269 846 q 264 835 265 841 q 262 825 264 829 q 260 800 260 819 l 260 789 q 257 778 260 781 q 254 765 254 775 q 255 757 254 762 l 256 751 q 258 733 256 749 q 261 705 260 717 q 263 689 262 694 q 266 680 264 684 q 268 673 267 675 q 273 643 273 652 q 276 627 273 637 q 278 611 278 616 q 285 595 278 608 q 292 582 292 583 q 300 551 292 568 q 307 536 303 547 q 314 521 311 525 q 318 514 315 519 q 323 506 320 509 q 330 504 326 504 q 368 505 353 504 q 390 507 374 507 q 419 505 411 507 q 456 500 446 505 q 463 486 463 496 q 444 450 451 453 l 379 450 q 369 450 374 450 q 363 449 365 449 q 351 450 359 449 q 336 450 342 450 q 334 444 334 450 q 336 429 334 439 q 338 415 338 420 l 335 407 q 338 399 335 404 q 340 389 340 393 q 342 372 340 387 q 343 342 343 357 l 342 294 l 330 257 q 314 222 325 233 q 309 214 312 220 q 305 204 307 208 q 302 200 303 200 q 295 195 299 201 q 288 182 291 189 q 285 172 286 176 q 280 167 284 172 q 272 158 277 162 q 265 151 268 153 q 260 140 260 148 q 262 134 260 138 q 267 129 264 130 q 270 128 268 129 q 272 127 271 127 q 283 133 276 127 q 296 138 290 138 q 312 125 303 138 l 321 113 q 323 113 321 113 q 328 114 324 113 q 335 114 331 114 q 353 113 345 114 q 362 107 355 112 q 376 98 369 103 q 383 92 382 92 q 407 89 386 89 q 432 92 421 89 q 439 93 435 93 q 453 90 443 93 q 468 86 464 86 q 481 87 472 86 q 494 89 491 89 q 517 94 500 89 q 536 98 535 98 q 578 129 538 98 q 610 143 595 143 q 619 140 616 143 q 623 134 623 137 q 614 107 623 127 z "},"":{"ha":690,"x_min":62,"x_max":628,"o":"m 366 212 q 363 178 363 188 q 365 143 363 168 q 367 103 367 118 q 366 93 367 100 q 366 82 366 85 q 354 7 362 26 q 334 -17 348 -8 q 306 -26 321 -26 q 273 -3 285 -26 q 263 32 269 5 q 254 81 256 60 l 254 96 q 255 122 254 103 q 256 150 256 140 l 252 193 q 249 212 249 207 q 239 214 248 214 q 197 207 224 214 q 187 205 195 205 q 174 207 183 205 q 160 210 165 209 q 121 225 130 212 q 113 278 113 235 q 123 301 113 292 q 149 310 134 310 q 171 308 156 310 q 191 304 186 305 q 256 310 216 304 q 260 343 256 329 q 265 392 262 357 l 248 393 q 239 395 246 395 q 197 387 227 395 q 187 386 195 386 q 174 388 183 386 q 160 390 165 389 q 121 406 130 393 q 113 458 113 416 q 123 482 113 473 q 149 490 134 490 q 171 488 156 490 q 191 485 186 486 q 245 489 218 485 q 211 564 238 501 q 179 637 184 627 q 168 700 168 659 q 160 724 168 707 q 150 750 153 741 q 137 794 143 768 q 125 832 130 819 q 111 856 120 846 q 103 865 107 861 q 97 871 99 869 q 93 876 96 873 q 90 883 91 878 q 86 893 88 887 q 81 911 84 899 q 62 999 66 962 q 72 1026 62 1014 q 93 1042 81 1038 q 102 1043 96 1043 q 138 1028 119 1043 q 171 986 158 1014 q 202 934 183 959 q 225 900 221 909 q 251 839 236 878 q 271 779 266 800 q 282 746 273 766 q 292 711 291 726 q 296 691 292 699 q 306 671 299 682 q 317 653 313 660 q 332 614 323 640 q 342 586 340 589 q 350 592 342 585 q 367 609 358 598 q 379 628 376 620 q 384 651 380 629 q 393 687 387 672 q 410 715 399 703 q 461 800 450 764 q 497 878 471 830 q 526 951 516 912 q 533 967 528 959 q 542 982 538 976 q 553 997 545 987 q 562 1010 560 1006 q 570 1022 566 1015 q 578 1035 575 1030 q 586 1043 581 1039 q 596 1047 591 1046 q 617 1039 606 1047 q 628 1019 628 1031 q 619 997 628 1008 q 595 954 606 980 q 572 911 585 928 q 555 872 559 891 q 543 836 552 853 q 521 802 532 816 q 505 778 510 788 q 496 761 502 770 q 486 742 490 751 q 478 718 481 733 q 469 693 475 703 q 455 672 463 682 q 443 654 447 661 q 426 616 436 643 q 410 576 416 590 q 401 557 407 571 q 392 538 395 544 q 387 524 390 533 q 382 507 383 514 q 380 492 380 499 q 384 490 382 492 q 387 488 387 488 q 393 486 389 486 q 406 488 397 486 q 418 489 414 489 q 449 490 429 489 q 478 492 469 492 q 510 485 500 492 q 522 450 522 479 l 522 406 q 494 396 521 396 l 472 396 q 450 393 465 396 q 407 390 435 390 q 382 393 406 390 q 381 379 382 387 q 380 371 380 372 q 367 309 372 341 q 387 307 385 309 q 393 306 389 306 q 406 307 397 306 q 418 309 414 309 q 449 310 429 309 q 478 311 469 311 q 510 304 500 311 q 522 269 522 298 l 522 225 q 494 215 521 215 l 472 215 q 450 212 465 215 q 407 210 435 210 q 388 211 404 210 q 366 212 372 212 z "},"":{"ha":243,"x_min":62,"x_max":154,"o":"m 147 349 q 151 301 147 333 q 154 264 154 270 q 150 241 151 241 q 149 231 149 239 l 149 216 q 149 184 149 202 q 150 157 149 166 q 151 143 150 149 q 153 131 153 139 q 150 114 153 119 q 149 102 149 113 q 150 62 149 90 q 151 35 151 35 q 152 29 151 33 q 153 22 153 25 l 147 17 q 98 3 140 3 q 82 4 87 3 q 72 22 72 5 l 72 41 q 69 56 72 47 q 66 94 66 65 q 68 111 66 97 q 71 132 71 125 q 68 146 71 138 q 64 163 64 152 q 65 178 64 168 q 66 195 66 189 l 66 256 q 71 293 66 283 l 71 300 q 64 342 71 315 q 62 351 62 346 q 64 365 62 356 q 66 379 66 374 q 82 418 68 408 q 107 427 93 427 q 144 416 134 427 q 153 390 153 404 q 150 368 153 382 q 147 349 148 353 m 147 911 l 147 905 q 151 863 147 894 q 154 825 154 833 q 153 818 153 823 q 152 808 153 812 q 150 804 151 804 q 149 793 149 801 l 149 779 q 149 747 149 765 q 150 720 149 729 q 151 705 150 711 q 153 692 153 701 q 150 676 153 682 q 149 663 149 675 q 149 638 149 653 q 151 611 150 623 q 151 597 151 599 q 152 591 151 595 q 153 585 153 587 l 147 579 q 98 566 140 566 q 82 567 87 566 q 72 585 72 568 l 72 604 q 69 619 72 610 q 66 657 66 628 q 68 674 66 660 q 71 694 71 688 q 68 708 71 700 q 64 724 64 714 q 65 740 64 728 q 66 757 66 751 l 66 818 q 71 854 66 846 l 71 863 q 64 904 71 877 q 62 914 62 907 q 64 928 62 919 q 66 942 66 937 q 82 981 69 971 q 107 989 92 989 q 144 978 135 989 q 153 953 153 968 q 150 930 153 945 q 147 911 148 915 z "}}}
